<svg width="27" height="27" viewBox="0 0 27 27" fill="none" xmlns="http://www.w3.org/2000/svg">
<path d="M1 3.38086C1 2.00015 2.11929 0.880859 3.5 0.880859H17.3034L21.6512 5.25035L26 9.62088V23.3809C26 24.7616 24.8807 25.8809 23.5 25.8809H3.5C2.11929 25.8809 1 24.7616 1 23.3809V3.38086Z" stroke="#E53B2C"/>
<path d="M9.67623 13.3239C9.67623 12.0728 9.88595 11.0965 10.3054 10.395C10.7321 9.68629 11.4625 9.33193 12.4966 9.33193C13.5307 9.33193 14.2575 9.68629 14.677 10.395C15.1037 11.0965 15.317 12.0728 15.317 13.3239C15.317 14.5894 15.1037 15.5802 14.677 16.2961C14.2575 17.0048 13.5307 17.3592 12.4966 17.3592C11.4625 17.3592 10.7321 17.0048 10.3054 16.2961C9.88595 15.5802 9.67623 14.5894 9.67623 13.3239ZM14.1021 13.3239C14.1021 12.7381 14.0623 12.2427 13.9827 11.8377C13.9104 11.4328 13.7585 11.1037 13.5271 10.8506C13.2957 10.5903 12.9522 10.4601 12.4966 10.4601C12.041 10.4601 11.6975 10.5903 11.4661 10.8506C11.2347 11.1037 11.0792 11.4328 10.9996 11.8377C10.9273 12.2427 10.8912 12.7381 10.8912 13.3239C10.8912 13.9313 10.9273 14.4412 10.9996 14.8534C11.072 15.2656 11.2238 15.5982 11.4552 15.8513C11.6939 16.1045 12.041 16.231 12.4966 16.231C12.9522 16.231 13.2957 16.1045 13.5271 15.8513C13.7658 15.5982 13.9213 15.2656 13.9936 14.8534C14.0659 14.4412 14.1021 13.9313 14.1021 13.3239Z" fill="#E53B2C"/>
</svg>
