<svg width="27" height="27" viewBox="0 0 27 27" fill="none" xmlns="http://www.w3.org/2000/svg">
<path d="M1 3.38086C1 2.00015 2.11929 0.880859 3.5 0.880859H17.3034L21.6512 5.25035L26 9.62088V23.3809C26 24.7616 24.8807 25.8809 23.5 25.8809H3.5C2.11929 25.8809 1 24.7616 1 23.3809V3.38086Z" stroke="#37A540"/>
<path d="M8.8077 15.6995C9.50195 15.0992 10.0479 14.6075 10.4457 14.2242C10.8507 13.8337 11.1869 13.4287 11.4545 13.0093C11.7221 12.5898 11.8559 12.1704 11.8559 11.751C11.8559 11.317 11.751 10.9772 11.5413 10.7313C11.3388 10.4854 11.017 10.3625 10.5759 10.3625C10.1492 10.3625 9.81653 10.4999 9.57788 10.7747C9.34647 11.0422 9.22353 11.4038 9.20906 11.8594H8.01583C8.03752 11.035 8.2834 10.4058 8.75347 9.97194C9.23076 9.53081 9.83461 9.31024 10.565 9.31024C11.3533 9.31024 11.968 9.52719 12.4091 9.9611C12.8575 10.395 13.0817 10.9735 13.0817 11.6967C13.0817 12.2174 12.9479 12.72 12.6803 13.2045C12.42 13.6818 12.1054 14.1121 11.7366 14.4954C11.375 14.8714 10.9121 15.309 10.3481 15.808L9.85992 16.2419H13.2986V17.2724H8.02668V16.372L8.8077 15.6995ZM14.2223 10.6011V9.47295H16.4786V17.3809H15.2311V10.6011H14.2223Z" fill="#37A540"/>
</svg>
