<svg width="27" height="27" viewBox="0 0 27 27" fill="none" xmlns="http://www.w3.org/2000/svg">
<path d="M1 3.38086C1 2.00015 2.11929 0.880859 3.5 0.880859H17.3034L21.6512 5.25035L26 9.62088V23.3809C26 24.7616 24.8807 25.8809 23.5 25.8809H3.5C2.11929 25.8809 1 24.7616 1 23.3809V3.38086Z" stroke="#F09731"/>
<path d="M7.48353 15.6995C8.17778 15.0992 8.72378 14.6075 9.12152 14.2242C9.5265 13.8337 9.86277 13.4287 10.1303 13.0093C10.3979 12.5898 10.5317 12.1704 10.5317 11.751C10.5317 11.317 10.4269 10.9772 10.2171 10.7313C10.0146 10.4854 9.69283 10.3625 9.25169 10.3625C8.82502 10.3625 8.49236 10.4999 8.25371 10.7747C8.0223 11.0422 7.89936 11.4038 7.88489 11.8594H6.69166C6.71335 11.035 6.95923 10.4058 7.42929 9.97194C7.90659 9.53081 8.51044 9.31024 9.24085 9.31024C10.0291 9.31024 10.6438 9.52719 11.0849 9.9611C11.5333 10.395 11.7575 10.9735 11.7575 11.6967C11.7575 12.2174 11.6237 12.72 11.3561 13.2045C11.0958 13.6818 10.7812 14.1121 10.4124 14.4954C10.0508 14.8714 9.58797 15.309 9.02389 15.808L8.53575 16.2419H11.9744V17.2724H6.7025V16.372L7.48353 15.6995ZM13.0391 11.4255C13.0825 10.753 13.3392 10.2287 13.8093 9.85262C14.2866 9.47657 14.8941 9.28854 15.6317 9.28854C16.1379 9.28854 16.5754 9.37894 16.9443 9.55973C17.3131 9.74053 17.5915 9.98641 17.7795 10.2974C17.9675 10.6083 18.0616 10.9591 18.0616 11.3496C18.0616 11.798 17.9422 12.1812 17.7036 12.4994C17.4649 12.8176 17.1793 13.031 16.8466 13.1394V13.1828C17.2733 13.313 17.606 13.5517 17.8446 13.8988C18.0833 14.2387 18.2026 14.6762 18.2026 15.2113C18.2026 15.638 18.105 16.0177 17.9097 16.3503C17.7144 16.683 17.4252 16.947 17.0419 17.1422C16.6586 17.3302 16.1994 17.4242 15.6642 17.4242C14.8832 17.4242 14.2396 17.2254 13.7334 16.8276C13.2344 16.4227 12.9668 15.8441 12.9306 15.092H14.1239C14.1528 15.4753 14.3011 15.7899 14.5686 16.0358C14.8362 16.2744 15.1978 16.3937 15.6534 16.3937C16.0945 16.3937 16.4344 16.2744 16.6731 16.0358C16.9117 15.7899 17.031 15.4753 17.031 15.092C17.031 14.5858 16.8683 14.2278 16.5429 14.0181C16.2247 13.8011 15.7329 13.6927 15.0676 13.6927H14.7856V12.673H15.0785C15.6642 12.6658 16.109 12.5681 16.4127 12.3801C16.7237 12.1921 16.8792 11.8956 16.8792 11.4906C16.8792 11.1435 16.7671 10.8687 16.5429 10.6662C16.3187 10.4565 16.0005 10.3516 15.5883 10.3516C15.1833 10.3516 14.8687 10.4565 14.6446 10.6662C14.4204 10.8687 14.2866 11.1218 14.2432 11.4255H13.0391Z" fill="#F09731"/>
</svg>
