<svg width="27" height="27" viewBox="0 0 27 27" fill="none" xmlns="http://www.w3.org/2000/svg">
<path d="M1 3.38086C1 2.00015 2.11929 0.880859 3.5 0.880859H17.3034L21.6512 5.25035L26 9.62088V23.3809C26 24.7616 24.8807 25.8809 23.5 25.8809H3.5C2.11929 25.8809 1 24.7616 1 23.3809V3.38086Z" stroke="#74367E"/>
<path d="M6.77844 11.4255C6.82183 10.753 7.07856 10.2287 7.54862 9.85262C8.02591 9.47657 8.63338 9.28854 9.37102 9.28854C9.87724 9.28854 10.3148 9.37894 10.6836 9.55973C11.0524 9.74053 11.3308 9.98641 11.5188 10.2974C11.7069 10.6083 11.8009 10.9591 11.8009 11.3496C11.8009 11.798 11.6816 12.1812 11.4429 12.4994C11.2043 12.8176 10.9186 13.031 10.5859 13.1394V13.1828C11.0126 13.313 11.3453 13.5517 11.5839 13.8988C11.8226 14.2387 11.9419 14.6762 11.9419 15.2113C11.9419 15.638 11.8443 16.0177 11.649 16.3503C11.4538 16.683 11.1645 16.947 10.7812 17.1422C10.3979 17.3302 9.93871 17.4242 9.40356 17.4242C8.62253 17.4242 7.97891 17.2254 7.47268 16.8276C6.97369 16.4227 6.70612 15.8441 6.66996 15.092H7.8632C7.89213 15.4753 8.04038 15.7899 8.30795 16.0358C8.57553 16.2744 8.93711 16.3937 9.39271 16.3937C9.83385 16.3937 10.1737 16.2744 10.4124 16.0358C10.651 15.7899 10.7704 15.4753 10.7704 15.092C10.7704 14.5858 10.6076 14.2278 10.2822 14.0181C9.96402 13.8011 9.47226 13.6927 8.80694 13.6927H8.5249V12.673H8.81779C9.40356 12.6658 9.84831 12.5681 10.152 12.3801C10.463 12.1921 10.6185 11.8956 10.6185 11.4906C10.6185 11.1435 10.5064 10.8687 10.2822 10.6662C10.058 10.4565 9.73984 10.3516 9.32763 10.3516C8.92265 10.3516 8.60807 10.4565 8.38388 10.6662C8.1597 10.8687 8.02591 11.1218 7.98252 11.4255H6.77844ZM13.9243 15.6995C14.6185 15.0992 15.1645 14.6075 15.5623 14.2242C15.9673 13.8337 16.3035 13.4287 16.5711 13.0093C16.8387 12.5898 16.9725 12.1704 16.9725 11.751C16.9725 11.317 16.8676 10.9772 16.6579 10.7313C16.4554 10.4854 16.1336 10.3625 15.6925 10.3625C15.2658 10.3625 14.9331 10.4999 14.6945 10.7747C14.4631 11.0422 14.3401 11.4038 14.3257 11.8594H13.1324C13.1541 11.035 13.4 10.4058 13.8701 9.97194C14.3474 9.53081 14.9512 9.31024 15.6816 9.31024C16.4699 9.31024 17.0846 9.52719 17.5257 9.9611C17.9741 10.395 18.1983 10.9735 18.1983 11.6967C18.1983 12.2174 18.0645 12.72 17.7969 13.2045C17.5366 13.6818 17.222 14.1121 16.8532 14.4954C16.4916 14.8714 16.0287 15.309 15.4647 15.808L14.9765 16.2419H18.4152V17.2724H13.1433V16.372L13.9243 15.6995Z" fill="#74367E"/>
</svg>
