<svg width="27" height="27" viewBox="0 0 27 27" fill="none" xmlns="http://www.w3.org/2000/svg">
<path d="M1 3.38086C1 2.00015 2.11929 0.880859 3.5 0.880859H17.3034L21.6512 5.25035L26 9.62088V23.3809C26 24.7616 24.8807 25.8809 23.5 25.8809H3.5C2.11929 25.8809 1 24.7616 1 23.3809V3.38086Z" stroke="#E7DA21"/>
<path d="M14.7852 10.536H11.1513V12.6947C11.3031 12.4922 11.5273 12.3223 11.8238 12.1849C12.1275 12.0475 12.4493 11.9788 12.7892 11.9788C13.3967 11.9788 13.8885 12.1089 14.2645 12.3693C14.6478 12.6296 14.919 12.9587 15.0781 13.3564C15.2444 13.7541 15.3276 14.1736 15.3276 14.6147C15.3276 15.1499 15.2227 15.6272 15.013 16.0466C14.8105 16.4588 14.5032 16.7842 14.091 17.0229C13.686 17.2615 13.187 17.3809 12.594 17.3809C11.8057 17.3809 11.1729 17.1856 10.6957 16.7951C10.2184 16.4046 9.9327 15.8875 9.83869 15.2439H11.0428C11.1223 15.5838 11.2995 15.855 11.5743 16.0575C11.8491 16.2527 12.1926 16.3503 12.6048 16.3503C13.1183 16.3503 13.5016 16.1949 13.7547 15.8839C14.015 15.5729 14.1452 15.1607 14.1452 14.6473C14.1452 14.1266 14.015 13.7288 13.7547 13.454C13.4943 13.172 13.1111 13.031 12.6048 13.031C12.2505 13.031 11.9504 13.1214 11.7045 13.3022C11.4658 13.4757 11.2923 13.7144 11.1838 14.0181H10.0123V9.45126H14.7852V10.536Z" fill="#E7DA21"/>
</svg>
