<svg width="22" height="23" viewBox="0 0 22 23" fill="none" xmlns="http://www.w3.org/2000/svg">
<circle opacity="0.2" cx="11.2026" cy="11.3013" r="10.7241" fill="#FF3B30"/>
<path d="M16.2642 11.3006C16.2642 14.0158 14.0631 16.2169 11.3479 16.2169C8.63274 16.2169 6.43164 14.0158 6.43164 11.3006C6.43164 8.58547 8.63274 6.38437 11.3479 6.38437C14.0631 6.38437 16.2642 8.58547 16.2642 11.3006Z" stroke="#FF3B30" stroke-width="0.8" stroke-miterlimit="10" stroke-linejoin="round"/>
<path d="M11.3481 5.59655V7.17218" stroke="#FF3B30" stroke-width="0.8" stroke-miterlimit="10" stroke-linecap="round" stroke-linejoin="round"/>
<path d="M5.64404 11.3009H7.21968" stroke="#FF3B30" stroke-width="0.8" stroke-miterlimit="10" stroke-linecap="round" stroke-linejoin="round"/>
<path d="M11.3481 17.0049V15.4292" stroke="#FF3B30" stroke-width="0.8" stroke-miterlimit="10" stroke-linecap="round" stroke-linejoin="round"/>
<path d="M17.0522 11.3009H15.4766" stroke="#FF3B30" stroke-width="0.8" stroke-miterlimit="10" stroke-linecap="round" stroke-linejoin="round"/>
<path d="M12.7847 11.3019C12.7847 12.0953 12.1415 12.7384 11.3482 12.7384C10.5548 12.7384 9.91162 12.0953 9.91162 11.3019C9.91162 10.5085 10.5548 9.86533 11.3482 9.86533C12.1415 9.86533 12.7847 10.5085 12.7847 11.3019Z" stroke="#FF3B30" stroke-width="0.8" stroke-miterlimit="10" stroke-linecap="round" stroke-linejoin="round"/>
<path d="M11.3475 11.6554C11.5332 11.6554 11.7111 11.4921 11.7025 11.3004C11.6939 11.108 11.5465 10.9453 11.3475 10.9453C11.1618 10.9453 10.9839 11.1086 10.9925 11.3004C11.0011 11.4927 11.1485 11.6554 11.3475 11.6554Z" fill="#FF3B30"/>
<path d="M11.3481 9.86536V9.14709" stroke="#FF3B30" stroke-width="0.8" stroke-miterlimit="10" stroke-linecap="round" stroke-linejoin="round"/>
<path d="M9.91163 11.3009H9.19336" stroke="#FF3B30" stroke-width="0.8" stroke-miterlimit="10" stroke-linecap="round" stroke-linejoin="round"/>
<path d="M11.3477 12.7372V13.4554" stroke="#FF3B30" stroke-width="0.8" stroke-miterlimit="10" stroke-linecap="round" stroke-linejoin="round"/>
<path d="M12.7847 11.3009H13.5029" stroke="#FF3B30" stroke-width="0.8" stroke-miterlimit="10" stroke-linecap="round" stroke-linejoin="round"/>
</svg>
