<svg width="18" height="12" viewBox="0 0 18 12" fill="none" xmlns="http://www.w3.org/2000/svg">
<path d="M16.84 6.44014C17.2376 6.44014 17.56 6.11778 17.56 5.72014C17.56 5.32249 17.2376 5.00014 16.84 5.00014V6.44014ZM1.47998 5.00014C1.08234 5.00014 0.759981 5.32249 0.759981 5.72014C0.759981 6.11778 1.08234 6.44014 1.47998 6.44014V5.00014ZM4.81314 11.0315C5.09557 11.3114 5.55144 11.3094 5.83136 11.027C6.11128 10.7445 6.10925 10.2887 5.82682 10.0088L4.81314 11.0315ZM3.62753 8.84272L4.13437 8.33134L3.62753 8.84272ZM3.62753 2.59755L3.12069 2.08617L3.62753 2.59755ZM5.82682 1.43152C6.10925 1.1516 6.11128 0.695724 5.83136 0.413295C5.55144 0.130866 5.09557 0.128832 4.81314 0.408752L5.82682 1.43152ZM1.49907 6.02094L0.784853 6.11197L0.784853 6.11197L1.49907 6.02094ZM1.49907 5.41934L0.784853 5.3283L0.784853 5.3283L1.49907 5.41934ZM16.84 5.00014H1.47998V6.44014H16.84V5.00014ZM5.82682 10.0088L4.13437 8.33134L3.12069 9.3541L4.81314 11.0315L5.82682 10.0088ZM4.13437 3.10894L5.82682 1.43152L4.81314 0.408752L3.12069 2.08617L4.13437 3.10894ZM4.13437 8.33134C3.4475 7.65056 2.97633 7.18205 2.65751 6.78506C2.34782 6.39943 2.24157 6.15173 2.2133 5.9299L0.784853 6.11197C0.860488 6.70536 1.14362 7.1997 1.53475 7.68673C1.91676 8.16241 2.45787 8.69717 3.12069 9.3541L4.13437 8.33134ZM3.12069 2.08617C2.45787 2.7431 1.91676 3.27786 1.53475 3.75354C1.14362 4.24057 0.860488 4.73491 0.784853 5.3283L2.2133 5.51037C2.24157 5.28854 2.34782 5.04084 2.65751 4.65521C2.97633 4.25823 3.4475 3.78971 4.13437 3.10894L3.12069 2.08617ZM2.2133 5.9299C2.19554 5.79061 2.19554 5.64966 2.2133 5.51037L0.784853 5.3283C0.75169 5.58849 0.75169 5.85179 0.784853 6.11197L2.2133 5.9299Z" fill="#72777A"/>
</svg>
