<svg width="44" height="30" viewBox="0 0 44 30" fill="none" xmlns="http://www.w3.org/2000/svg">
<mask id="mask0_955_6247" style="mask-type:alpha" maskUnits="userSpaceOnUse" x="0" y="0" width="100" height="30">
<rect x="0.265381" y="0.848633" width="99.1706" height="28.6493" fill="url(#paint0_radial_955_6247)"/>
</mask>
<g mask="url(#mask0_955_6247)">
<circle opacity="0.4" cx="1.36728" cy="1.95053" r="1.1019" fill="white"/>
<circle opacity="0.2" cx="10.1825" cy="1.95053" r="1.1019" fill="white"/>
<circle opacity="0.4" cx="18.9976" cy="1.95053" r="1.1019" fill="white"/>
<circle opacity="0.4" cx="27.8128" cy="1.95053" r="1.1019" fill="white"/>
<circle opacity="0.2" cx="36.628" cy="1.95053" r="1.1019" fill="white"/>
<circle opacity="0.6" cx="1.36728" cy="10.766" r="1.1019" fill="white"/>
<circle opacity="0.4" cx="10.1825" cy="10.766" r="1.1019" fill="white"/>
<circle opacity="0.8" cx="18.9976" cy="10.766" r="1.1019" fill="white"/>
<circle opacity="0.4" cx="27.8128" cy="10.766" r="1.1019" fill="white"/>
<circle opacity="0.1" cx="36.628" cy="10.766" r="1.1019" fill="white"/>
<circle opacity="0.2" cx="1.36728" cy="19.5804" r="1.1019" fill="white"/>
<circle opacity="0.2" cx="10.1825" cy="19.5804" r="1.1019" fill="white"/>
<circle opacity="0.2" cx="18.9976" cy="19.5804" r="1.1019" fill="white"/>
<circle opacity="0.1" cx="27.8128" cy="19.5804" r="1.1019" fill="white"/>
<circle opacity="0.4" cx="36.628" cy="19.5804" r="1.1019" fill="white"/>
<circle opacity="0.6" cx="1.36728" cy="28.3958" r="1.1019" fill="white"/>
<circle opacity="0.6" cx="10.1825" cy="28.3958" r="1.1019" fill="white"/>
<circle opacity="0.2" cx="18.9976" cy="28.3958" r="1.1019" fill="white"/>
<circle opacity="0.8" cx="27.8128" cy="28.3958" r="1.1019" fill="white"/>
<circle opacity="0.4" cx="36.628" cy="28.3958" r="1.1019" fill="white"/>
</g>
<defs>
<radialGradient id="paint0_radial_955_6247" cx="0" cy="0" r="1" gradientUnits="userSpaceOnUse" gradientTransform="translate(99.436 15.5406) rotate(-180) scale(99.1706 75.8363)">
<stop stop-color="#C4C4C4" stop-opacity="0.8"/>
<stop offset="1" stop-color="#C4C4C4" stop-opacity="0"/>
</radialGradient>
</defs>
</svg>
