<svg width="7" height="11" viewBox="0 0 7 11" fill="none" xmlns="http://www.w3.org/2000/svg">
<path fill-rule="evenodd" clip-rule="evenodd" d="M6.51188 5.14191C6.51188 5.40341 6.41178 5.6649 6.21259 5.86409L2.12672 9.94997C1.72732 10.3494 1.08175 10.3494 0.682358 9.94997C0.282964 9.55057 0.282964 8.905 0.682358 8.50561L4.05831 5.12965L0.810042 1.76596C0.418819 1.35839 0.430055 0.713843 0.835579 0.321599C1.2411 -0.0706444 1.88871 -0.0594082 2.27994 0.346115L6.22485 4.43199C6.41689 4.63118 6.51188 4.88654 6.51188 5.14191Z" fill="#8F9BB3"/>
<mask id="mask0_2_542" style="mask-type:luminance" maskUnits="userSpaceOnUse" x="0" y="0" width="7" height="11">
<path fill-rule="evenodd" clip-rule="evenodd" d="M6.51188 5.14191C6.51188 5.40341 6.41178 5.6649 6.21259 5.86409L2.12672 9.94997C1.72732 10.3494 1.08175 10.3494 0.682358 9.94997C0.282964 9.55057 0.282964 8.905 0.682358 8.50561L4.05831 5.12965L0.810042 1.76596C0.418819 1.35839 0.430055 0.713843 0.835579 0.321599C1.2411 -0.0706444 1.88871 -0.0594082 2.27994 0.346115L6.22485 4.43199C6.41689 4.63118 6.51188 4.88654 6.51188 5.14191Z" fill="white"/>
</mask>
<g mask="url(#mask0_2_542)">
</g>
</svg>
