<svg width="26" height="30" viewBox="0 0 26 30" fill="none" xmlns="http://www.w3.org/2000/svg">
<path d="M15 24L9.5 23.5V22L9 21L8.5 19.5L7 18.5L6.5 16.5L6 15C6 14.5 6.1 13.4 6.5 13C6.9 12.6 7 11.5 7 11L8 9.5L10 8L12.5 7.5L15 8L18 10L19 12.5L19.5 15L19 17.5L17.5 18.5L17 20.5L16 23L15 24Z" fill="#053682"/>
<path d="M12.8595 7.12158C8.83992 7.12158 5.55591 10.4056 5.55591 14.4252C5.55591 16.527 6.47543 18.5499 8.02548 19.9161C9.18145 21.072 9.07636 23.5416 9.05009 23.5679C9.05009 23.6992 9.07636 23.8043 9.18145 23.9094C9.26027 23.9882 9.39163 24.0408 9.49672 24.0408H16.1961C16.3275 24.0408 16.4325 23.9882 16.5114 23.9094C16.5902 23.8306 16.6427 23.6992 16.6427 23.5679C16.6427 23.5416 16.5114 21.072 17.6673 19.9161C17.6936 19.8898 17.7199 19.8635 17.7461 19.8373C19.2699 18.4448 20.1632 16.4744 20.1632 14.4252C20.1632 10.4056 16.8792 7.12158 12.8595 7.12158ZM17.0631 19.233C17.0368 19.2593 16.9843 19.3118 16.9843 19.3381C15.9596 20.4415 15.7757 22.2543 15.7495 23.1213H9.94334C9.91707 22.2543 9.73316 20.3627 8.62974 19.233C7.23732 18.0245 6.42289 16.2643 6.42289 14.3989C6.42289 10.8522 9.28654 7.98856 12.8333 7.98856C16.38 7.98856 19.2436 10.8522 19.2436 14.3989C19.2436 16.2643 18.4555 18.0245 17.0631 19.233Z" fill="#161616" stroke="#161616"/>
<path d="M15.7493 27H9.9169C9.31265 27 8.81348 27.4992 8.81348 28.1034C8.81348 28.7077 9.31265 29.2069 9.9169 29.2069H15.723C16.3536 29.1806 16.8527 28.7077 16.8527 28.1034C16.8527 27.4992 16.3536 27 15.7493 27ZM15.7493 28.2873H9.9169C9.81181 28.2873 9.70673 28.2085 9.70673 28.0772C9.70673 27.9458 9.78554 27.867 9.9169 27.867H15.723C15.8281 27.867 15.9332 27.9458 15.9332 28.0772C15.9332 28.2085 15.8544 28.2873 15.7493 28.2873Z" fill="#161616" stroke="#161616"/>
<path d="M12.8333 4.94081C13.0961 4.94081 13.28 4.73063 13.28 4.49418V1.44662C13.28 1.21018 13.0698 1 12.8333 1C12.5969 1 12.3867 1.21018 12.3867 1.44662V4.49418C12.3867 4.73063 12.5969 4.94081 12.8333 4.94081Z" fill="#161616" stroke="#161616"/>
<path d="M20.2684 3.25932C20.0583 3.10169 19.7955 3.18051 19.6642 3.36441L17.9828 5.88653C17.8251 6.0967 17.8777 6.3857 18.0879 6.51706C18.1667 6.5696 18.2455 6.59587 18.3243 6.59587C18.4819 6.59587 18.6133 6.51706 18.6921 6.3857L20.3735 3.86358C20.5312 3.67968 20.4786 3.39068 20.2684 3.25932Z" fill="#161616" stroke="#161616"/>
<path d="M7.49984 6.49099C7.57865 6.49099 7.65747 6.46471 7.73629 6.41217C7.94646 6.28081 7.99901 5.99182 7.86765 5.78164L6.23878 3.23325C6.10742 3.02307 5.81843 2.97053 5.60825 3.10189C5.39807 3.23325 5.34553 3.52224 5.47689 3.73242L7.10576 6.28081C7.21085 6.43844 7.34221 6.49099 7.49984 6.49099Z" fill="#161616" stroke="#161616"/>
<path d="M4.32102 9.27598L1.66754 7.83101C1.45736 7.72592 1.16837 7.80474 1.06328 8.01492C0.93192 8.22509 1.01074 8.51409 1.24719 8.61917L3.90066 10.0641C3.97948 10.0904 4.03202 10.1167 4.11084 10.1167C4.26847 10.1167 4.4261 10.0379 4.50492 9.88023C4.61001 9.67006 4.53119 9.38106 4.32102 9.27598Z" fill="#161616" stroke="#161616"/>
<path d="M24.6295 8.01492C24.5244 7.80474 24.2354 7.72592 24.0252 7.83101L21.3455 9.27598C21.1353 9.38106 21.0565 9.67006 21.1616 9.88023C21.2404 10.0379 21.398 10.1167 21.5557 10.1167C21.6345 10.1167 21.7133 10.0904 21.7658 10.0641L24.4456 8.61917C24.6558 8.51409 24.7346 8.22509 24.6295 8.01492Z" fill="#161616" stroke="#161616"/>
</svg>
