<svg width="29" height="29" viewBox="0 0 29 29" fill="none" xmlns="http://www.w3.org/2000/svg">
<circle cx="14.1514" cy="14.5312" r="13.5" stroke="#666666"/>
<path d="M7.36806 18.7573C7.45343 18.7704 7.56506 18.777 7.70296 18.777C7.83429 18.777 7.93936 18.7704 8.02472 18.7639C8.11009 18.7573 8.16919 18.7376 8.21515 18.7179C8.26112 18.6982 8.29395 18.6719 8.32022 18.6391C8.34648 18.6063 8.35962 18.5734 8.37932 18.5275L9.12791 16.3277H12.9365L13.7245 18.5537C13.7442 18.5931 13.7639 18.6325 13.7836 18.6588C13.8033 18.6851 13.8361 18.7113 13.8821 18.7245C13.9281 18.7442 13.9937 18.7507 14.0791 18.7573C14.1645 18.7639 14.2827 18.7704 14.4271 18.7704C14.5716 18.7704 14.6898 18.7639 14.7752 18.7573C14.8605 18.7507 14.9262 18.7245 14.9656 18.6916C15.005 18.6588 15.0181 18.6128 15.0181 18.5472C15.0181 18.4815 14.9984 18.4027 14.959 18.2976L11.8924 9.79391C11.8727 9.74138 11.8465 9.69541 11.8136 9.66258C11.7808 9.62975 11.7348 9.59692 11.6692 9.58378C11.6101 9.56408 11.5247 9.55095 11.4262 9.54438C11.3277 9.53782 11.2029 9.53125 11.0519 9.53125C10.9074 9.53125 10.7958 9.53782 10.7039 9.54438C10.612 9.55095 10.5397 9.56408 10.4806 9.58378C10.4215 9.60348 10.3756 9.62975 10.3493 9.66258C10.3165 9.69541 10.2968 9.73481 10.2771 9.78735L7.21047 18.2911C7.17107 18.3961 7.15137 18.4815 7.15137 18.5406C7.15137 18.6063 7.1645 18.6522 7.2039 18.6851C7.21703 18.7245 7.2827 18.7507 7.36806 18.7573ZM11.0059 10.7986H11.0125L12.6082 15.3624H9.4234L11.0059 10.7986Z" fill="#666666"/>
<path d="M16.5221 18.3628C16.7125 18.5269 16.9424 18.6517 17.2182 18.7436C17.4874 18.829 17.7894 18.875 18.1243 18.875C18.5052 18.875 18.8664 18.7896 19.2078 18.6254C19.5493 18.4613 19.8579 18.2314 20.1403 17.9294V18.5663C20.1403 18.6254 20.16 18.6648 20.1928 18.6911C20.2256 18.7174 20.2782 18.7436 20.3504 18.7568C20.4226 18.7699 20.5211 18.7765 20.6459 18.7765C20.7707 18.7765 20.8692 18.7699 20.9348 18.7568C21.0005 18.7436 21.053 18.7239 21.0924 18.6911C21.1318 18.6648 21.1515 18.6189 21.1515 18.5663V14.2718C21.1515 13.8778 21.1056 13.5298 21.0202 13.2343C20.9283 12.9388 20.7838 12.6893 20.5868 12.4857C20.3898 12.2821 20.1271 12.1311 19.8119 12.0326C19.4902 11.9275 19.1028 11.875 18.6431 11.875C18.4001 11.875 18.1572 11.8947 17.9142 11.9407C17.6712 11.9866 17.4545 12.0392 17.251 12.1114C17.0474 12.1771 16.8701 12.2559 16.7125 12.3347C16.5549 12.42 16.4499 12.4923 16.3842 12.5514C16.3185 12.6105 16.2791 12.6761 16.266 12.7484C16.2463 12.814 16.2397 12.9125 16.2397 13.0307C16.2397 13.1029 16.2463 13.1686 16.2529 13.2277C16.2594 13.2868 16.2791 13.3328 16.2988 13.3722C16.3185 13.4116 16.3448 13.4378 16.3711 13.4575C16.3973 13.4772 16.4302 13.4838 16.4696 13.4838C16.5287 13.4838 16.614 13.451 16.7257 13.3787C16.8439 13.3131 16.9883 13.2343 17.1591 13.1555C17.3298 13.0701 17.5333 12.9979 17.7632 12.9322C17.993 12.8666 18.2491 12.8272 18.538 12.8272C18.8073 12.8272 19.0305 12.86 19.2144 12.9257C19.3983 12.9913 19.5493 13.0832 19.6609 13.208C19.7791 13.3328 19.8579 13.4904 19.9104 13.6808C19.963 13.8712 19.9892 14.0879 19.9892 14.3309V14.8234H19.1093C18.6168 14.8234 18.1703 14.8694 17.7697 14.9547C17.3757 15.0401 17.0409 15.1714 16.7651 15.3487C16.4893 15.526 16.2791 15.7427 16.1347 16.0054C15.9902 16.268 15.918 16.5832 15.918 16.9378C15.918 17.2465 15.9705 17.5157 16.0756 17.7587C16.1806 17.995 16.3317 18.192 16.5221 18.3628ZM17.2182 16.36C17.2904 16.2089 17.4086 16.0842 17.5596 15.9791C17.7172 15.874 17.9076 15.7952 18.144 15.7361C18.3804 15.6836 18.6562 15.6573 18.978 15.6573H19.9761V17.0101C19.6872 17.3318 19.4114 17.5682 19.1553 17.7258C18.8926 17.8834 18.6103 17.9622 18.3016 17.9622C17.9273 17.9622 17.6318 17.8637 17.4217 17.6667C17.2116 17.4697 17.1065 17.2071 17.1065 16.8787C17.1131 16.6817 17.1459 16.511 17.2182 16.36Z" fill="#666666"/>
</svg>
