<svg width="32" height="31" viewBox="0 0 32 31" fill="none" xmlns="http://www.w3.org/2000/svg">
<g filter="url(#filter0_d_155_230099)">
<rect x="4" y="1.40039" width="24" height="24" rx="6" fill="url(#paint0_linear_155_230099)"/>
</g>
<path d="M17.4836 11.3224C16.8866 11.3224 16.403 10.8386 16.403 10.2419V8.08009C16.403 7.79374 16.2895 7.51899 16.0869 7.31638C15.8843 7.11376 15.6088 7.00003 15.3224 7.00003H12.0806C11.4836 7.00003 11 7.48385 11 8.08063V17.8061C11 18.4029 11.4836 18.8867 12.0806 18.8867H19.6449C19.9312 18.8867 20.2068 18.773 20.4094 18.5701C20.612 18.3675 20.7254 18.0927 20.7254 17.8061V12.403C20.7254 12.1164 20.612 11.8417 20.4094 11.6391C20.2068 11.4362 19.9312 11.3224 19.6449 11.3224H17.4836Z" stroke="#F2F8FF" stroke-width="0.8" stroke-miterlimit="10" stroke-linecap="round" stroke-linejoin="round"/>
<path d="M20.7253 12.4023C20.7253 11.7105 20.4498 11.047 19.9608 10.5577C19.1747 9.77052 17.9535 8.55053 17.1674 7.76331C16.6784 7.27405 16.0138 6.9993 15.3223 6.9993C15.6086 6.9993 15.8842 7.11303 16.0868 7.31564C16.2894 7.51829 16.4029 7.79304 16.4029 8.07939V10.2411C16.4029 10.8379 16.8864 11.3217 17.4835 11.3217H19.6447C19.9311 11.3217 20.2066 11.4355 20.4092 11.6381C20.6118 11.8407 20.7253 12.1155 20.7253 12.4018V12.4023Z" stroke="#F2F8FF" stroke-width="0.8" stroke-miterlimit="10" stroke-linecap="round" stroke-linejoin="round"/>
<path d="M14.2422 15.1037L15.3228 16.7246L17.484 13.4828" stroke="#F2F8FF" stroke-width="0.8" stroke-miterlimit="10" stroke-linecap="round" stroke-linejoin="round"/>
<defs>
<filter id="filter0_d_155_230099" x="0.664544" y="0.187497" width="30.6709" height="30.6709" filterUnits="userSpaceOnUse" color-interpolation-filters="sRGB">
<feFlood flood-opacity="0" result="BackgroundImageFix"/>
<feColorMatrix in="SourceAlpha" type="matrix" values="0 0 0 0 0 0 0 0 0 0 0 0 0 0 0 0 0 0 127 0" result="hardAlpha"/>
<feOffset dy="2.12256"/>
<feGaussianBlur stdDeviation="1.66773"/>
<feColorMatrix type="matrix" values="0 0 0 0 0 0 0 0 0 0 0 0 0 0 0 0 0 0 0.02 0"/>
<feBlend mode="normal" in2="BackgroundImageFix" result="effect1_dropShadow_155_230099"/>
<feBlend mode="normal" in="SourceGraphic" in2="effect1_dropShadow_155_230099" result="shape"/>
</filter>
<linearGradient id="paint0_linear_155_230099" x1="26.1333" y1="23.5337" x2="-4" y2="-8.46628" gradientUnits="userSpaceOnUse">
<stop stop-color="#AF52DE"/>
<stop offset="1" stop-color="#AF52DE" stop-opacity="0"/>
</linearGradient>
</defs>
</svg>
