<svg width="49" height="54" viewBox="0 0 49 54" fill="none" xmlns="http://www.w3.org/2000/svg">
<path d="M36.5 28.4775C29.5966 28.4775 24 34.0741 24 40.9775C24 47.881 29.5966 53.4775 36.5 53.4775C43.4034 53.4775 49 47.881 49 40.9775C49 34.0741 43.4034 28.4775 36.5 28.4775ZM26.1552 40.9775C26.1552 35.2737 30.7961 30.6327 36.5 30.6327C39.0198 30.6327 41.331 31.5392 43.1272 33.0418L28.5642 47.6047C27.0616 45.8086 26.1552 43.4969 26.1552 40.9775ZM36.5 51.3224C34.0905 51.3224 31.8724 50.4918 30.1121 49.1051L44.6276 34.5892C46.0142 36.35 46.8448 38.5681 46.8448 40.9775C46.8448 46.6814 42.2039 51.3224 36.5 51.3224Z" fill="#2669E8"/>
<path d="M35.8191 9.21908L29.6352 2.78064C29.6323 2.77757 29.6292 2.7744 29.6263 2.77133C28.2025 1.31361 26.2213 0.477539 24.191 0.477539H4.57219C2.05109 0.477539 0 2.5426 0 5.08088V44.8742C0 47.4125 2.05109 49.4775 4.57219 49.4775H24.1198C22.3679 46.9905 21.3369 43.9543 21.3369 40.68C21.3369 32.2755 28.1282 25.4379 36.4759 25.4379C36.9903 25.4379 37.4986 25.4639 38 25.5139V14.5924C38 12.5701 37.2255 10.6622 35.8191 9.21908ZM16.1551 34.7468H8.02674C7.18505 34.7468 6.50267 34.0598 6.50267 33.2124C6.50267 32.365 7.18505 31.678 8.02674 31.678H16.1551C16.9968 31.678 17.6791 32.365 17.6791 33.2124C17.6791 34.0598 16.9968 34.7468 16.1551 34.7468ZM16.1551 26.5631H8.02674C7.18505 26.5631 6.50267 25.8761 6.50267 25.0287C6.50267 24.1813 7.18505 23.4942 8.02674 23.4942H16.1551C16.9968 23.4942 17.6791 24.1813 17.6791 25.0287C17.6791 25.8761 16.9968 26.5631 16.1551 26.5631ZM16.1551 18.3794H8.02674C7.18505 18.3794 6.50267 17.6924 6.50267 16.845C6.50267 15.9975 7.18505 15.3105 8.02674 15.3105H16.1551C16.9968 15.3105 17.6791 15.9975 17.6791 16.845C17.6791 17.6924 16.9968 18.3794 16.1551 18.3794ZM25.9091 26.5631H24.2834C23.4417 26.5631 22.7594 25.8761 22.7594 25.0287C22.7594 24.1813 23.4417 23.4942 24.2834 23.4942H25.9091C26.7508 23.4942 27.4332 24.1813 27.4332 25.0287C27.4332 25.8761 26.7508 26.5631 25.9091 26.5631ZM25.9091 18.3794H24.2834C23.4417 18.3794 22.7594 17.6924 22.7594 16.845C22.7594 15.9975 23.4417 15.3105 24.2834 15.3105H25.9091C26.7508 15.3105 27.4332 15.9975 27.4332 16.845C27.4332 17.6924 26.7508 18.3794 25.9091 18.3794Z" fill="#2669E8"/>
</svg>
