<svg width="13" height="13" viewBox="0 0 13 13" fill="none" xmlns="http://www.w3.org/2000/svg">
<path d="M9.75 4.33325C9.75 3.4713 9.40759 2.64465 8.7981 2.03515C8.1886 1.42566 7.36195 1.08325 6.5 1.08325C5.63805 1.08325 4.8114 1.42566 4.2019 2.03515C3.59241 2.64465 3.25 3.4713 3.25 4.33325C3.25 8.12492 1.625 9.20825 1.625 9.20825H11.375C11.375 9.20825 9.75 8.12492 9.75 4.33325Z" stroke="#989898" stroke-width="1.08333" stroke-linecap="round" stroke-linejoin="round"/>
<path d="M7.43709 11.375C7.34186 11.5392 7.20517 11.6754 7.04072 11.7702C6.87626 11.8649 6.6898 11.9147 6.50001 11.9147C6.31022 11.9147 6.12376 11.8649 5.9593 11.7702C5.79485 11.6754 5.65816 11.5392 5.56293 11.375" stroke="#989898" stroke-width="1.08333" stroke-linecap="round" stroke-linejoin="round"/>
</svg>
