<svg width="15" height="14" viewBox="0 0 15 14" fill="none" xmlns="http://www.w3.org/2000/svg">
<path d="M2.92969 8.62891H4.6875C5.01112 8.62891 5.27344 8.36658 5.27344 8.04297C5.27344 7.71936 5.01112 7.45703 4.6875 7.45703H2.92969C2.60608 7.45703 2.34375 7.71936 2.34375 8.04297C2.34375 8.36658 2.60608 8.62891 2.92969 8.62891Z" fill="#989898"/>
<path d="M2.92969 6.28516H4.6875C5.01112 6.28516 5.27344 6.02283 5.27344 5.69922C5.27344 5.37561 5.01112 5.11328 4.6875 5.11328H2.92969C2.60608 5.11328 2.34375 5.37561 2.34375 5.69922C2.34375 6.02283 2.60608 6.28516 2.92969 6.28516Z" fill="#989898"/>
<path d="M6.37035 8.04289C6.37035 8.36651 6.63267 8.62883 6.95629 8.62883C8.18151 8.62883 9.33341 8.1517 10.1998 7.28533L14.4847 2.99996C15.1717 2.31303 15.1718 1.20107 14.4847 0.514029C13.7994 -0.171343 12.6842 -0.171343 11.9988 0.514029L7.71384 4.7994C6.84751 5.6658 6.37035 6.81767 6.37035 8.04289ZM12.8275 1.34269C13.0559 1.11423 13.4277 1.11423 13.6561 1.34269C13.8851 1.57162 13.8852 1.94231 13.6561 2.17133L9.37111 6.4567C8.8813 6.94654 8.26885 7.26925 7.60299 7.39619C7.72993 6.73036 8.05266 6.11791 8.54245 5.62807L12.8275 1.34269Z" fill="#989898"/>
<path d="M1.75781 13.3164C2.19071 13.3164 2.60678 13.1576 2.92946 12.8691L3.73943 12.1445H9.72657C11.342 12.1445 12.6563 10.8303 12.6563 9.21485V7.9005C12.6563 7.57689 12.3939 7.31457 12.0703 7.31457C11.7467 7.31457 11.4844 7.57689 11.4844 7.9005V9.21485C11.4844 10.1841 10.6958 10.9727 9.72657 10.9727H3.51563C3.37149 10.9727 3.23242 11.0258 3.12498 11.1219L2.14828 11.9955C2.04079 12.0916 1.90213 12.1445 1.75781 12.1445C1.43473 12.1445 1.17188 11.8817 1.17188 11.5586V4.52735C1.17188 3.55809 1.96043 2.76953 2.92969 2.76953H7.84422C8.16783 2.76953 8.43015 2.50721 8.43015 2.18359C8.43015 1.85998 8.16783 1.59766 7.84422 1.59766H2.92969C1.31423 1.59766 0 2.91192 0 4.52735V11.5586C0 12.5279 0.788555 13.3164 1.75781 13.3164Z" fill="#989898"/>
</svg>
