<svg width="30" height="31" viewBox="0 0 30 31" fill="none" xmlns="http://www.w3.org/2000/svg">
<path d="M2.5 4.38867H10C11.3261 4.38867 12.5979 4.91546 13.5355 5.85314C14.4732 6.79082 15 8.06259 15 9.38867V26.8887C15 25.8941 14.6049 24.9403 13.9017 24.237C13.1984 23.5338 12.2446 23.1387 11.25 23.1387H2.5V4.38867Z" stroke="#6691E3" stroke-width="2.5" stroke-linecap="round" stroke-linejoin="round"/>
<path d="M27.5 4.38867H20C18.6739 4.38867 17.4021 4.91546 16.4645 5.85314C15.5268 6.79082 15 8.06259 15 9.38867V26.8887C15 25.8941 15.3951 24.9403 16.0983 24.237C16.8016 23.5338 17.7554 23.1387 18.75 23.1387H27.5V4.38867Z" stroke="#6691E3" stroke-width="2.5" stroke-linecap="round" stroke-linejoin="round"/>
</svg>
