<svg width="22" height="23" viewBox="0 0 22 23" fill="none" xmlns="http://www.w3.org/2000/svg">
<path d="M1.95483 3.26758H7.32983C8.28019 3.26758 9.19162 3.64511 9.86363 4.31711C10.5356 4.98912 10.9132 5.90055 10.9132 6.85091V19.3926C10.9132 18.6798 10.63 17.9962 10.126 17.4922C9.62201 16.9882 8.93843 16.7051 8.22566 16.7051H1.95483V3.26758Z" stroke="#6691E3" stroke-width="1.79167" stroke-linecap="round" stroke-linejoin="round"/>
<path d="M19.8714 3.26758H14.4964C13.5461 3.26758 12.6346 3.64511 11.9626 4.31711C11.2906 4.98912 10.9131 5.90055 10.9131 6.85091V19.3926C10.9131 18.6798 11.1962 17.9962 11.7002 17.4922C12.2042 16.9882 12.8878 16.7051 13.6006 16.7051H19.8714V3.26758Z" stroke="#6691E3" stroke-width="1.79167" stroke-linecap="round" stroke-linejoin="round"/>
</svg>
