<svg width="15" height="16" viewBox="0 0 15 16" fill="none" xmlns="http://www.w3.org/2000/svg">
<path d="M1.25 1.9032H5C5.66304 1.9032 6.29893 2.16659 6.76777 2.63543C7.23661 3.10427 7.5 3.74016 7.5 4.4032V13.1532C7.5 12.6559 7.30246 12.179 6.95082 11.8274C6.59919 11.4757 6.12228 11.2782 5.625 11.2782H1.25V1.9032Z" stroke="#989898" stroke-width="1.25" stroke-linecap="round" stroke-linejoin="round"/>
<path d="M13.75 1.9032H10C9.33696 1.9032 8.70107 2.16659 8.23223 2.63543C7.76339 3.10427 7.5 3.74016 7.5 4.4032V13.1532C7.5 12.6559 7.69754 12.179 8.04917 11.8274C8.40081 11.4757 8.87772 11.2782 9.375 11.2782H13.75V1.9032Z" stroke="#989898" stroke-width="1.25" stroke-linecap="round" stroke-linejoin="round"/>
</svg>
