<svg width="21" height="21" viewBox="0 0 21 21" fill="none" xmlns="http://www.w3.org/2000/svg">
<path d="M10.0046 3.89551H4.2653C3.8304 3.89551 3.4133 4.06827 3.10578 4.3758C2.79825 4.68332 2.62549 5.10041 2.62549 5.53532V17.014C2.62549 17.4489 2.79825 17.866 3.10578 18.1735C3.4133 18.4811 3.8304 18.6538 4.2653 18.6538H15.744C16.1789 18.6538 16.596 18.4811 16.9035 18.1735C17.211 17.866 17.3838 17.4489 17.3838 17.014V11.2747" stroke="#6691E3" stroke-width="1.40555" stroke-linecap="round" stroke-linejoin="round"/>
<path d="M16.1539 2.66567C16.4801 2.3395 16.9225 2.15625 17.3838 2.15625C17.8451 2.15625 18.2875 2.3395 18.6137 2.66567C18.9398 2.99185 19.1231 3.43425 19.1231 3.89553C19.1231 4.35682 18.9398 4.79921 18.6137 5.12539L10.8245 12.9145L7.54492 13.7344L8.36483 10.4548L16.1539 2.66567Z" stroke="#6691E3" stroke-width="1.40555" stroke-linecap="round" stroke-linejoin="round"/>
</svg>
