<svg width="46" height="45" viewBox="0 0 46 45" fill="none" xmlns="http://www.w3.org/2000/svg">
<path d="M4.45132 24.3675V28.8764C4.45132 29.0588 4.52708 29.2257 4.67859 29.3773C4.82972 29.5293 4.99618 29.6053 5.178 29.6053H41.5049C41.6867 29.6053 41.8532 29.5293 42.0043 29.3773C42.1558 29.2257 42.2316 29.0588 42.2316 28.8764V24.3675H4.45132ZM5.178 0H41.5049C42.6824 0 43.6883 0.418224 44.5226 1.25467C45.3565 2.09151 45.7735 3.10046 45.7735 4.28151V28.8764C45.7735 30.0574 45.3565 31.0664 44.5226 31.9032C43.6883 32.7397 42.6824 33.1579 41.5049 33.1579H31.515V44.1343L23.3414 40.0352L15.1679 44.1343V33.1579H5.178C4.00052 33.1579 2.99462 32.7397 2.1603 31.9032C1.32638 31.0664 0.909424 30.0574 0.909424 28.8764V4.28151C0.909424 3.10046 1.32638 2.09151 2.1603 1.25467C2.99462 0.418224 4.00052 0 5.178 0ZM4.45132 18.2641H42.2316V4.28151C42.2316 4.09914 42.1558 3.93217 42.0043 3.78059C41.8532 3.62862 41.6867 3.55263 41.5049 3.55263H5.178C4.99618 3.55263 4.82972 3.62862 4.67859 3.78059C4.52708 3.93217 4.45132 4.09914 4.45132 4.28151V18.2641ZM4.45132 28.8764V3.55263H5.178C4.99618 3.55263 4.82972 3.62862 4.67859 3.78059C4.52708 3.93217 4.45132 4.09914 4.45132 4.28151V28.8764C4.45132 29.0588 4.52708 29.2257 4.67859 29.3773C4.82972 29.5293 4.99618 29.6053 5.178 29.6053H4.45132V28.8764Z" fill="#DA4A54"/>
</svg>
