<svg width="253" height="362" viewBox="0 0 253 362" fill="none" xmlns="http://www.w3.org/2000/svg">
<g clip-path="url(#clip0_73_1123)">
<path d="M73.0333 138.54L131.133 352.864H139.816L81.7309 138.54H73.0333Z" fill="#595959" stroke="#F7F6FF" stroke-linecap="round" stroke-linejoin="round"/>
<path d="M203.886 292.096H93.7604V301.068H203.886V292.096Z" fill="#595959" stroke="#F7F6FF" stroke-linecap="round" stroke-linejoin="round"/>
<path d="M262.635 90.4074L191.496 352.864H182.813L253.952 90.4074C256.577 80.729 250.562 72.8536 240.537 72.8536H179.236C169.226 72.8536 158.927 80.7146 156.302 90.4074L85.1637 352.864H76.4806L147.605 90.4074C151.485 76.0845 166.658 64.4733 181.501 64.4733H242.802C257.644 64.4733 266.515 76.0845 262.635 90.4074Z" fill="#595959" stroke="#F7F6FF" stroke-linecap="round" stroke-linejoin="round"/>
<path d="M263.76 90.4939L246.105 155.661C244.648 161.041 238.951 165.397 233.383 165.397H132.647C127.079 165.397 123.748 161.041 125.204 155.661L142.874 90.4939C144.33 85.1282 150.028 80.7578 155.595 80.7578H256.317C261.885 80.7578 265.217 85.1282 263.76 90.4939Z" fill="#F7F6FF"/>
<path d="M263.76 90.4939L246.105 155.661C244.648 161.041 238.951 165.397 233.383 165.397H132.647C127.079 165.397 123.748 161.041 125.204 155.661L142.874 90.4939C144.33 85.1282 150.028 80.7578 155.595 80.7578H256.317C261.885 80.7578 265.217 85.1282 263.76 90.4939Z" stroke="#263238" stroke-linecap="round" stroke-linejoin="round"/>
<path d="M204.535 231.343L237.48 352.864H246.163L213.233 231.343H204.535Z" fill="#595959" stroke="#F7F6FF" stroke-linecap="round" stroke-linejoin="round"/>
<path d="M213.262 217.409V229.295H83.5627V217.409C83.5627 212.577 87.4716 208.668 92.3036 208.668H204.507C208.545 208.668 211.949 211.395 212.959 215.116C213.161 215.837 213.262 216.616 213.262 217.409Z" fill="#F7F6FF"/>
<path d="M213.262 217.409V229.295H83.5627V217.409C83.5627 212.577 87.4716 208.668 92.3036 208.668H204.507C208.545 208.668 211.949 211.395 212.959 215.116C213.161 215.837 213.262 216.616 213.262 217.409Z" stroke="#263238" stroke-linecap="round" stroke-linejoin="round"/>
<path d="M217.661 225.645H80.2885C78.9263 225.645 77.822 226.75 77.822 228.112V234.328C77.822 235.691 78.9263 236.795 80.2885 236.795H217.661C219.023 236.795 220.128 235.691 220.128 234.328V228.112C220.128 226.75 219.023 225.645 217.661 225.645Z" fill="#595959" stroke="#F7F6FF" stroke-linecap="round" stroke-linejoin="round"/>
<path d="M79.351 226.064C73.1343 232.396 103.266 331.891 103.266 331.891C99.977 334.747 95.1306 336.103 90.5438 336.709C83.9089 337.589 77.8364 336.896 77.8364 336.896C77.8364 336.896 34.6515 232.151 46.5367 206.159C58.422 180.167 132.171 168.267 132.171 168.267L135.315 160.478L173.467 155.113L179.77 201.832C179.77 201.832 173.51 202.437 164.091 203.649C138.835 206.894 90.7746 214.438 79.351 226.064Z" fill="#F7F6FF"/>
<path d="M79.351 226.064C73.1343 232.396 103.266 331.891 103.266 331.891C99.977 334.747 95.1306 336.103 90.5439 336.709C83.9089 337.589 77.8364 336.896 77.8364 336.896C77.8364 336.896 34.6515 232.151 46.5367 206.159C58.422 180.167 132.171 168.267 132.171 168.267L135.315 160.478L173.467 155.113L179.77 201.832C179.77 201.832 173.51 202.437 164.091 203.649C138.835 206.894 90.7746 214.438 79.351 226.064Z" stroke="#263238" stroke-linecap="round" stroke-linejoin="round"/>
<path d="M58.0038 131.833C51.6717 130.736 96.7462 91.2296 96.7462 91.2296L118.483 105.855C118.483 105.855 81.5002 131.905 75.6874 132.612C69.8746 133.318 58.0182 131.833 58.0182 131.833H58.0038Z" fill="white"/>
<path d="M58.0038 131.833C51.6717 130.736 96.7462 91.2296 96.7462 91.2296L118.483 105.855C118.483 105.855 81.5002 131.905 75.6874 132.612C69.8746 133.318 58.0182 131.833 58.0182 131.833H58.0038Z" stroke="#263238" stroke-linecap="round" stroke-linejoin="round"/>
<path d="M65.9513 115.202C65.9513 115.202 75.3989 117.553 78.2837 119.572C81.1684 121.592 80.3607 128.703 80.3607 128.703C80.3607 128.703 67.7399 125.097 65.9513 115.216V115.202Z" fill="white" stroke="#263238" stroke-linecap="round" stroke-linejoin="round"/>
<path d="M59.8933 97.1145L77.4615 130.794H79.5386L62.8502 95.4557L59.8933 97.1145Z" fill="#F7F6FF"/>
<path d="M75.7306 121.462C75.7306 121.462 64.6531 113.587 61.9414 113.587C59.2298 113.587 51.1091 123.178 51.1091 127.982C51.1091 132.785 68.8072 135.453 72.2833 131.371C73.9998 129.337 70.5813 124.433 70.5813 124.433C70.5813 124.433 75.7306 129.77 77.2019 130.563C78.6731 131.357 81.3848 130.318 81.3848 130.318C81.3848 130.318 77.6923 124.433 75.7162 121.462H75.7306Z" fill="white" stroke="#263238" stroke-linecap="round" stroke-linejoin="round"/>
<path d="M70.5814 132.511C70.5814 132.511 66.3696 127.044 61.3357 124.433" stroke="#263238" stroke-linecap="round" stroke-linejoin="round"/>
<path d="M70.5813 124.448C70.5813 124.448 66.7446 121.101 64.1627 120.366" stroke="#263238" stroke-linecap="round" stroke-linejoin="round"/>
<path d="M58.5085 128.703C58.5085 128.703 64.7108 131.962 66.2541 133.347" stroke="#263238" stroke-linecap="round" stroke-linejoin="round"/>
<path d="M110.867 73.9354C105.184 77.9019 79.7405 104.067 79.7405 104.067C79.7405 104.067 91.669 117.64 102.126 119.601L130.469 105.841L110.882 73.9354H110.867Z" fill="#4680E0" stroke="#263238" stroke-linecap="round" stroke-linejoin="round"/>
<path d="M97.1789 321.319L109.165 352.849C109.165 352.849 111.156 360.97 74.9229 358.402L54.9459 356.686L97.1645 321.304L97.1789 321.319Z" fill="#14181A"/>
<path d="M97.1789 321.319L109.165 352.849C109.165 352.849 111.156 360.97 74.9229 358.402L54.9459 356.686L97.1645 321.304L97.1789 321.319Z" stroke="#263238" stroke-linecap="round" stroke-linejoin="round"/>
<path d="M92.6209 336.449C92.6209 336.449 95.1884 348.724 92.6209 357.854C92.6209 357.854 54.3833 363.84 45.83 361.561C37.2767 359.282 32.0841 355.013 31.8245 352.864C31.8245 352.864 32.1274 347.007 40.6951 345.291C49.2485 343.575 66.3119 342.435 73.0478 332.742C79.7837 323.049 92.6209 336.449 92.6209 336.449Z" fill="#14181A" stroke="#263238" stroke-linecap="round" stroke-linejoin="round"/>
<path d="M143.076 159.252C155.293 141.828 211.459 162.801 211.459 162.801C211.459 162.801 216.825 204.745 194.453 215.924C172.082 227.102 139.83 226.511 131.118 235.583L95.6644 340.272C95.6644 340.272 82.9282 345.594 64.408 337.214C64.408 337.214 86.9236 258.157 93.5297 230.088C100.064 202.322 142.383 183.456 142.383 183.456C142.383 183.456 138.821 179.431 137.508 174.686" fill="#F7F6FF"/>
<path d="M143.076 159.252C155.293 141.828 211.459 162.801 211.459 162.801C211.459 162.801 216.825 204.745 194.453 215.924C172.082 227.102 139.83 226.511 131.118 235.583L95.6644 340.272C95.6644 340.272 82.9282 345.594 64.408 337.214C64.408 337.214 86.9236 258.157 93.5297 230.088C100.064 202.322 142.383 183.456 142.383 183.456C142.383 183.456 138.821 179.431 137.508 174.686" stroke="#263238" stroke-linecap="round" stroke-linejoin="round"/>
<path d="M199.934 199.351C198.131 200.952 196.242 202.423 194.266 203.793" stroke="#161616" stroke-linecap="round" stroke-linejoin="round"/>
<path d="M204.536 163.825C209.122 173.777 209.468 186.412 203.05 195.629" stroke="#161616" stroke-linecap="round" stroke-linejoin="round"/>
<path d="M191.742 165.397C191.742 165.397 190.573 173.07 193.992 176.114C197.41 179.157 207.896 180.715 207.896 180.715" stroke="#161616" stroke-linecap="round" stroke-linejoin="round"/>
<path d="M145.701 165.758C145.701 165.758 146.177 173.402 143.075 173.042C139.974 172.681 139.816 176.099 139.816 176.099" stroke="#161616" stroke-linecap="round" stroke-linejoin="round"/>
<path d="M111.617 79.8203C111.141 77.7865 110.881 75.8104 110.881 73.9353C110.881 73.9353 128.233 59.3384 150.475 59.4249C177.015 59.5115 193.242 67.8629 199.732 79.4597C210.017 97.8068 211.459 162.801 211.459 162.801C211.459 162.801 144.878 173.07 135.315 160.464C133.657 158.286 134.926 142.795 134.926 142.795C134.926 142.795 127.469 123.25 125.897 108.077C125.897 108.077 123.026 104.211 119.795 98.7011C117.661 95.0662 115.382 90.7103 113.651 86.2821" fill="#4680E0"/>
<path d="M111.617 79.8203C111.141 77.7865 110.881 75.8104 110.881 73.9353C110.881 73.9353 128.233 59.3384 150.475 59.4249C177.015 59.5115 193.242 67.8629 199.732 79.4597C210.017 97.8068 211.459 162.801 211.459 162.801C211.459 162.801 144.878 173.07 135.315 160.464C133.657 158.286 134.926 142.795 134.926 142.795C134.926 142.795 127.469 123.25 125.897 108.077C125.897 108.077 123.026 104.211 119.795 98.7011C117.661 95.0663 115.382 90.7103 113.651 86.2821" stroke="#263238" stroke-linecap="round" stroke-linejoin="round"/>
<path d="M137.118 95.4557C137.118 95.4557 147.287 134.905 145.715 143.574C144.936 147.872 147.201 152.329 147.201 152.329C147.201 152.329 142.556 156.901 145.715 162.974" stroke="#263238" stroke-linecap="round" stroke-linejoin="round"/>
<path d="M164.091 128.082C162.1 127.909 160.283 127.448 158.985 126.467L155.97 113.255C155.97 113.255 165.274 114.279 173.827 112L177.058 126.467C177.058 126.467 174.664 127.174 171.519 127.664" stroke="#263238" stroke-linecap="round" stroke-linejoin="round"/>
<path d="M129.892 100.576C129.892 100.576 121.295 63.7089 143.075 59.425C164.855 55.1411 169.399 65.3388 168.115 72.2622C166.399 81.479 148.311 104.081 148.311 104.081L137.133 95.4557L129.906 100.576H129.892Z" fill="#4680E0" stroke="#263238" stroke-linecap="round" stroke-linejoin="round"/>
<path d="M101.246 214.395C101.246 214.395 115.339 198.11 147.201 185.807C147.201 185.807 138.95 183.282 137.119 179.85" stroke="#161616" stroke-linecap="round" stroke-linejoin="round"/>
<path d="M84.659 264.301L71.764 311.107" stroke="#161616" stroke-linecap="round" stroke-linejoin="round"/>
<path d="M184.299 129.352C184.299 129.352 190.097 139.102 213.824 138.194C213.824 138.194 207.305 130.765 197.612 128.14C187.905 125.501 184.299 129.352 184.299 129.352Z" fill="#92E3A9" stroke="#263238" stroke-linecap="round" stroke-linejoin="round"/>
<path d="M92.1305 133.275C92.1305 133.275 97.6404 124.736 102.703 123.02C107.766 121.303 122.579 121.159 124.858 121.101C127.137 121.044 167.913 131.4 187.025 137.761L185.366 105.855L211.069 107.875C211.069 107.875 210.031 146.833 206.036 157.132C202.04 167.431 196.314 164.935 186.549 160.724C148.138 144.179 125.637 132.64 123.546 133.261C121.454 133.881 92.1449 133.261 92.1449 133.261L92.1305 133.275Z" fill="white" stroke="#263238" stroke-linecap="round" stroke-linejoin="round"/>
<path d="M178.933 87.3063C178.255 90.0901 178.01 92.9172 178.299 95.4125C179.438 105.394 184.284 129.366 184.284 129.366C184.284 129.366 208.257 132.785 213.81 138.208C213.81 138.208 217.762 106.432 209.714 90.3641C201.68 74.296 193.343 72.4786 193.343 72.4786C188.078 71.1804 183.304 76.0845 180.577 82.3877" fill="#4680E0"/>
<path d="M178.933 87.3063C178.255 90.0901 178.01 92.9172 178.299 95.4125C179.438 105.394 184.284 129.366 184.284 129.366C184.284 129.366 208.257 132.785 213.81 138.208C213.81 138.208 217.762 106.432 209.714 90.3641C201.68 74.296 193.343 72.4786 193.343 72.4786C188.078 71.1804 183.304 76.0845 180.577 82.3877" stroke="#263238" stroke-linecap="round" stroke-linejoin="round"/>
<path d="M108.545 99.6387C108.545 99.6387 113.247 103.894 120.805 105.855" stroke="#263238" stroke-linecap="round" stroke-linejoin="round"/>
<path d="M184.299 99.6387C184.299 99.6387 193.011 115.995 203.886 119.616" stroke="#263238" stroke-linecap="round" stroke-linejoin="round"/>
<path d="M128.219 225.645C128.219 225.645 129.82 226.857 130.455 231.227" stroke="#161616" stroke-linecap="round" stroke-linejoin="round"/>
<path d="M122.291 231.227C122.291 231.227 126.704 231.501 129.344 235.295" stroke="#161616" stroke-linecap="round" stroke-linejoin="round"/>
<path d="M74.5912 214.395C74.5912 214.395 79.2068 216.731 78.2116 223.352" stroke="#161616" stroke-linecap="round" stroke-linejoin="round"/>
<path d="M69.7159 220.078C69.7159 220.078 76.0192 223.814 76.4663 227.174" stroke="#161616" stroke-linecap="round" stroke-linejoin="round"/>
<path d="M142.773 179.72C142.773 179.72 156.807 181.696 159.951 179.72" stroke="#14181A" stroke-linecap="round" stroke-linejoin="round"/>
<path d="M137.118 93.8692C137.118 93.8692 135.33 89.6141 135.647 83.1523C135.705 81.9839 135.82 80.7579 136.037 79.4742L133.599 75.6086L130.469 70.6324L134.089 56.1364C134.089 56.1364 157.139 60.579 158.898 67.012C160.644 73.4739 137.118 93.8692 137.118 93.8692Z" fill="white"/>
<path d="M137.118 93.8692C137.118 93.8692 135.33 89.6141 135.647 83.1523C135.705 81.9839 135.82 80.7579 136.037 79.4742L133.599 75.6086L130.469 70.6324L134.089 56.1364C134.089 56.1364 157.139 60.579 158.898 67.012C160.644 73.4739 137.118 93.8692 137.118 93.8692Z" stroke="#263238" stroke-linecap="round" stroke-linejoin="round"/>
<path d="M151.6 57.4201C158.74 38.6114 154.023 6.74915 119.392 12.8649C99.0107 16.4708 96.6452 41.0202 103.439 51.9102C110.247 62.8002 103.02 63.1608 113.218 71.2526C117.343 74.5268 120.69 80.0799 125.623 80.4261C131.479 80.8444 139.008 75.2768 144.619 69.2909" fill="white"/>
<path d="M151.6 57.4201C158.74 38.6114 154.023 6.74915 119.392 12.8649C99.0107 16.4708 96.6452 41.0202 103.439 51.9102C110.247 62.8002 103.02 63.1608 113.218 71.2526C117.343 74.5268 120.69 80.0799 125.623 80.4261C131.479 80.8444 139.008 75.2768 144.619 69.2909" stroke="#263238" stroke-linecap="round" stroke-linejoin="round"/>
<path d="M117.488 51.9102C117.488 51.9102 122.594 47.2801 128.652 49.1985" stroke="#263238" stroke-linecap="round" stroke-linejoin="round"/>
<path d="M107.925 51.9102C107.925 51.9102 106.194 48.2321 101.318 47.4388" stroke="#263238" stroke-linecap="round" stroke-linejoin="round"/>
<path d="M111.3 58.6028C111.3 58.6028 110.564 62.353 109.612 66.1321C108.675 69.7957 115.67 67.8485 115.353 67.2571" fill="white"/>
<path d="M111.3 58.6028C111.3 58.6028 110.564 62.353 109.612 66.1321C108.675 69.7957 115.67 67.8485 115.353 67.2571" stroke="#263238" stroke-linecap="round" stroke-linejoin="round"/>
<path d="M118.988 72.0603C118.988 72.0603 123.459 70.993 126.589 67.0841" stroke="#263238" stroke-linecap="round" stroke-linejoin="round"/>
<path d="M124.599 56.6701C124.887 57.723 124.454 58.7471 123.632 58.9779C122.81 59.1943 121.916 58.5308 121.627 57.4778C121.339 56.4249 121.771 55.4008 122.594 55.17C123.416 54.9537 124.31 55.6172 124.599 56.6701Z" fill="#263238"/>
<path d="M109.151 56.3383C109.439 57.3913 109.223 58.3576 108.675 58.5019C108.126 58.6461 107.449 57.9249 107.175 56.872C106.886 55.8191 107.102 54.8527 107.65 54.7084C108.199 54.5642 108.877 55.2854 109.151 56.3383Z" fill="#263238"/>
<path d="M130.253 32.5967C130.253 32.5967 124.887 46.6311 111.617 46.3137C111.617 46.3137 116.218 42.8088 117.488 39.4624C117.488 39.4624 107.276 49.5735 97.0634 44.4386C86.8513 39.3038 91.8131 15.4467 107.521 5.98469C123.228 -3.47735 139.181 -0.92433 144.604 8.09057C144.604 8.09057 155.567 7.0809 160.398 23.1923C164.711 37.5873 157.817 59.4683 151.037 59.7279C140.551 60.1174 138.445 48.737 138.445 48.737C138.445 48.737 132.157 43.1405 130.253 32.6111V32.5967Z" fill="#161616" stroke="#161616" stroke-linecap="round" stroke-linejoin="round"/>
<path d="M141.749 57.4922C141.749 57.4922 141.431 44.2512 148.932 45.8522C156.432 47.4533 151.009 62.7569 145.34 62.5983" fill="white"/>
<path d="M141.749 57.4922C141.749 57.4922 141.431 44.2512 148.932 45.8522C156.432 47.4533 151.009 62.7569 145.34 62.5983" stroke="#263238" stroke-linecap="round" stroke-linejoin="round"/>
<path d="M118.454 131.833H2.15455C0.856084 131.833 -0.196533 132.885 -0.196533 134.184V138.237C-0.196533 139.535 0.856084 140.588 2.15455 140.588H118.454C119.752 140.588 120.805 139.535 120.805 138.237V134.184C120.805 132.885 119.752 131.833 118.454 131.833Z" fill="#F7F6FF"/>
</g>
<defs>
<clipPath id="clip0_73_1123">
<rect width="253" height="362" fill="white"/>
</clipPath>
</defs>
</svg>
