<svg width="16" height="12" viewBox="0 0 16 12" fill="none" xmlns="http://www.w3.org/2000/svg">
<path d="M15.2916 1.0571L5.38936 10.9594C5.33188 11.0169 5.26362 11.0626 5.18849 11.0937C5.11336 11.1249 5.03282 11.1409 4.95149 11.1409C4.87016 11.1409 4.78962 11.1249 4.71449 11.0937C4.63936 11.0626 4.5711 11.0169 4.51362 10.9594L0.18137 6.62714C0.0652408 6.51101 0 6.35351 0 6.18927C0 6.02504 0.0652408 5.86754 0.18137 5.75141C0.2975 5.63528 0.455005 5.57004 0.619237 5.57004C0.783469 5.57004 0.940974 5.63528 1.0571 5.75141L4.95149 9.64656L14.4159 0.18137C14.532 0.0652405 14.6895 -1.22362e-09 14.8538 0C15.018 1.22362e-09 15.1755 0.0652405 15.2916 0.18137C15.4078 0.2975 15.473 0.455005 15.473 0.619237C15.473 0.783469 15.4078 0.940975 15.2916 1.0571Z" fill="#0048D0"/>
</svg>
