<svg width="28" height="28" viewBox="0 0 28 28" fill="none" xmlns="http://www.w3.org/2000/svg">
<g clip-path="url(#clip0_188_1475)">
<path d="M26.1991 7.46202C26.061 6.91038 25.7798 6.40496 25.3839 5.99679C24.9879 5.58861 24.4913 5.29215 23.9441 5.13735C21.9449 4.64917 13.9481 4.64917 13.9481 4.64917C13.9481 4.64917 5.95122 4.64917 3.95201 5.18384C3.40484 5.33865 2.90821 5.63511 2.51228 6.04328C2.11635 6.45145 1.83515 6.95688 1.69708 7.50851C1.3312 9.53743 1.15222 11.5956 1.16241 13.6573C1.14937 15.7344 1.32835 17.8083 1.69708 19.8525C1.8493 20.387 2.1368 20.8732 2.5318 21.2641C2.92681 21.6551 3.41596 21.9375 3.95201 22.0842C5.95122 22.6188 13.9481 22.6188 13.9481 22.6188C13.9481 22.6188 21.9449 22.6188 23.9441 22.0842C24.4913 21.9294 24.9879 21.6329 25.3839 21.2247C25.7798 20.8166 26.061 20.3111 26.1991 19.7595C26.5621 17.7459 26.7411 15.7033 26.7337 13.6573C26.7468 11.5801 26.5678 9.50621 26.1991 7.46202Z" stroke="#6691E3" stroke-width="2.32467" stroke-linecap="round" stroke-linejoin="round"/>
<path d="M11.3327 17.459L18.0161 13.6581L11.3327 9.8573V17.459Z" fill="#6691E3" stroke="#6691E3" stroke-width="2.32467" stroke-linecap="round" stroke-linejoin="round"/>
</g>
<defs>
<clipPath id="clip0_188_1475">
<rect width="27.896" height="27.896" fill="white"/>
</clipPath>
</defs>
</svg>
