<svg width="17" height="19" viewBox="0 0 17 19" fill="none" xmlns="http://www.w3.org/2000/svg">
<path d="M1 4.35571H2.67778H16.1" stroke="#FF5959" stroke-width="1.5" stroke-linecap="round" stroke-linejoin="round"/>
<path d="M14.4222 4.35556V16.1C14.4222 16.545 14.2454 16.9717 13.9308 17.2864C13.6161 17.601 13.1894 17.7778 12.7444 17.7778H4.35551C3.91054 17.7778 3.48379 17.601 3.16914 17.2864C2.8545 16.9717 2.67773 16.545 2.67773 16.1V4.35556M5.1944 4.35556V2.67778C5.1944 2.2328 5.37117 1.80605 5.68581 1.49141C6.00046 1.17677 6.4272 1 6.87218 1H10.2277C10.6727 1 11.0995 1.17677 11.4141 1.49141C11.7287 1.80605 11.9055 2.2328 11.9055 2.67778V4.35556" stroke="#FF5959" stroke-width="1.5" stroke-linecap="round" stroke-linejoin="round"/>
<path d="M6.87207 8.55005V13.5834" stroke="#FF5959" stroke-width="1.5" stroke-linecap="round" stroke-linejoin="round"/>
<path d="M10.228 8.55005V13.5834" stroke="#FF5959" stroke-width="1.5" stroke-linecap="round" stroke-linejoin="round"/>
</svg>
