<svg width="31" height="38" viewBox="0 0 31 38" fill="none" xmlns="http://www.w3.org/2000/svg">
<path d="M18.75 1H4.55C3.60848 1 2.70552 1.37402 2.03977 2.03977C1.37402 2.70552 1 3.60848 1 4.55V32.95C1 33.8915 1.37402 34.7945 2.03977 35.4602C2.70552 36.126 3.60848 36.5 4.55 36.5H25.85C26.7915 36.5 27.6945 36.126 28.3602 35.4602C29.026 34.7945 29.4 33.8915 29.4 32.95V11.65L18.75 1Z" fill="#FFC0F3" stroke="#DF5BC9" stroke-width="1.5" stroke-linecap="round" stroke-linejoin="round"/>
<path d="M18.75 1V11.65H29.4" fill="#FFC0F3"/>
<path d="M18.75 1V11.65H29.4" stroke="#DF5BC9" stroke-width="1.5" stroke-linecap="round" stroke-linejoin="round"/>
<path d="M22.3 20.5251H8.10001" stroke="#DF5BC9" stroke-width="1.5" stroke-linecap="round" stroke-linejoin="round"/>
<path d="M22.3 27.625H8.10001" stroke="#DF5BC9" stroke-width="1.5" stroke-linecap="round" stroke-linejoin="round"/>
<path d="M11.65 13.425H9.87501H8.10001" stroke="#DF5BC9" stroke-width="1.5" stroke-linecap="round" stroke-linejoin="round"/>
</svg>
