<svg width="10" height="10" viewBox="0 0 10 10" fill="none" xmlns="http://www.w3.org/2000/svg">
<path d="M7.4351 0.410629C7.56529 0.280444 7.71984 0.177175 7.88994 0.106719C8.06003 0.0362631 8.24234 1.37173e-09 8.42645 0C8.61056 -1.37173e-09 8.79287 0.0362631 8.96296 0.106719C9.13306 0.177175 9.28761 0.280444 9.4178 0.410629C9.54798 0.540815 9.65125 0.695368 9.72171 0.865463C9.79216 1.03556 9.82843 1.21787 9.82843 1.40198C9.82843 1.58609 9.79216 1.76839 9.72171 1.93849C9.65125 2.10859 9.54798 2.26314 9.4178 2.39332L2.7262 9.08492L0 9.82843L0.74351 7.10222L7.4351 0.410629Z" fill="#0048D0"/>
</svg>
