<svg width="22" height="18" viewBox="0 0 22 18" fill="none" xmlns="http://www.w3.org/2000/svg">
<path d="M3 1H19C20.1 1 21 1.9 21 3V15C21 16.1 20.1 17 19 17H3C1.9 17 1 16.1 1 15V3C1 1.9 1.9 1 3 1Z" fill="#053682" stroke="#152848" stroke-width="1.5" stroke-linecap="round" stroke-linejoin="round"/>
<path d="M1.5 1.5L1 2.5L2 3.5L7 7L11 9.5L18.5 5L21 3L20.5 2L19.5 1H16.5H8H4L1.5 1.5Z" fill="white"/>
<path d="M21 3L11 10L1 3" fill="white"/>
<path d="M21 3L11 10L1 3C1 2.33333 1.5 1 3.5 1C5.5 1 14.3333 1 18.5 1C19.3333 1 21 1.4 21 3Z" stroke="#152848" stroke-width="1.5" stroke-linecap="round" stroke-linejoin="round"/>
</svg>
