<svg width="117" height="113" viewBox="0 0 117 113" fill="none" xmlns="http://www.w3.org/2000/svg">
<path fill-rule="evenodd" clip-rule="evenodd" d="M57.6943 9.80762H61.1211V47.5789H57.6943V9.80762Z" fill="#D09080"/>
<path fill-rule="evenodd" clip-rule="evenodd" d="M72.5599 58.0938C75.5855 63.3357 78.6114 68.5774 81.6372 73.8193L103.87 112.324H14.9465L37.1789 73.8193C40.2054 68.5789 43.232 63.3372 46.2585 58.0951L72.5599 58.0938Z" fill="#477B9E"/>
<path fill-rule="evenodd" clip-rule="evenodd" d="M46.2593 58.0971L57.2159 65.8441C58.7474 66.8205 60.2086 66.8268 61.6062 65.8441L72.5564 58.0971C68.6896 51.3966 64.8225 44.6964 60.9553 38.0022C60.081 36.4964 58.6963 36.5472 57.8541 38.0085C53.987 44.7027 50.1264 51.4031 46.2593 58.0971Z" fill="#E1F1FF"/>
<path fill-rule="evenodd" clip-rule="evenodd" d="M115.758 109.039C116.709 110.685 115.758 112.325 113.862 112.325H73.2136C71.3311 112.325 70.3802 110.705 71.2992 109.071L81.4773 91.4392L84.8444 85.6055L102.228 85.6077C106.738 93.4194 111.248 101.23 115.758 109.039Z" fill="#365E7D"/>
<path fill-rule="evenodd" clip-rule="evenodd" d="M24.837 92.5665C28.0089 98.0603 31.1817 103.553 34.3517 109.049C35.2897 110.689 34.3388 112.323 32.4501 112.323H4.66621C2.76462 112.323 1.82002 110.683 2.76462 109.036C5.93499 103.544 9.10558 98.0547 12.2759 92.5645L24.837 92.5665Z" fill="#365E7D"/>
<path fill-rule="evenodd" clip-rule="evenodd" d="M107.915 26.4891H77.9165C76.9019 26.3486 76.1043 25.5447 75.9575 24.5301V8.83203H107.915C108.496 8.8703 108.649 9.17016 108.374 9.74467L102.421 17.6574L108.374 25.5702C108.598 25.8765 108.432 26.4828 107.915 26.4891Z" fill="#0C51D3"/>
<path fill-rule="evenodd" clip-rule="evenodd" d="M75.9575 21.7224V8.83203H96.5754V17.8044C96.2946 19.8336 94.6866 21.4419 92.6574 21.7226L75.9575 21.7224Z" fill="#0544BC"/>
<path fill-rule="evenodd" clip-rule="evenodd" d="M90.558 17.6573H59.6536C58.6389 17.517 57.8411 16.7129 57.6943 15.7046V1.95922C57.8411 0.944604 58.6387 0.140475 59.6536 0H90.558C91.5661 0.140475 92.3702 0.944604 92.5107 1.95922V15.7046C92.3705 16.7127 91.5663 17.5168 90.558 17.6573Z" fill="#2669E8"/>
<path fill-rule="evenodd" clip-rule="evenodd" d="M84.8467 85.6056L91.917 90.6022C93.053 91.3424 94.1376 91.3678 95.1588 90.6022L102.229 85.6056C99.6321 81.1131 97.0412 76.6272 94.4505 72.1347C93.9334 71.2414 93.1167 71.2731 92.6189 72.1347C90.028 76.6269 87.4374 81.1131 84.8467 85.6056Z" fill="#E1F1FF"/>
<path fill-rule="evenodd" clip-rule="evenodd" d="M12.2791 92.5684L17.4095 96.1994C18.1754 96.7356 18.941 96.7356 19.7004 96.1994L24.8374 92.5684C23.0443 89.4671 21.2575 86.3722 19.4707 83.2772C18.9539 82.384 18.1369 82.4157 17.6392 83.2772C15.8526 86.3722 14.0658 89.4735 12.2791 92.5684Z" fill="#E1F1FF"/>
<path fill-rule="evenodd" clip-rule="evenodd" d="M35.9789 32.5263H35.9852C40.2924 32.5263 43.8214 36.0553 43.8214 40.3628C43.8214 44.6702 40.2924 48.1992 35.9852 48.1992H8.70534C4.39812 48.199 0.869141 44.67 0.869141 40.3625C0.869141 36.0551 4.39812 32.5261 8.70534 32.5261C8.70534 26.9999 13.185 22.5137 18.7176 22.5137C22.1954 22.5137 25.2584 24.2878 27.0515 26.9807C27.9704 26.3619 29.0807 25.9981 30.2741 25.9981C33.4584 25.9981 36.03 28.5762 36.03 31.7539C36.03 32.0158 36.0171 32.271 35.9789 32.5263Z" fill="#E1F1FF"/>
<path fill-rule="evenodd" clip-rule="evenodd" d="M39.5909 36.1308C39.5909 40.4446 36.0687 43.967 31.7547 43.967H4.48116C3.41545 43.967 2.40083 43.7565 1.47559 43.3673C2.65612 46.1941 5.45751 48.1979 8.70554 48.1979H35.9856C40.2928 48.1979 43.8218 44.6689 43.8218 40.3615C43.8218 37.1134 41.818 34.3121 38.9912 33.125C39.3804 34.0568 39.5909 35.0714 39.5909 36.1308Z" fill="#CBE2FF"/>
<path fill-rule="evenodd" clip-rule="evenodd" d="M76.0087 73.8194L83.8323 87.3669L84.8469 85.6058L86.6463 82.4917L81.637 73.8194L72.5565 58.0957L68.5618 60.9228L76.0087 73.8194Z" fill="#365E7D"/>
<path fill-rule="evenodd" clip-rule="evenodd" d="M60.8598 47.5793L68.5618 60.9229L72.5566 58.0958L61.1214 38.2816L60.9618 38.0009C60.9555 38.0009 60.9555 38.0009 60.9555 38.0009C60.5214 37.2544 59.9663 36.8906 59.4111 36.8906C58.8432 36.8906 58.2815 37.2736 57.854 38.0072L57.6944 38.2816L56.5967 40.1898L57.6944 42.1042L59.4111 45.0652L60.8598 47.5793Z" fill="#CBE2FF"/>
<path fill-rule="evenodd" clip-rule="evenodd" d="M98.2283 88.4325C102.198 95.2987 106.16 102.172 110.129 109.038C111.08 110.684 110.129 112.324 108.234 112.324H113.862C115.758 112.324 116.709 110.684 115.758 109.038C111.246 101.227 106.735 93.4162 102.23 85.6055L98.2283 88.4325Z" fill="#294B64"/>
<path fill-rule="evenodd" clip-rule="evenodd" d="M90.7239 75.4273C93.2254 79.7604 95.7267 84.0933 98.2283 88.4327L102.223 85.6056C99.6321 81.1131 97.0412 76.6272 94.4507 72.1347C93.9336 71.2414 93.1169 71.2731 92.6192 72.1347L90.7239 75.4273Z" fill="#CBE2FF"/>
<path fill-rule="evenodd" clip-rule="evenodd" d="M22.7826 98.7563L28.7237 109.049C29.6618 110.689 28.7109 112.323 26.8221 112.323H32.4504C34.3394 112.323 35.29 110.689 34.352 109.049L25.5968 93.8811L24.8375 92.5664L20.8364 95.3935L22.7826 98.7563Z" fill="#294B64"/>
<path fill-rule="evenodd" clip-rule="evenodd" d="M15.7441 86.5638L20.8366 95.3955L24.8376 92.5684L19.471 83.2772C18.9541 82.384 18.1372 82.4157 17.6394 83.2772L15.7441 86.5638Z" fill="#CBE2FF"/>
</svg>
