<svg width="15" height="16" viewBox="0 0 15 16" fill="none" xmlns="http://www.w3.org/2000/svg">
<circle opacity="0.2" cx="7.60046" cy="8.12256" r="7.20007" fill="#FF9500"/>
<path d="M7.8125 5.06506H5.625C5.45924 5.06506 5.30027 5.12828 5.18306 5.2408C5.06585 5.35332 5 5.50593 5 5.66506V10.4651C5 10.6242 5.06585 10.7768 5.18306 10.8893C5.30027 11.0018 5.45924 11.0651 5.625 11.0651H9.375C9.54076 11.0651 9.69973 11.0018 9.81694 10.8893C9.93415 10.7768 10 10.6242 10 10.4651V7.16506V5.06506H7.8125Z" stroke="#FF9500" stroke-width="0.6" stroke-linecap="round" stroke-linejoin="round"/>
<path d="M8.35817 9.01951H6.8427L6.56353 9.7922H6.08496L7.34121 6.33752H7.86464L9.1159 9.7922H8.63733L8.35817 9.01951ZM8.22855 8.65061L7.60043 6.89586L6.97231 8.65061H8.22855Z" fill="#FF9500"/>
</svg>
