<svg width="21" height="25" viewBox="0 0 21 25" fill="none" xmlns="http://www.w3.org/2000/svg">
<path d="M13.0303 1.71967C12.8897 1.57902 12.6989 1.5 12.5 1.5H4.1C3.34413 1.5 2.61922 1.80027 2.08475 2.33475C1.55027 2.86922 1.25 3.59413 1.25 4.35V21.15C1.25 21.9059 1.55027 22.6308 2.08475 23.1653C2.61922 23.6997 3.34413 24 4.1 24H16.7C17.4559 24 18.1808 23.6997 18.7153 23.1653C19.2497 22.6308 19.55 21.9059 19.55 21.15V8.55C19.55 8.35109 19.471 8.16032 19.3303 8.01967L13.0303 1.71967Z" fill="#AFA8FD" stroke="#152848" stroke-width="1.5" stroke-linecap="round" stroke-linejoin="round"/>
<path d="M12.5 2.25V8.55H18.8" fill="white"/>
<path d="M12.5 2.25V8.55H18.8" stroke="#152848" stroke-width="1.5" stroke-linecap="round" stroke-linejoin="round"/>
<path d="M14.6 13.8003H6.20001" stroke="white" stroke-width="1.5" stroke-linecap="round" stroke-linejoin="round"/>
<path d="M14.6 18H6.20001" stroke="white" stroke-width="1.5" stroke-linecap="round" stroke-linejoin="round"/>
<path d="M8.30001 9.6001H7.25001H6.20001" fill="#AFA8FD"/>
<path d="M8.30001 9.6001H7.25001H6.20001" stroke="white" stroke-width="1.5" stroke-linecap="round" stroke-linejoin="round"/>
</svg>
