<svg width="29" height="28" viewBox="0 0 29 28" fill="none" xmlns="http://www.w3.org/2000/svg">
<circle cx="14.1328" cy="14" r="13.5" stroke="#666666"/>
<path d="M12.8177 16.5884V16.3926L12.6848 16.2489L7.87764 11.0518C7.87757 11.0518 7.8775 11.0517 7.87744 11.0516C7.75411 10.9179 7.67374 10.7529 7.64482 10.577C7.61589 10.401 7.63947 10.2203 7.71315 10.0566C7.78687 9.89283 7.90798 9.75225 8.06301 9.65294C8.21808 9.55361 8.39997 9.50018 8.58656 9.5H19.6791C19.8657 9.50018 20.0475 9.55361 20.2026 9.65294C20.3576 9.75225 20.4788 9.89283 20.5525 10.0566C20.6262 10.2203 20.6497 10.401 20.6208 10.577C20.5919 10.753 20.5114 10.9181 20.388 11.0518L15.5809 16.2489L15.4479 16.3926V16.5884V19.4507C15.4479 19.4507 15.4479 19.4508 15.4479 19.451C15.4478 19.4512 15.4477 19.4515 15.4476 19.4519C15.4472 19.4527 15.4462 19.4541 15.4443 19.4557C15.4442 19.4557 15.4442 19.4557 15.4442 19.4557L13.8237 20.7301L12.8513 21.4948L12.8508 21.4952C12.8476 21.4978 12.8424 21.5 12.8359 21.5L12.8333 21.5C12.8314 21.5 12.8298 21.4996 12.8288 21.4991L12.8252 21.4974C12.8214 21.4955 12.8193 21.4933 12.8185 21.4919C12.8177 21.4908 12.8177 21.4901 12.8177 21.49C12.8177 21.49 12.8177 21.49 12.8177 21.49V16.5884Z" stroke="#666666"/>
</svg>
