<svg width="28" height="29" viewBox="0 0 28 29" fill="none" xmlns="http://www.w3.org/2000/svg">
<g clip-path="url(#clip0_84_1854)">
<path fill-rule="evenodd" clip-rule="evenodd" d="M28 14.6032C28 13.5873 27.9048 12.6191 27.746 11.6826H14.2857V17.2064H21.9683C21.6349 18.9841 20.6349 20.508 19.1111 21.5238V25.1111H23.7302C26.4286 22.6191 27.9841 18.9683 27.9841 14.6191L28 14.6032Z" fill="#3E82F1"/>
<path fill-rule="evenodd" clip-rule="evenodd" d="M14.2857 28.5714C18.1429 28.5714 21.381 27.2857 23.746 25.1111L19.127 21.5238C17.8413 22.381 16.2064 22.8889 14.2857 22.8889C10.5714 22.8889 7.4127 20.381 6.28572 17H1.52381V20.6984C3.87302 25.3651 8.69841 28.5714 14.2857 28.5714Z" fill="#32A753"/>
<path fill-rule="evenodd" clip-rule="evenodd" d="M6.28571 17C6 16.1429 5.84127 15.2222 5.84127 14.2857C5.84127 13.3492 6 12.4286 6.28571 11.5714V7.87302H1.52381C0.555556 9.79365 0 11.9841 0 14.2857C0 16.5873 0.555556 18.7778 1.52381 20.6984L6.30159 17H6.28571Z" fill="#F9BB00"/>
<path fill-rule="evenodd" clip-rule="evenodd" d="M14.2857 5.68253C16.381 5.68253 18.2698 6.39682 19.746 7.82539L23.8413 3.73015C21.3651 1.42857 18.127 0.0158668 14.2857 0.0158668C8.69841 -6.23986e-06 3.87302 3.20634 1.52381 7.87301L6.30159 11.5714C7.42857 8.19047 10.5714 5.68253 14.3016 5.68253H14.2857Z" fill="#E74235"/>
</g>
<defs>
<clipPath id="clip0_84_1854">
<rect width="28" height="28.5714" fill="white"/>
</clipPath>
</defs>
</svg>
