<svg width="63" height="75" viewBox="0 0 63 75" fill="none" xmlns="http://www.w3.org/2000/svg">
<g clip-path="url(#clip0_2199_10458)">
<path d="M62.8992 9.375V85.747L15.1387 89.903L9.28857 90.7774V17.3882C9.28857 15.1753 9.94265 13.1711 11.0014 11.7209C12.0602 10.2707 13.5232 9.375 15.1387 9.375L62.8992 9.375Z" fill="#2669E8"/>
<path d="M14.7405 9.375V89.903L9.28857 90.7774V17.3882C9.28857 15.1753 9.89812 13.1711 10.8848 11.7209C11.8715 10.2707 13.2349 9.375 14.7405 9.375Z" fill="#C32430"/>
<path d="M31.3558 25.2052L26.0913 19.7576L20.8269 25.2052V9.375H31.3558V25.2052Z" fill="#F4DD45"/>
<path d="M48.7894 37.7285H26.1243C23.8519 37.7285 22.0098 40.0794 22.0098 42.9795V59.0019C22.0098 61.902 23.8519 64.2529 26.1243 64.2529H48.7894C51.0619 64.2529 52.904 61.902 52.904 59.0019V42.9795C52.904 40.0794 51.0619 37.7285 48.7894 37.7285Z" fill="#DFEAEF"/>
<path d="M50.9036 65.1681H27.7166C24.8402 65.1681 22.5 62.3176 22.5 58.8138V43.1686C22.5 39.665 24.8402 36.8145 27.7166 36.8145H50.9036C53.78 36.8145 56.1202 39.665 56.1202 43.1686V58.8138C56.1202 62.3176 53.78 65.1681 50.9036 65.1681ZM27.7166 39.2682C25.9509 39.2682 24.5144 41.018 24.5144 43.1686V58.8138C24.5144 60.9646 25.9509 62.7144 27.7166 62.7144H50.9036C52.6693 62.7144 54.1058 60.9646 54.1058 58.8138V43.1686C54.1058 41.0178 52.6693 39.2682 50.9036 39.2682H27.7166Z" fill="#78A5FB"/>
<path d="M47.3552 48.7043H28.4669C27.9116 48.7043 27.4614 48.2948 27.4614 47.7896C27.4614 47.2845 27.9116 46.875 28.4669 46.875H47.355C47.9103 46.875 48.3605 47.2845 48.3605 47.7896C48.3606 48.2948 47.9104 48.7043 47.3552 48.7043Z" fill="#665E66"/>
<path d="M47.3552 55.1066H28.4669C27.9116 55.1066 27.4614 54.6971 27.4614 54.192C27.4614 53.6868 27.9116 53.2773 28.4669 53.2773H47.355C47.9103 53.2773 48.3605 53.6868 48.3605 54.192C48.3605 54.6971 47.9104 55.1066 47.3552 55.1066Z" fill="#665E66"/>
</g>
<g clip-path="url(#clip1_2199_10458)">
<path d="M53.5242 0V76.372L5.76374 80.528L-0.0864258 81.4024V8.01318C-0.0864258 5.80031 0.567645 3.79615 1.6264 2.34594C2.68515 0.895728 4.1482 0 5.76374 0L53.5242 0Z" fill="#DA4A54"/>
<path d="M5.3655 0V80.528L-0.0864258 81.4024V8.01318C-0.0864258 5.80031 0.52312 3.79615 1.5098 2.34594C2.49648 0.895728 3.85993 0 5.3655 0Z" fill="#C32430"/>
<path d="M21.9808 15.8302L16.7163 10.3826L11.4519 15.8302V0H21.9808V15.8302Z" fill="#F4DD45"/>
<path d="M39.4144 28.3535H16.7493C14.4769 28.3535 12.6348 30.7044 12.6348 33.6045V49.6269C12.6348 52.527 14.4769 54.8779 16.7493 54.8779H39.4144C41.6869 54.8779 43.529 52.527 43.529 49.6269V33.6045C43.529 30.7044 41.6869 28.3535 39.4144 28.3535Z" fill="#DFEAEF"/>
<path d="M40.1297 55.7931H16.9427C14.0662 55.7931 11.7261 52.9426 11.7261 49.4388V33.7936C11.7261 30.29 14.0662 27.4395 16.9427 27.4395H40.1297C43.0061 27.4395 45.3463 30.29 45.3463 33.7936V49.4388C45.3463 52.9426 43.0061 55.7931 40.1297 55.7931ZM16.9427 29.8932C15.177 29.8932 13.7405 31.643 13.7405 33.7936V49.4388C13.7405 51.5896 15.177 53.3394 16.9427 53.3394H40.1297C41.8953 53.3394 43.3319 51.5896 43.3319 49.4388V33.7936C43.3319 31.6428 41.8953 29.8932 40.1297 29.8932H16.9427Z" fill="#C32430"/>
<path d="M37.9802 39.3293H19.0919C18.5366 39.3293 18.0864 38.9198 18.0864 38.4146C18.0864 37.9095 18.5366 37.5 19.0919 37.5H37.98C38.5353 37.5 38.9855 37.9095 38.9855 38.4146C38.9856 38.9198 38.5354 39.3293 37.9802 39.3293Z" fill="#665E66"/>
<path d="M37.9802 45.7316H19.0919C18.5366 45.7316 18.0864 45.3221 18.0864 44.817C18.0864 44.3118 18.5366 43.9023 19.0919 43.9023H37.98C38.5353 43.9023 38.9855 44.3118 38.9855 44.817C38.9855 45.3221 38.5354 45.7316 37.9802 45.7316Z" fill="#665E66"/>
</g>
<defs>
<clipPath id="clip0_2199_10458">
<rect width="53.4375" height="65.625" fill="white" transform="translate(9.375 9.375)"/>
</clipPath>
<clipPath id="clip1_2199_10458">
<rect width="53.4375" height="75" fill="white"/>
</clipPath>
</defs>
</svg>
