<svg width="13" height="13" viewBox="0 0 13 13" fill="none" xmlns="http://www.w3.org/2000/svg">
<path d="M1.50011 13C1.07265 13 0.715774 12.8887 0.429464 12.666C0.143155 12.4433 0 12.1657 0 11.8333V1.16675C0 0.834287 0.143155 0.556713 0.429464 0.334028C0.715774 0.111343 1.07265 0 1.50011 0H11.4999C11.9273 0 12.2842 0.111343 12.5705 0.334028C12.8568 0.556713 13 0.834287 13 1.16675V11.8333C13 12.1657 12.8568 12.4433 12.5705 12.666C12.2842 12.8887 11.9273 13 11.4999 13H1.50011ZM1.50011 12.2778H11.4999C11.6429 12.2778 11.7739 12.2315 11.8929 12.1389C12.0119 12.0464 12.0714 11.9445 12.0714 11.8333V1.16675C12.0714 1.05553 12.0119 0.953634 11.8929 0.86107C11.7739 0.768505 11.6429 0.722222 11.4999 0.722222H10.2143V5.13897L8.35714 4.27772L6.5 5.13897V0.722222H1.50011C1.35711 0.722222 1.2261 0.768505 1.10709 0.86107C0.988077 0.953634 0.928571 1.05553 0.928571 1.16675V11.8333C0.928571 11.9445 0.988077 12.0464 1.10709 12.1389C1.2261 12.2315 1.35711 12.2778 1.50011 12.2778Z" fill="#989898"/>
</svg>
