<svg width="43" height="44" viewBox="0 0 43 44" fill="none" xmlns="http://www.w3.org/2000/svg">
<circle opacity="0.5" cx="21.5" cy="21.7168" r="21.5" fill="white"/>
<path d="M30.9801 17.8674C30.9752 17.7636 30.9528 17.6598 30.9204 17.5662C30.9055 17.5231 30.8931 17.4852 30.8732 17.4472C30.8334 17.3586 30.7762 17.2826 30.7115 17.2067C30.6891 17.1763 30.6693 17.1484 30.6419 17.1206C30.6319 17.1105 30.627 17.1029 30.6195 17.0927C30.1395 16.6573 29.8884 16.232 29.8685 15.8295C29.8461 15.351 30.1246 14.7788 30.7016 14.1333C31 13.7965 31.0796 13.3155 30.8981 12.8978C30.7215 12.4826 30.3161 12.2168 29.8685 12.2168H16.3722C14.512 12.2168 13 13.7611 13 15.6523V28.7813C13 30.6725 14.517 32.2168 16.3772 32.2168H29.8734C30.4976 32.2168 31 31.7054 31 31.0725V17.9434C30.995 17.9155 30.9851 17.8978 30.9801 17.8674ZM27.777 16.7991H16.3772C16.0663 16.7991 15.7828 16.67 15.5789 16.4624C15.375 16.2548 15.2506 15.9687 15.2506 15.6523C15.2506 15.0244 15.7579 14.5079 16.3772 14.5079H27.8516C27.6801 14.9915 27.6054 15.4674 27.6278 15.9459C27.6427 16.2345 27.6925 16.5206 27.777 16.7991Z" fill="#2669E8"/>
</svg>
