<svg width="29" height="29" viewBox="0 0 29 29" fill="none" xmlns="http://www.w3.org/2000/svg">
<circle cx="14.1514" cy="14.5312" r="13.5" stroke="#666666"/>
<path d="M16.4267 7.53134C16.2753 7.53375 16.1308 7.59499 16.0237 7.70209L8.60498 15.1208C8.50444 15.2221 8.44452 15.3567 8.43657 15.4991C8.42862 15.6416 8.4732 15.782 8.56185 15.8938L7.32214 17.1335C7.21283 17.2428 7.1514 17.391 7.15137 17.5456V19.1939C7.15138 19.3485 7.21279 19.4967 7.3221 19.606C7.4314 19.7153 7.57964 19.7767 7.73421 19.7768H9.38261C9.53718 19.7767 9.6854 19.7153 9.79468 19.606L11.031 18.3697L11.0787 18.4175C11.188 18.5264 11.336 18.5876 11.4903 18.5876C11.6445 18.5876 11.7925 18.5264 11.9018 18.4175L19.3205 10.9999C19.4298 10.8906 19.4912 10.7424 19.4912 10.5878C19.4912 10.4333 19.4298 10.2851 19.3205 10.1757L16.8491 7.70207C16.794 7.64686 16.7282 7.60329 16.6559 7.57396C16.5835 7.54463 16.506 7.53013 16.428 7.53132L16.4267 7.53134ZM16.4372 8.93836L18.0855 10.5879L11.4909 17.1813L11.4717 17.1631C11.4625 17.1529 11.453 17.143 11.4431 17.1335L9.84259 15.5329L16.4372 8.93836Z" fill="#666666"/>
<path d="M14.7703 17.4395C14.6158 17.4395 14.4675 17.5009 14.3582 17.6102L11.444 20.5244C11.3626 20.606 11.3071 20.7098 11.2846 20.8228C11.2622 20.9359 11.2737 21.053 11.3178 21.1595C11.3619 21.266 11.4366 21.357 11.5324 21.4211C11.6282 21.4851 11.7408 21.5193 11.8561 21.5194H20.5567C20.7113 21.5193 20.8595 21.4579 20.9688 21.3486C21.0781 21.2393 21.1395 21.0911 21.1395 20.9365V18.0223C21.1395 17.8677 21.0781 17.7195 20.9688 17.6102C20.8595 17.5009 20.7113 17.4395 20.5567 17.4395H14.7703Z" fill="#666666"/>
</svg>
