<svg width="23" height="22" viewBox="0 0 23 22" fill="none" xmlns="http://www.w3.org/2000/svg">
<path fill-rule="evenodd" clip-rule="evenodd" d="M10.9398 1.30475C11.2575 1.05759 11.7025 1.05759 12.0203 1.30475L19.9403 7.46475C20.1546 7.63148 20.28 7.88782 20.28 8.15938V17.8394C20.28 18.5396 20.0019 19.2111 19.5068 19.7061C19.0117 20.2012 18.3402 20.4794 17.64 20.4794H5.32002C4.61985 20.4794 3.94836 20.2012 3.45326 19.7061C2.95817 19.211 2.68002 18.5396 2.68002 17.8394V8.15938C2.68002 7.88782 2.8054 7.63148 3.01976 7.46475L10.9398 1.30475ZM4.44002 8.58978V17.8394C4.44002 18.0728 4.53274 18.2966 4.69777 18.4616C4.8628 18.6267 5.08663 18.7194 5.32002 18.7194H17.64C17.8734 18.7194 18.0972 18.6267 18.2623 18.4616C18.4273 18.2966 18.52 18.0728 18.52 17.8394V8.58978L11.48 3.11422L4.44002 8.58978Z" fill="#000000"/>
<path fill-rule="evenodd" clip-rule="evenodd" d="M12.9598 11.6115C15.2339 10.3886 17.8897 10.4378 19.6291 10.8243L19.1709 12.886C17.7423 12.5685 15.6461 12.5649 13.9602 13.4716C12.3745 14.3243 10.952 16.0882 10.952 19.7751H8.84C8.84 15.4365 10.5855 12.8884 12.9598 11.6115Z" fill="#000000"/>
</svg>
