<svg width="16" height="16" viewBox="0 0 16 16" fill="none" xmlns="http://www.w3.org/2000/svg">
<circle opacity="0.2" cx="8.00012" cy="8.18018" r="7.20007" fill="#FF9500"/>
<path d="M12.2766 8.69153C12.108 8.69153 11.9714 8.55494 11.9714 8.3863C11.9714 6.30731 10.2862 4.62168 8.20719 4.62168C7.2087 4.62168 6.25105 5.01829 5.54502 5.72432C5.41873 5.85061 5.3016 5.98568 5.19419 6.12837C5.09309 6.26324 4.90175 6.29052 4.76687 6.18942C4.632 6.08831 4.60472 5.89697 4.70583 5.7621C4.83078 5.59708 4.9668 5.44065 5.11274 5.29414C6.82087 3.58524 9.59102 3.58467 11.2999 5.29281C12.1206 6.11311 12.5817 7.22586 12.5819 8.3863C12.5819 8.55494 12.4453 8.69153 12.2766 8.69153Z" fill="#FF9500"/>
<path d="M8.20667 12.7612C5.79098 12.7615 3.83217 10.8035 3.83179 8.38781C3.83179 8.38724 3.83179 8.38666 3.83179 8.38609C3.83179 8.21764 3.96838 8.08105 4.13702 8.08105C4.30566 8.08105 4.44224 8.21764 4.44224 8.38628C4.44224 10.4653 6.12749 12.1509 8.20648 12.1509C9.20496 12.1509 10.1626 11.7543 10.8686 11.0483C10.9947 10.9222 11.1119 10.7871 11.2191 10.6446C11.3273 10.5149 11.5199 10.4975 11.6497 10.6057C11.7698 10.706 11.7948 10.881 11.7075 11.0109C11.5827 11.1761 11.4467 11.3327 11.3005 11.4792C10.4818 12.3024 9.36788 12.764 8.20667 12.7612Z" fill="#FF9500"/>
<path d="M11.6601 12.1445C11.4915 12.1445 11.3549 12.008 11.3549 11.8393V10.9936H10.5088C10.3402 10.9936 10.2036 10.857 10.2036 10.6884C10.2036 10.5198 10.3402 10.3832 10.5088 10.3832H11.6601C11.8288 10.3832 11.9654 10.5198 11.9654 10.6884V11.8393C11.9654 12.008 11.8288 12.1445 11.6601 12.1445Z" fill="#FF9500"/>
<path d="M5.90462 6.38905H4.75372C4.58508 6.38905 4.44849 6.25246 4.44849 6.08382V4.93291C4.44849 4.76428 4.58508 4.62769 4.75372 4.62769C4.92235 4.62769 5.05894 4.76428 5.05894 4.93291V5.77859H5.90462C6.07326 5.77859 6.20985 5.91518 6.20985 6.08382C6.20985 6.25246 6.07326 6.38905 5.90462 6.38905Z" fill="#FF9500"/>
<path d="M9.77131 8.23658L10.2166 7.49431L8.04867 6.1925L7.60151 6.93478C7.44508 7.26691 7.45309 7.65322 7.62326 7.97848C7.63413 8.01167 7.6162 8.04734 7.583 8.05841C7.57995 8.05936 7.57671 8.06012 7.57366 8.0607C7.20643 8.06356 6.8619 8.2383 6.64252 8.53285L6.19727 9.27551L8.36668 10.5773L8.81231 9.83503C8.96874 9.5029 8.96073 9.11679 8.79076 8.79134C8.77969 8.75814 8.79782 8.72247 8.83101 8.71141C8.83406 8.71045 8.83711 8.70969 8.84017 8.70912C9.20739 8.70606 9.55192 8.53113 9.77131 8.23658Z" fill="#FF9500"/>
<path d="M8.26036 5.83321L10.4288 7.13387C10.5786 7.22372 10.627 7.41773 10.5374 7.56748C10.4475 7.71724 10.2535 7.76569 10.1037 7.67603L7.93529 6.37537C7.78554 6.28552 7.73708 6.09151 7.82674 5.94176C7.91659 5.792 8.1106 5.74355 8.26036 5.83321Z" fill="#FF9500"/>
<path d="M6.30992 9.08712L8.47838 10.3878C8.62813 10.4776 8.67659 10.6716 8.58692 10.8214C8.49707 10.9711 8.30306 11.0196 8.15331 10.9299L5.98485 9.62928C5.8351 9.53943 5.78664 9.34542 5.8763 9.19566C5.96615 9.04591 6.16016 8.99746 6.30992 9.08712Z" fill="#FF9500"/>
</svg>
