<svg width="15" height="15" viewBox="0 0 15 15" fill="none" xmlns="http://www.w3.org/2000/svg">
<circle opacity="0.2" cx="7.60046" cy="7.54187" r="7.20007" fill="#FF9500"/>
<path d="M11.878 8.05249C11.7093 8.05249 11.5727 7.9159 11.5727 7.74726C11.5727 5.66827 9.88749 3.98265 7.8085 3.98265C6.81002 3.98265 5.85237 4.37925 5.14633 5.08529C5.02005 5.21157 4.90291 5.34664 4.79551 5.48933C4.69441 5.62421 4.50306 5.65149 4.36819 5.55038C4.23332 5.44927 4.20604 5.25793 4.30715 5.12306C4.4321 4.95804 4.56812 4.80161 4.71405 4.6551C6.42219 2.9462 9.19233 2.94563 10.9012 4.65377C11.7219 5.47407 12.183 6.58682 12.1832 7.74726C12.1832 7.9159 12.0466 8.05249 11.878 8.05249Z" fill="#FF9500"/>
<path d="M7.8075 12.1215C5.39181 12.1219 3.433 10.1639 3.43262 7.74816C3.43262 7.74759 3.43262 7.74702 3.43262 7.74644C3.43262 7.578 3.56921 7.44141 3.73785 7.44141C3.90649 7.44141 4.04308 7.578 4.04308 7.74664C4.04308 9.82563 5.72832 11.5113 7.80731 11.5113C8.80579 11.5113 9.76345 11.1146 10.4695 10.4086C10.5956 10.2825 10.7127 10.1475 10.8199 10.0049C10.9281 9.87523 11.1208 9.85787 11.2505 9.96603C11.3707 10.0664 11.3957 10.2413 11.3083 10.3712C11.1835 10.5364 11.0475 10.693 10.9014 10.8396C10.0826 11.6627 8.96871 12.1244 7.8075 12.1215Z" fill="#FF9500"/>
<path d="M11.2612 11.5055C11.0926 11.5055 10.956 11.3689 10.956 11.2003V10.3546H10.1099C9.94128 10.3546 9.80469 10.218 9.80469 10.0494C9.80469 9.88073 9.94128 9.74414 10.1099 9.74414H11.2612C11.4298 9.74414 11.5664 9.88073 11.5664 10.0494V11.2003C11.5664 11.3689 11.4298 11.5055 11.2612 11.5055Z" fill="#FF9500"/>
<path d="M5.50496 5.74964H4.35406C4.18542 5.74964 4.04883 5.61305 4.04883 5.44441V4.29351C4.04883 4.12487 4.18542 3.98828 4.35406 3.98828C4.5227 3.98828 4.65929 4.12487 4.65929 4.29351V5.13919H5.50496C5.6736 5.13919 5.81019 5.27577 5.81019 5.44441C5.81019 5.61305 5.6736 5.74964 5.50496 5.74964Z" fill="#FF9500"/>
<path d="M9.37189 7.59681L9.81714 6.85454L7.64926 5.55273L7.2021 6.29501C7.04567 6.62714 7.05368 7.01345 7.22384 7.3387C7.23472 7.3719 7.21678 7.40757 7.18359 7.41864C7.18054 7.41959 7.1773 7.42035 7.17424 7.42093C6.80701 7.42379 6.46249 7.59853 6.2431 7.89308L5.79785 8.63574L7.96727 9.93754L8.4129 9.19526C8.56933 8.86313 8.56132 8.47702 8.39134 8.15157C8.38028 8.11837 8.3984 8.0827 8.4316 8.07164C8.43465 8.07068 8.4377 8.06992 8.44075 8.06935C8.80798 8.06629 9.15251 7.89136 9.37189 7.59681Z" fill="#FF9500"/>
<path d="M7.86143 5.19344L10.0299 6.4941C10.1796 6.58395 10.2281 6.77796 10.1384 6.92771C10.0486 7.07747 9.85458 7.12592 9.70482 7.03626L7.53636 5.7356C7.38661 5.64575 7.33815 5.45174 7.42782 5.30199C7.51767 5.15223 7.71168 5.10378 7.86143 5.19344Z" fill="#FF9500"/>
<path d="M5.91124 8.44735L8.0797 9.748C8.22945 9.83785 8.2779 10.0319 8.18824 10.1816C8.09839 10.3314 7.90438 10.3798 7.75463 10.2902L5.58617 8.98951C5.43641 8.89966 5.38796 8.70565 5.47762 8.55589C5.56747 8.40614 5.76148 8.35769 5.91124 8.44735Z" fill="#FF9500"/>
</svg>
