<svg width="22" height="20" viewBox="0 0 22 20" fill="none" xmlns="http://www.w3.org/2000/svg">
<path d="M8.48738 5.73676L8.1033 7.97632C8.06483 8.20076 8.15703 8.42754 8.34129 8.56133C8.44548 8.63702 8.56884 8.67565 8.69282 8.67565C8.78798 8.67565 8.88362 8.65291 8.97115 8.60696L10.9824 7.54956L12.9936 8.60696C13.0811 8.65291 13.1766 8.67565 13.2719 8.67565C13.2724 8.67565 13.273 8.67565 13.2736 8.67565C13.6035 8.67518 13.8708 8.4076 13.8708 8.07756C13.8708 8.03162 13.8657 7.98691 13.8559 7.94393L13.4774 5.73676L15.1045 4.15058C15.2676 3.99171 15.3263 3.75403 15.2559 3.53754C15.1855 3.32104 14.9984 3.16327 14.7731 3.13056L12.5245 2.80379L11.5188 0.765927C11.418 0.561892 11.2101 0.432617 10.9824 0.432617C10.7548 0.432617 10.5469 0.561892 10.4461 0.765927L9.44043 2.80363L7.19168 3.1304C6.96646 3.16327 6.77925 3.32104 6.709 3.53754C6.6386 3.75403 6.69732 3.99171 6.86024 4.15058L8.48738 5.73676ZM9.92357 3.94234C10.1184 3.91399 10.2868 3.79157 10.3739 3.6151L10.9824 2.38217L11.5909 3.6151C11.6781 3.79157 11.8465 3.91399 12.0413 3.94234L13.402 4.13999L12.4173 5.09973C12.2764 5.23711 12.212 5.43507 12.2454 5.62898L12.4778 6.98418L11.2607 6.34435C11.1736 6.29856 11.078 6.27566 10.9825 6.27566C10.8869 6.27566 10.7913 6.29856 10.7042 6.34435L9.48716 6.98418L9.71954 5.62914C9.75287 5.43507 9.68854 5.23711 9.54759 5.09973L8.56292 4.13999L9.92357 3.94234Z" fill="#666666"/>
<path d="M18.99 13.8856H16.4275C16.066 13.8856 15.7251 13.9738 15.424 14.1289V12.2415C15.424 11.0287 14.4373 10.042 13.2245 10.042H8.74007C7.52723 10.042 6.54038 11.0287 6.54038 12.2415V12.5273C6.23932 12.3724 5.89837 12.2842 5.53703 12.2842H2.97459C1.76159 12.284 0.774902 13.2709 0.774902 14.4837V19.1949C0.774902 19.5251 1.04264 19.7928 1.37299 19.7928H20.5916C20.9219 19.7928 21.1897 19.5251 21.1897 19.1949V16.0853C21.1897 14.8725 20.203 13.8856 18.99 13.8856ZM1.97108 14.4837C1.97108 13.9305 2.4212 13.4802 2.97459 13.4802H5.53703C6.09026 13.4802 6.54038 13.9305 6.54038 14.4837V18.5968H1.97108V14.4837ZM7.73656 14.4837V12.2415C7.73656 11.6883 8.18684 11.2382 8.74007 11.2382H13.2245C13.7777 11.2382 14.2278 11.6883 14.2278 12.2415V18.5968H7.73656V14.4837ZM19.9935 18.5968H15.424V16.0853C15.424 15.5319 15.8742 15.0818 16.4275 15.0818H18.99C19.5434 15.0818 19.9935 15.5319 19.9935 16.0853V18.5968Z" fill="#666666"/>
</svg>
