<svg width="22" height="20" viewBox="0 0 22 20" fill="none" xmlns="http://www.w3.org/2000/svg">
<path d="M8.48738 5.73774L8.1033 7.9773C8.06483 8.20174 8.15703 8.42851 8.34129 8.56231C8.44548 8.638 8.56884 8.67663 8.69282 8.67663C8.78798 8.67663 8.88362 8.65389 8.97115 8.60794L10.9824 7.55054L12.9936 8.60794C13.0811 8.65389 13.1766 8.67663 13.2719 8.67663C13.2724 8.67663 13.273 8.67663 13.2736 8.67663C13.6035 8.67616 13.8708 8.40858 13.8708 8.07854C13.8708 8.03259 13.8657 7.98789 13.8559 7.9449L13.4774 5.73774L15.1045 4.15156C15.2676 3.99269 15.3263 3.75501 15.2559 3.53852C15.1855 3.32202 14.9984 3.16424 14.7731 3.13153L12.5245 2.80477L11.5188 0.766904C11.418 0.562868 11.2101 0.433594 10.9824 0.433594C10.7548 0.433594 10.5469 0.562868 10.4461 0.766904L9.44043 2.80461L7.19168 3.13138C6.96646 3.16424 6.77925 3.32202 6.709 3.53852C6.6386 3.75501 6.69732 3.99269 6.86024 4.15156L8.48738 5.73774ZM9.92357 3.94332C10.1184 3.91497 10.2868 3.79255 10.3739 3.61608L10.9824 2.38315L11.5909 3.61608C11.6781 3.79255 11.8465 3.91497 12.0413 3.94332L13.402 4.14097L12.4173 5.10071C12.2764 5.23808 12.212 5.43605 12.2454 5.62996L12.4778 6.98516L11.2607 6.34533C11.1736 6.29954 11.078 6.27664 10.9825 6.27664C10.8869 6.27664 10.7913 6.29954 10.7042 6.34533L9.48716 6.98516L9.71954 5.63011C9.75287 5.43605 9.68854 5.23808 9.54759 5.10071L8.56292 4.14097L9.92357 3.94332Z" fill="#666666"/>
<path d="M18.9905 13.8866H16.428C16.0665 13.8866 15.7256 13.9748 15.4245 14.1299V12.2425C15.4245 11.0297 14.4378 10.043 13.225 10.043H8.74056C7.52772 10.043 6.54087 11.0297 6.54087 12.2425V12.5283C6.2398 12.3733 5.89886 12.2852 5.53752 12.2852H2.97508C1.76208 12.285 0.775391 13.2719 0.775391 14.4847V19.1959C0.775391 19.5261 1.04313 19.7938 1.37348 19.7938H20.5921C20.9224 19.7938 21.1902 19.5261 21.1902 19.1959V16.0863C21.1902 14.8735 20.2035 13.8866 18.9905 13.8866ZM1.97157 14.4847C1.97157 13.9315 2.42169 13.4812 2.97508 13.4812H5.53752C6.09075 13.4812 6.54087 13.9315 6.54087 14.4847V18.5978H1.97157V14.4847ZM7.73705 14.4847V12.2425C7.73705 11.6893 8.18733 11.2391 8.74056 11.2391H13.225C13.7782 11.2391 14.2283 11.6893 14.2283 12.2425V18.5978H7.73705V14.4847ZM19.994 18.5978H15.4245V16.0863C15.4245 15.5329 15.8746 15.0828 16.428 15.0828H18.9905C19.5439 15.0828 19.994 15.5329 19.994 16.0863V18.5978Z" fill="#666666"/>
</svg>
