<svg width="22" height="22" viewBox="0 0 22 22" fill="none" xmlns="http://www.w3.org/2000/svg">
<path d="M21 10.3335V17.4446C21 18.3876 20.7659 19.292 20.3491 19.9588C19.9324 20.6256 19.3671 21.0002 18.7778 21.0002H3.22222C2.63285 21.0002 2.06762 20.6256 1.65087 19.9588C1.23413 19.292 1 18.3876 1 17.4446V10.3335" fill="#053682"/>
<path d="M21 10.3335V17.4446C21 18.3876 20.7659 19.292 20.3491 19.9588C19.9324 20.6256 19.3671 21.0002 18.7778 21.0002H3.22222C2.63285 21.0002 2.06762 20.6256 1.65087 19.9588C1.23413 19.292 1 18.3876 1 17.4446V10.3335" stroke="#152848" stroke-width="1.5" stroke-linecap="round" stroke-linejoin="round"/>
<path d="M16.5552 6.55518L10.9996 0.999621L5.44407 6.55518" stroke="#152848" stroke-width="1.5" stroke-linecap="round" stroke-linejoin="round"/>
<path d="M11 1.00016L11 14.3335" stroke="#152848" stroke-width="1.5" stroke-linecap="round" stroke-linejoin="round"/>
</svg>
