<svg width="33" height="41" viewBox="0 0 33 41" fill="none" xmlns="http://www.w3.org/2000/svg">
<path d="M20.5 1H4.9C3.86566 1 2.87368 1.41089 2.14228 2.14228C1.41089 2.87368 1 3.86566 1 4.9V36.1C1 37.1343 1.41089 38.1263 2.14228 38.8577C2.87368 39.5891 3.86566 40 4.9 40H28.3C29.3343 40 30.3263 39.5891 31.0577 38.8577C31.7891 38.1263 32.2 37.1343 32.2 36.1V12.7L20.5 1Z" fill="#C0BAFF" stroke="#7B70F1" stroke-width="1.5" stroke-linecap="round" stroke-linejoin="round"/>
<path d="M20.1025 1.7959V13.4959H31.8025" fill="#C0BAFF"/>
<path d="M20.1025 1.7959V13.4959H31.8025" stroke="#7B70F1" stroke-width="1.5" stroke-linecap="round" stroke-linejoin="round"/>
<path d="M16.6001 32.2V20.5" stroke="#7B70F1" stroke-width="1.5" stroke-linecap="round" stroke-linejoin="round"/>
<path d="M10.75 26.3501H22.45" stroke="#7B70F1" stroke-width="1.5" stroke-linecap="round" stroke-linejoin="round"/>
</svg>
