<svg width="27" height="27" viewBox="0 0 27 27" fill="none" xmlns="http://www.w3.org/2000/svg">
<path d="M8.92171 3.3457H5.5761C4.98457 3.3457 4.41725 3.58069 3.99897 3.99897C3.58069 4.41725 3.3457 4.98457 3.3457 5.5761V8.92171M23.4193 8.92171V5.5761C23.4193 4.98457 23.1843 4.41725 22.766 3.99897C22.3478 3.58069 21.7805 3.3457 21.1889 3.3457H17.8433M17.8433 23.4193H21.1889C21.7805 23.4193 22.3478 23.1843 22.766 22.766C23.1843 22.3478 23.4193 21.7805 23.4193 21.1889V17.8433M3.3457 17.8433V21.1889C3.3457 21.7805 3.58069 22.3478 3.99897 22.766C4.41725 23.1843 4.98457 23.4193 5.5761 23.4193H8.92171" stroke="white" stroke-width="2.2304" stroke-linecap="round" stroke-linejoin="round"/>
</svg>
