<svg width="22" height="22" viewBox="0 0 22 22" fill="none" xmlns="http://www.w3.org/2000/svg">
<path fill-rule="evenodd" clip-rule="evenodd" d="M4.24869 14.0085C5.07385 13.1833 6.19301 12.7197 7.35996 12.7197H14.4C15.5669 12.7197 16.6861 13.1833 17.5112 14.0085C18.3364 14.8336 18.8 15.9528 18.8 17.1197V18.8797C18.8 19.3657 18.406 19.7597 17.92 19.7597C17.4339 19.7597 17.04 19.3657 17.04 18.8797V17.1197C17.04 16.4196 16.7618 15.7481 16.2667 15.253C15.7716 14.7579 15.1001 14.4797 14.4 14.4797H7.35996C6.65979 14.4797 5.9883 14.7579 5.4932 15.253C4.9981 15.7481 4.71996 16.4196 4.71996 17.1197V18.8797C4.71996 19.3657 4.32597 19.7597 3.83996 19.7597C3.35395 19.7597 2.95996 19.3657 2.95996 18.8797V17.1197C2.95996 15.9528 3.42353 14.8336 4.24869 14.0085Z" fill="#0048D0"/>
<path fill-rule="evenodd" clip-rule="evenodd" d="M2.95996 18.7748C2.95996 18.1915 3.43275 17.7188 4.01596 17.7188H17.744C18.3272 17.7188 18.8 18.1915 18.8 18.7748C18.8 19.358 18.3272 19.8308 17.744 19.8308H4.01596C3.43275 19.8308 2.95996 19.358 2.95996 18.7748Z" fill="#0048D0"/>
<path fill-rule="evenodd" clip-rule="evenodd" d="M10.8799 3.92016C9.42189 3.92016 8.23992 5.10212 8.23992 6.56016C8.23992 8.01819 9.42189 9.20016 10.8799 9.20016C12.3379 9.20016 13.5199 8.01819 13.5199 6.56016C13.5199 5.10212 12.3379 3.92016 10.8799 3.92016ZM6.47992 6.56016C6.47992 4.1301 8.44987 2.16016 10.8799 2.16016C13.31 2.16016 15.2799 4.1301 15.2799 6.56016C15.2799 8.99021 13.31 10.9602 10.8799 10.9602C8.44987 10.9602 6.47992 8.99021 6.47992 6.56016Z" fill="#0048D0"/>
</svg>
