<svg width="29" height="29" viewBox="0 0 29 29" fill="none" xmlns="http://www.w3.org/2000/svg">
<circle cx="14.1514" cy="14.541" r="13.5" stroke="#666666"/>
<path d="M14.3356 14.8302V14.0439C14.3356 13.6498 14.5653 13.297 14.9182 13.1215C15.3637 12.9 15.6652 12.4324 15.6449 11.8966C15.6191 11.2175 15.0657 10.6642 14.3866 10.6384C13.6397 10.61 13.0253 11.2071 13.0253 11.9476M13.8115 16.4025H14.8597M18.9476 18.5958H16.432L14.3356 20.6922L12.2392 18.5958H9.72353C8.85519 18.5958 8.15125 17.8919 8.15125 17.0235V10.1133C8.15125 9.24496 8.85519 8.54102 9.72353 8.54102H18.9476C19.816 8.54102 20.5199 9.24496 20.5199 10.1133V17.0235C20.5199 17.8919 19.816 18.5958 18.9476 18.5958Z" stroke="#666666" stroke-width="0.8" stroke-miterlimit="10"/>
</svg>
