<svg width="36" height="36" viewBox="0 0 36 36" fill="none" xmlns="http://www.w3.org/2000/svg">
<rect width="36" height="36" rx="18" fill="#38A4F6"/>
<path d="M24.75 17.3829V18.0039C24.7492 19.4594 24.2778 20.8758 23.4063 22.0416C22.5348 23.2074 21.3097 24.0603 19.9139 24.473C18.518 24.8857 17.0261 24.8361 15.6608 24.3317C14.2954 23.8273 13.1296 22.895 12.3374 21.6739C11.5452 20.4528 11.1689 19.0083 11.2646 17.5559C11.3604 16.1034 11.9231 14.7209 12.8688 13.6144C13.8146 12.5079 15.0926 11.7367 16.5124 11.416C17.9322 11.0952 19.4177 11.2419 20.7472 11.8344" stroke="white" stroke-width="2" stroke-linecap="round" stroke-linejoin="round"/>
<path d="M24.7501 12.604L18.0001 19.3608L15.9751 17.3358" stroke="white" stroke-width="2" stroke-linecap="round" stroke-linejoin="round"/>
</svg>
