<svg width="8" height="8" viewBox="0 0 8 8" fill="none" xmlns="http://www.w3.org/2000/svg">
<g clip-path="url(#clip0_640_4516)">
<path d="M7.00003 4.26333C6.94759 4.83073 6.73465 5.37147 6.38611 5.82226C6.03757 6.27306 5.56786 6.61527 5.03193 6.80885C4.496 7.00243 3.91602 7.03937 3.35986 6.91536C2.8037 6.79135 2.29436 6.51151 1.89144 6.10859C1.48851 5.70567 1.20867 5.19633 1.08466 4.64017C0.960653 4.08401 0.9976 3.50403 1.19118 2.9681C1.38476 2.43217 1.72697 1.96246 2.17777 1.61392C2.62856 1.26538 3.16929 1.05244 3.73669 1C3.4045 1.44942 3.24464 2.00315 3.28621 2.56047C3.32777 3.11779 3.56798 3.64169 3.96316 4.03687C4.35834 4.43205 4.88224 4.67226 5.43956 4.71382C5.99688 4.75538 6.55061 4.59553 7.00003 4.26333Z" stroke="black" stroke-width="0.666667" stroke-linecap="round" stroke-linejoin="round"/>
</g>
<defs>
<clipPath id="clip0_640_4516">
<rect width="8" height="8" fill="white"/>
</clipPath>
</defs>
</svg>
