<svg width="13" height="13" viewBox="0 0 13 13" fill="none" xmlns="http://www.w3.org/2000/svg">
<path d="M0.722222 6.91672V8.22214C0.722222 8.33336 0.768505 8.43526 0.86107 8.52782C0.953634 8.62038 1.05553 8.66667 1.16675 8.66667H11.8333C11.9445 8.66667 12.0464 8.62038 12.1389 8.52782C12.2315 8.43526 12.2778 8.33336 12.2778 8.22214V6.91672H0.722222ZM1.16675 0H11.8333C12.1564 0 12.4317 0.11363 12.6591 0.340889C12.8864 0.568269 13 0.843556 13 1.16675V8.22214C13 8.54533 12.8864 8.82062 12.6591 9.048C12.4317 9.27526 12.1564 9.38889 11.8333 9.38889H8.61106V12.4722L6.5 11.4167L4.38894 12.4722V9.38889H1.16675C0.843556 9.38889 0.568269 9.27526 0.340889 9.048C0.11363 8.82062 0 8.54533 0 8.22214V1.16675C0 0.843556 0.11363 0.568269 0.340889 0.340889C0.568269 0.11363 0.843556 0 1.16675 0ZM0.722222 5.36106H12.2778V1.16675C12.2778 1.05553 12.2315 0.953634 12.1389 0.86107C12.0464 0.768505 11.9445 0.722222 11.8333 0.722222H1.16675C1.05553 0.722222 0.953634 0.768505 0.86107 0.86107C0.768505 0.953634 0.722222 1.05553 0.722222 1.16675V5.36106ZM0.722222 8.22214V0.722222H1.16675C1.05553 0.722222 0.953634 0.768505 0.86107 0.86107C0.768505 0.953634 0.722222 1.05553 0.722222 1.16675V8.22214C0.722222 8.33336 0.768505 8.43526 0.86107 8.52782C0.953634 8.62038 1.05553 8.66667 1.16675 8.66667H0.722222V8.22214Z" fill="#989898"/>
</svg>
