<svg width="204" height="193" viewBox="0 0 204 193" fill="none" xmlns="http://www.w3.org/2000/svg">
<path d="M74.3745 86.3398C74.3745 86.3398 46.787 91.8848 37.6833 95.03C28.5796 98.1753 26.0968 116.15 42.649 116.97C59.2012 117.79 84.5104 112.667 84.5104 112.667L74.3745 86.3398Z" fill="white" stroke="black" stroke-width="1.3879" stroke-miterlimit="10"/>
<path d="M19.0947 37.4228C12.2895 37.0251 9.86955 42.5465 12.9727 44.6049C16.0758 46.6632 17.7874 47.9148 21.3177 50.2975C24.8481 52.6808 26.6745 48.7024 23.329 46.0068C19.9836 43.3112 17.7693 40.9389 17.7693 40.9389" fill="white"/>
<path d="M19.0947 37.4228C12.2895 37.0251 9.86955 42.5465 12.9727 44.6049C16.0758 46.6632 17.7874 47.9148 21.3177 50.2975C24.8481 52.6808 26.6745 48.7024 23.329 46.0068C19.9836 43.3112 17.7693 40.9389 17.7693 40.9389" stroke="black" stroke-width="1.3879" stroke-miterlimit="10"/>
<path d="M21.4643 34.1513C14.6591 33.7536 12.2392 39.275 15.3423 41.3339C18.4454 43.3923 20.157 44.6438 23.6873 47.0266C27.2177 49.4098 29.0441 45.4315 25.6987 42.7359C22.3532 40.0403 20.1389 37.6679 20.1389 37.6679" fill="white"/>
<path d="M21.4643 34.1513C14.6591 33.7536 12.2392 39.275 15.3423 41.3339C18.4454 43.3923 20.157 44.6438 23.6873 47.0266C27.2177 49.4098 29.0441 45.4315 25.6987 42.7359C22.3532 40.0403 20.1389 37.6679 20.1389 37.6679" stroke="black" stroke-width="1.3879" stroke-miterlimit="10"/>
<path d="M22.5508 30.2001C15.7455 29.8024 13.3256 35.3238 16.4287 37.3828C19.5319 39.4411 21.2434 40.6921 24.7738 43.0754C28.3041 45.4587 30.1305 41.4803 26.7851 38.7847C23.4391 36.0891 21.2254 33.7168 21.2254 33.7168" fill="white"/>
<path d="M22.5508 30.2001C15.7455 29.8024 13.3256 35.3238 16.4287 37.3828C19.5319 39.4411 21.2434 40.6921 24.7738 43.0754C28.3041 45.4587 30.1305 41.4803 26.7851 38.7847C23.4391 36.0891 21.2254 33.7168 21.2254 33.7168" stroke="black" stroke-width="1.3879" stroke-miterlimit="10"/>
<path d="M33.0938 29.1172C22.4026 25.5567 12.3159 21.1211 7.9569 19.752C7.9569 19.752 5.55665 24.623 11.5228 26.811C17.4884 28.999 28.0553 33.4729 28.0553 33.4729" fill="white"/>
<path d="M33.0938 29.1172C22.4026 25.5567 12.3159 21.1211 7.9569 19.752C7.9569 19.752 5.55665 24.623 11.5228 26.811C17.4884 28.999 28.0553 33.4729 28.0553 33.4729" stroke="black" stroke-width="1.3879" stroke-miterlimit="10"/>
<path d="M32.5265 50.408C32.5265 50.408 32.7344 80.2146 29.1865 101.48C27.8453 109.52 34.2468 115.721 41.2638 116.914C44.845 117.523 48.5859 116.828 51.5403 114.407C54.5668 111.926 56.7668 107.634 57.1208 101.077C57.2307 99.0429 57.2706 96.9977 57.2498 94.9514C56.9517 65.9472 44.3762 36.8353 44.3762 36.8353C44.3762 36.8353 42.9491 31.0923 36.9977 29.9157C28.8233 28.2999 20.8541 33.1863 15.6248 37.5841C19.6135 40.6249 22.6187 39.4751 27.2119 36.1428C25.6059 42.4705 31.8772 44.1082 31.8772 44.1082" fill="white"/>
<path d="M32.5265 50.408C32.5265 50.408 32.7344 80.2146 29.1865 101.48C27.8453 109.52 34.2468 115.721 41.2638 116.914C44.845 117.523 48.5859 116.828 51.5403 114.407C54.5668 111.926 56.7668 107.634 57.1208 101.077C57.2307 99.0429 57.2706 96.9977 57.2498 94.9514C56.9517 65.9472 44.3762 36.8353 44.3762 36.8353C44.3762 36.8353 42.9491 31.0923 36.9977 29.9157C28.8233 28.2999 20.8541 33.1863 15.6248 37.5841C19.6135 40.6249 22.6187 39.4751 27.2119 36.1428C25.6059 42.4705 31.8772 44.1082 31.8772 44.1082" stroke="black" stroke-width="1.3879" stroke-miterlimit="10"/>
<path d="M23.0999 46.627C23.0999 46.627 27.117 49.5414 31.2206 50.2426C35.3242 50.9439 37.8071 49.8089 37.8071 49.8089" fill="white"/>
<path d="M23.0999 46.627C23.0999 46.627 27.117 49.5414 31.2206 50.2426C35.3242 50.9439 37.8071 49.8089 37.8071 49.8089" stroke="black" stroke-width="1.3879" stroke-miterlimit="10"/>
<path d="M114.106 75.0604C125.271 61.8744 137.893 69.9433 138.1 84.634C138.306 99.3243 146.997 142.775 146.997 142.775C146.997 142.775 138.652 159.327 112.305 161.189C85.959 163.051 79.3381 153.948 79.3381 153.948C79.3381 153.948 72.296 103.463 74.3686 89.3929C76.4412 75.3235 87.298 76.9788 89.7322 81.1168C114.106 75.0604 114.106 75.0604 114.106 75.0604Z" fill="#2669E8" stroke="black" stroke-width="1.3879" stroke-miterlimit="10"/>
<path d="M85.1749 78.3027C85.1749 78.3027 78.7406 88.5858 84.9014 97.3219C89.9442 104.472 106.236 101.92 112.305 91.3449" stroke="black" stroke-width="1.3879" stroke-miterlimit="10"/>
<path d="M116.995 83.2545C116.995 83.2545 120.428 78.716 119.539 70.2949" stroke="black" stroke-width="1.3879" stroke-miterlimit="10"/>
<path d="M96.0283 101.291C96.0283 101.291 96.5775 111.394 97.2684 125.326" stroke="black" stroke-width="1.3879" stroke-miterlimit="10"/>
<path d="M81.3843 78.582C64.6482 83.254 61.491 89.0576 61.491 89.0576L67.5452 119.186L78.2576 117.308" fill="#2669E8"/>
<path d="M81.3843 78.582C64.6482 83.254 61.491 89.0576 61.491 89.0576L67.5452 119.186L78.2576 117.308" stroke="black" stroke-width="1.3879" stroke-miterlimit="10"/>
<path d="M142.47 146.678L132.347 145.462C132.347 145.462 123.354 144.792 118.271 144.447C113.188 144.102 111.509 134.798 124.345 135.488C131.926 135.895 139.234 139.639 142.47 146.678Z" fill="white" stroke="black" stroke-width="1.3879" stroke-miterlimit="10"/>
<path d="M85.6226 122.748L123.052 114.132C125.029 113.677 126.996 114.932 127.416 116.916L138.055 167.081C138.477 169.069 137.183 171.017 135.186 171.398L96.241 178.846C94.2658 179.224 92.3601 177.923 91.9919 175.946L82.8691 126.949C82.513 125.037 83.7273 123.184 85.6226 122.748Z" fill="white" stroke="black" stroke-width="1.3879" stroke-miterlimit="10"/>
<path d="M92.4411 127.752L119.086 121.121C120.493 120.771 121.893 121.735 122.193 123.263L129.767 161.873C130.067 163.403 129.146 164.902 127.725 165.196L100.001 170.928C98.5943 171.218 97.2377 170.217 96.9757 168.695L90.4812 130.985C90.2274 129.514 91.0916 128.088 92.4411 127.752Z" fill="white" stroke="black" stroke-width="1.3879" stroke-miterlimit="10"/>
<path d="M148.677 151.577C141.367 143.715 135.34 145.18 135.34 145.18C128.582 145.184 131.8 158.655 134.191 166.471C136.582 174.288 146.996 174.012 153.87 171.713C161.69 169.097 169.411 159.781 175.618 148.217C181.826 136.654 189.966 119.746 183.067 109.871C176.032 99.8019 153.824 84.4219 153.824 84.4219L138.135 109.251L162.137 125.321C162.137 125.321 152.815 144.591 148.677 151.577Z" fill="white" stroke="black" stroke-width="1.3879" stroke-miterlimit="10"/>
<path d="M141.962 146.011C137.824 139.528 123.34 140.163 117.133 142.742C110.926 145.321 112.03 150.563 118.513 149.184C124.996 147.804 134.882 147.856 137.121 152.451" fill="white"/>
<path d="M141.962 146.011C137.824 139.528 123.34 140.163 117.133 142.742C110.926 145.321 112.03 150.563 118.513 149.184C124.996 147.804 134.882 147.856 137.121 152.451" stroke="black" stroke-width="1.3879" stroke-miterlimit="10"/>
<path d="M141.962 150.29C137.824 143.807 123.34 144.442 117.133 147.021C110.926 149.6 112.03 154.842 118.513 153.463C124.996 152.083 134.882 152.135 137.121 156.73" fill="white"/>
<path d="M141.962 150.29C137.824 143.807 123.34 144.442 117.133 147.021C110.926 149.6 112.03 154.842 118.513 153.463C124.996 152.083 134.882 152.135 137.121 156.73" stroke="black" stroke-width="1.3879" stroke-miterlimit="10"/>
<path d="M143.049 157.322C138.911 150.839 124.427 151.473 118.22 154.053C112.012 156.632 113.116 161.874 119.599 160.494C126.082 159.115 135.968 159.166 138.208 163.762" fill="white"/>
<path d="M143.049 157.322C138.911 150.839 124.427 151.473 118.22 154.053C112.012 156.632 113.116 161.874 119.599 160.494C126.082 159.115 135.968 159.166 138.208 163.762" stroke="black" stroke-width="1.3879" stroke-miterlimit="10"/>
<path d="M144.295 164.535C140.157 158.052 125.673 158.686 119.466 161.266C113.259 163.845 114.363 169.087 120.846 167.707C127.329 166.328 137.215 166.379 139.454 170.974" fill="white"/>
<path d="M144.295 164.535C140.157 158.052 125.673 158.686 119.466 161.266C113.259 163.845 114.363 169.087 120.846 167.707C127.329 166.328 137.215 166.379 139.454 170.974" stroke="black" stroke-width="1.3879" stroke-miterlimit="10"/>
<path d="M125.474 68.4041C140.479 67.0431 157.962 84.423 157.962 84.423L140.063 114.915L122.995 103.665" fill="#2669E8"/>
<path d="M125.474 68.4041C140.479 67.0431 157.962 84.423 157.962 84.423L140.063 114.915L122.995 103.665" stroke="black" stroke-width="1.3879" stroke-miterlimit="10"/>
<path d="M92.0049 119.805L97.4973 145.235L120.671 140.609L115.427 114.414L92.0049 119.805Z" fill="#FFCC00" stroke="black" stroke-width="1.3879" stroke-miterlimit="10"/>
<path d="M68.4326 51.4348C68.2603 44.9058 70.9236 40.9516 70.9236 40.9516C70.9236 28.6616 73.3851 16.2414 89.9587 15.387C103.338 14.6972 112.305 25.4425 112.305 37.733V48.2163C112.305 54.294 103.937 68.3552 88.8554 68.3552C73.7746 68.3547 68.6125 58.2406 68.4326 51.4348Z" stroke="black" stroke-width="1.3879" stroke-miterlimit="10"/>
<path d="M105.132 37.551C105.132 37.551 108.342 31.407 112.397 34.1295C116.399 36.8169 114.42 52.9999 106.052 49.3219" fill="white"/>
<path d="M105.132 37.551C105.132 37.551 108.342 31.407 112.397 34.1295C116.399 36.8169 114.42 52.9999 106.052 49.3219" stroke="black" stroke-width="1.3879" stroke-miterlimit="10"/>
<path d="M108.167 43.6209C108.167 43.6209 108.259 39.1733 111.201 38.2871L108.167 43.6209Z" fill="white"/>
<path d="M108.167 43.6209C108.167 43.6209 108.259 39.1733 111.201 38.2871" stroke="black" stroke-width="1.3879" stroke-miterlimit="10"/>
<path d="M76.2576 21.0395C80.7178 16.2177 90.164 20.7693 89.9928 29.0454C89.8216 37.3216 99.7529 38.287 99.7529 38.287V43.6208H103.891L106.207 35.9426C106.207 35.9426 108.903 31.9041 112.397 34.1304C117.823 25.1836 109.761 21.3212 109.761 21.3212C109.761 21.3212 100.557 3.80301 83.3385 10.7001C66.1195 17.5967 72.0222 29.6646 72.0222 29.6646C72.0222 29.6646 71.7974 25.8613 76.2576 21.0395Z" fill="black" stroke="black" stroke-width="1.3879" stroke-miterlimit="10"/>
<path d="M80.0964 35.9414C80.0964 35.9414 82.9238 38.3925 78.3722 48.186C77.4298 50.2137 82.5103 53.7036 84.5101 49.7034" fill="white"/>
<path d="M80.0964 35.9414C80.0964 35.9414 82.9238 38.3925 78.3722 48.186C77.4298 50.2137 82.5103 53.7036 84.5101 49.7034" stroke="black" stroke-width="1.3879" stroke-miterlimit="10"/>
<path d="M76.4418 42.7008H76.0742C75.4025 42.7008 74.8533 42.151 74.8533 41.4799V40.2092C74.8533 39.5375 75.4025 38.9883 76.0742 38.9883H76.4418C77.1135 38.9883 77.6627 39.538 77.6627 40.2092V41.4799C77.6627 42.1516 77.1129 42.7008 76.4418 42.7008Z" fill="black"/>
<path d="M71.4031 34.7522C72.3341 32.8213 75.8858 32.4072 77.3342 34.4421" stroke="black" stroke-width="1.3879" stroke-miterlimit="10"/>
<path d="M91.5809 42.7008H91.2133C90.5416 42.7008 89.9924 42.151 89.9924 41.4799V40.2092C89.9924 39.5375 90.5422 38.9883 91.2133 38.9883H91.5809C92.2526 38.9883 92.8018 39.538 92.8018 40.2092V41.4799C92.8024 42.1516 92.2526 42.7008 91.5809 42.7008Z" fill="black"/>
<path d="M87.0269 35.0959C87.9579 33.165 91.5095 32.751 92.958 34.7858" stroke="black" stroke-width="1.3879" stroke-miterlimit="10"/>
<path d="M85.7517 57.1839C85.7517 57.1839 92.3037 58.7702 96.0282 50.9766L85.7517 57.1839Z" fill="white"/>
<path d="M85.7517 57.1839C85.7517 57.1839 92.3037 58.7702 96.0282 50.9766" stroke="black" stroke-width="1.3879" stroke-miterlimit="10"/>
<path d="M107.065 57.3164L114.106 75.0595C114.106 75.0595 113.962 84.5877 101.063 90.8399C88.1641 97.0921 89.799 85.3671 89.799 85.3671V68.356C89.799 68.356 96.3247 68.1869 100.155 63.7557" fill="white"/>
<path d="M107.065 57.3164L114.106 75.0595C114.106 75.0595 113.962 84.5877 101.063 90.8399C88.1641 97.0921 89.799 85.3671 89.799 85.3671V68.356C89.799 68.356 96.3247 68.1869 100.155 63.7557" stroke="black" stroke-width="1.3879" stroke-miterlimit="10"/>
<path d="M86.9674 0.333981L55.796 15.9197C52.9976 17.3189 53.7141 21.498 56.8189 21.8847L89.4721 25.9549C89.9896 26.0195 90.5152 25.9549 91.0015 25.7673L123.394 13.2667C126.33 12.1339 125.988 7.87384 122.909 7.22345L89.035 0.0681385C88.3354 -0.0795517 87.6068 0.0145324 86.9674 0.333981Z" fill="black"/>
<path d="M119.686 12.9863C119.686 12.9863 123.019 38.5674 139.157 40.9501" stroke="black" stroke-width="1.3879" stroke-miterlimit="10"/>
<path d="M144.445 48.6878C147.757 48.6878 150.442 46.0032 150.442 42.6915C150.442 39.3799 147.757 36.6953 144.445 36.6953C141.134 36.6953 138.449 39.3799 138.449 42.6915C138.449 46.0032 141.134 48.6878 144.445 48.6878Z" fill="#FFCC00" stroke="black" stroke-width="1.3879" stroke-miterlimit="10"/>
<path d="M174.988 57.3132C174.988 61.2735 171.777 64.4833 167.818 64.4833C163.858 64.4833 160.647 61.2729 160.647 57.3132C160.647 53.3529 163.858 50.1426 167.818 50.1426C171.777 50.1426 174.988 53.3535 174.988 57.3132Z" fill="white" stroke="black" stroke-width="1.3879" stroke-miterlimit="10"/>
<path d="M167.817 57.3136C167.817 57.3136 177.104 14.3539 141.962 9.08789" stroke="black" stroke-width="1.3879" stroke-miterlimit="10"/>
<path d="M185.996 70.0503C185.411 70.9594 184.2 71.223 183.291 70.6388C182.382 70.0546 182.118 68.8436 182.703 67.9345C183.287 67.0253 184.498 66.7617 185.407 67.3459C186.317 67.9301 186.58 69.1411 185.996 70.0503Z" fill="black"/>
<path d="M194.402 75.4526C193.818 76.3617 192.607 76.6254 191.698 76.0412C190.789 75.457 190.525 74.2459 191.109 73.3368C191.694 72.4277 192.905 72.164 193.814 72.7482C194.723 73.3324 194.986 74.5435 194.402 75.4526Z" fill="black"/>
<path d="M202.809 80.8549C202.225 81.7641 201.014 82.0277 200.105 81.4435C199.196 80.8593 198.932 79.6483 199.516 78.7391C200.1 77.83 201.312 77.5664 202.221 78.1506C203.13 78.7348 203.393 79.9453 202.809 80.8549Z" fill="black"/>
<path d="M181.559 76.9526C180.975 77.8617 179.764 78.1254 178.855 77.5412C177.946 76.957 177.682 75.7459 178.266 74.8368C178.85 73.9277 180.062 73.664 180.971 74.2482C181.88 74.8324 182.143 76.0435 181.559 76.9526Z" fill="black"/>
<path d="M189.966 82.3569C189.382 83.266 188.171 83.5297 187.262 82.9455C186.352 82.3613 186.089 81.1502 186.673 80.2411C187.257 79.332 188.468 79.0683 189.377 79.6525C190.287 80.2367 190.55 81.4472 189.966 82.3569Z" fill="black"/>
<path d="M198.373 87.7573C197.789 88.6664 196.578 88.9301 195.669 88.3459C194.76 87.7617 194.496 86.5506 195.08 85.6415C195.664 84.7324 196.876 84.4687 197.785 85.0529C198.694 85.6371 198.957 86.8482 198.373 87.7573Z" fill="black"/>
<path d="M177.123 83.8569C176.539 84.766 175.328 85.0297 174.419 84.4455C173.51 83.8613 173.246 82.6502 173.83 81.7411C174.414 80.832 175.626 80.5683 176.535 81.1525C177.444 81.7367 177.708 82.9472 177.123 83.8569Z" fill="black"/>
<path d="M185.53 89.2573C184.946 90.1664 183.735 90.4301 182.826 89.8459C181.917 89.2617 181.653 88.0506 182.237 87.1415C182.821 86.2324 184.032 85.9687 184.942 86.5529C185.851 87.1371 186.114 88.3482 185.53 89.2573Z" fill="black"/>
<path d="M193.937 94.6616C193.352 95.5707 192.141 95.8344 191.232 95.2502C190.323 94.666 190.06 93.4549 190.644 92.5458C191.228 91.6367 192.439 91.373 193.348 91.9572C194.257 92.5414 194.521 93.7525 193.937 94.6616Z" fill="black"/>
<path d="M51.2035 150.849C52.5376 145.246 49.0766 139.622 43.4731 138.288C37.8696 136.954 32.2457 140.415 30.9116 146.018C29.5776 151.622 33.0386 157.246 38.6421 158.58C44.2455 159.914 49.8695 156.453 51.2035 150.849Z" fill="white" stroke="black" stroke-width="1.3879" stroke-miterlimit="10"/>
<path d="M41.0676 148.445C41.0676 148.445 48.2021 190.287 89.7326 192.218" stroke="black" stroke-width="1.3879" stroke-miterlimit="10"/>
<path d="M16.3327 110.373C15.5302 111.097 14.2924 111.033 13.5687 110.231C12.8445 109.428 12.9085 108.191 13.7109 107.467C14.5134 106.743 15.7512 106.807 16.4749 107.609C17.1991 108.412 17.1351 109.649 16.3327 110.373Z" fill="black"/>
<path d="M23.0273 117.791C22.2248 118.515 20.987 118.451 20.2633 117.649C19.5391 116.846 19.6031 115.609 20.4055 114.885C21.208 114.161 22.4458 114.225 23.1695 115.027C23.8937 115.83 23.8297 117.067 23.0273 117.791Z" fill="black"/>
<path d="M29.7216 125.213C28.9192 125.937 27.6813 125.873 26.9576 125.071C26.2334 124.268 26.2974 123.031 27.0998 122.307C27.9023 121.583 29.1402 121.646 29.8638 122.449C30.5881 123.251 30.5246 124.489 29.7216 125.213Z" fill="black"/>
<path d="M10.2411 115.869C9.43869 116.593 8.20083 116.53 7.47715 115.727C6.75292 114.925 6.81692 113.687 7.61937 112.963C8.42182 112.239 9.65969 112.303 10.3834 113.105C11.1071 113.908 11.0436 115.145 10.2411 115.869Z" fill="black"/>
<path d="M16.9352 123.289C16.1328 124.013 14.8949 123.95 14.1712 123.147C13.447 122.344 13.511 121.107 14.3135 120.383C15.1159 119.659 16.3538 119.723 17.0775 120.525C17.8011 121.328 17.7377 122.565 16.9352 123.289Z" fill="black"/>
<path d="M23.6293 130.709C22.8268 131.433 21.589 131.369 20.8653 130.567C20.141 129.764 20.2045 128.527 21.0075 127.803C21.81 127.079 23.0478 127.143 23.7715 127.945C24.4952 128.747 24.4317 129.985 23.6293 130.709Z" fill="black"/>
<path d="M4.14859 121.367C3.34614 122.092 2.10827 122.028 1.38459 121.225C0.660908 120.423 0.723818 119.185 1.52681 118.461C2.32926 117.737 3.56713 117.8 4.29081 118.603C5.01449 119.406 4.95104 120.643 4.14859 121.367Z" fill="black"/>
<path d="M10.8427 128.785C10.0402 129.509 8.80234 129.446 8.07865 128.643C7.35443 127.841 7.41788 126.603 8.22088 125.879C9.02333 125.155 10.2612 125.219 10.9849 126.021C11.7091 126.824 11.6451 128.061 10.8427 128.785Z" fill="black"/>
<path d="M17.537 136.207C16.7345 136.931 15.4967 136.868 14.773 136.065C14.0488 135.262 14.1122 134.025 14.9152 133.301C15.7177 132.577 16.9555 132.641 17.6792 133.443C18.4034 134.245 18.3394 135.483 17.537 136.207Z" fill="black"/>
</svg>
