<?xml version="1.0" encoding="utf-8"?>
<!-- Generator: Adobe Illustrator 27.5.0, SVG Export Plug-In . SVG Version: 6.00 Build 0)  -->
<svg version="1.1" xmlns="http://www.w3.org/2000/svg" xmlns:xlink="http://www.w3.org/1999/xlink" x="0px" y="0px"
	 viewBox="0 0 500 500" style="enable-background:new 0 0 500 500;" xml:space="preserve">
<g id="BACKGROUND">
	<g>
		<rect style="fill:#BEDBF0;" width="0" height="0"/>
		<g>
			<path style="fill:#AAD1EC;" d="M112.07,426.97H56.768c0,0-29.106-45.843-16.736-61.851c12.37-16.009,27.651,2.183,27.651,2.183
				S16.02,263.247,53.858,239.962s67.672,58.94,59.668-20.374c-8.004-79.315,52.392-112.06,81.498-39.294
				c29.106,72.766,67.672,10.915,72.038-27.651c4.366-38.566,71.311-4.366,61.851,95.323c-9.46,99.689,31.289,2.183,52.392,12.37
				c21.102,10.187,8.732,101.872-41.477,152.081C237.228,440.068,112.07,426.97,112.07,426.97z"/>
			<g>
				<path style="fill:#FFFFFF;" d="M257.5,65.041L257.5,65.041c4.474-0.084,8.95-0.168,13.424-0.066
					c3.966,0.09,7.929,0.327,11.878,0.71c1.264,0.123,2.581,0.254,3.771-0.189c1.19-0.443,2.201-1.656,1.96-2.903
					c-0.242-1.25-1.587-1.984-2.848-2.161c-1.26-0.177-2.558,0.021-3.807-0.222c-3.946-0.768-5.732-5.301-8.744-7.964
					c-3.217-2.845-8.245-3.417-12.02-1.369c-1.811,0.982-3.47,2.538-5.53,2.582c-2.745,0.057-5.021-2.633-7.76-2.442
					c-2.613,0.182-4.302,2.841-6.684,3.928c-1.286,0.587-2.732,0.693-4.092,1.079c-5.574,1.58-3.049,7.696,1.452,8.441
					C244.775,65.5,251.171,65.16,257.5,65.041z"/>
			</g>
			<path style="fill:#FFFFFF;" d="M73.338,60.168c15.302-2.354,24.448-0.661,33.038,4.625c8.59,5.286,28.413-6.608,38.985-2.643
				c10.572,3.965,25.109,2.643,25.109-3.965c0-6.608-6.608-0.661-17.18-14.537c-10.572-13.876-26.431-9.251-33.038-0.661
				c-6.608,8.59-11.233-17.841-27.091-5.947c-15.858,11.894-23.127,3.965-31.717,11.894S64.748,61.49,73.338,60.168z"/>
			<path style="fill:#FFFFFF;" d="M97.878,96.775c-12.7-1.27-14.844,0.928-25.049,1.392c-10.205,0.464-13.452,0.464-24.121-0.928
				c-10.669-1.392-20.874-9.277-4.639-9.741c16.235-0.464,17.627-12.061,31.079-8.35s14.844-3.247,25.977,2.319
				c11.133,5.566,20.874,6.03,18.091,11.597C116.433,98.631,111.794,98.167,97.878,96.775z"/>
			<path style="fill:#AAD1EC;" d="M376.615,456.077c0.052,3.221-19.578,6.16-29.834,7.277c-19.422,2.115-26.506,0.018-54.574,0
				c-22.998-0.014-21.966,1.391-37.111,0.728c-21.287-0.933-47.372-4.764-47.298-8.004c0.074-3.251,26.474-5.883,48.026-5.821
				c18.397,0.053,16.519,2.02,34.2,2.183c27.93,0.257,36.468-4.619,61.851-2.183C355.145,450.569,376.561,452.719,376.615,456.077z"
				/>
			<path style="fill:#F7DFB5;" d="M281.083,414.12c0,0-1.228-35.031,13.172-44.43c5.179,15.379,4.902,25.632,4.902,25.632
				s4.091-24.778,11.955-28.196c4.776,18.797,2.362,33.322,2.362,33.322s5.622-23.924,12.018-24.778
				c7.038,21.36-1.508,38.449-1.508,38.449S281.584,412.838,281.083,414.12z"/>
			<path style="fill:#8BAF64;" d="M321.344,418.229c0,0-3.731-61.089,42.436-89.535c1.865,15.389-37.306,88.602-37.306,88.602
				s26.114-68.55,66.218-77.877c3.264,28.446-60.622,80.675-60.622,80.675s48.032-60.622,76.944-62.021
				c-12.591,35.907-73.213,66.685-73.213,66.685"/>
			<g>
				<path style="fill:none;stroke:#3D7D82;stroke-width:0.8504;stroke-miterlimit:10;" d="M110.401,249.514
					c-0.442-0.13,4.907,4.332,10.238,11.959c5.47,7.585,10.923,18.335,13.906,29.813c3.123,11.435,3.777,23.598,2.865,33.038
					c-0.773,9.398-3.112,16.073-2.757,15.563"/>
				<path style="fill:none;stroke:#3D7D82;stroke-width:0.8504;stroke-miterlimit:10;" d="M122.359,250.108
					c-0.195,4.063-0.656,8.047-1.359,11.931"/>
				<path style="fill:none;stroke:#3D7D82;stroke-width:0.8504;stroke-miterlimit:10;" d="M123.021,265.034
					c-5.097-1.137-10.203-1.918-15.267-2.356"/>
				<path style="fill:none;stroke:#3D7D82;stroke-width:0.8504;stroke-miterlimit:10;" d="M129.066,258.293
					c-0.808,4.065-1.839,8.041-3.075,11.912"/>
				<path style="fill:none;stroke:#3D7D82;stroke-width:0.8504;stroke-miterlimit:10;" d="M127.963,273.741
					c-6.062-1.271-12.136-2.059-18.144-2.384"/>
				<path style="fill:none;stroke:#3D7D82;stroke-width:0.8504;stroke-miterlimit:10;" d="M137.657,266.119
					c-1.883,4.952-4.094,9.7-6.59,14.214"/>
				<path style="fill:none;stroke:#3D7D82;stroke-width:0.8504;stroke-miterlimit:10;" d="M132.337,284.306
					c-5.087-1.34-10.208-2.334-15.316-2.992"/>
				<path style="fill:#3D7D82;" d="M118.748,258.565c0.404-0.026-7.427-18.217-14.287-13.72
					C98.209,248.918,118.898,258.18,118.748,258.565z"/>
				<path style="fill:#3D7D82;" d="M117.349,263.654c0.065-0.244-15.197-7.331-18.772-0.586
					C94.721,269.386,117.216,263.399,117.349,263.654z"/>
				<path style="fill:#3D7D82;" d="M121.575,258.581c0.167,0.145,8.787-16.301,1.187-17.769
					C115.825,239.676,119.772,255.311,121.575,258.581z"/>
				<path style="fill:#3D7D82;" d="M122.667,272.684c0.088-0.357-17.842-8.754-21.828-1.991
					C96.591,276.838,120.571,273.707,122.667,272.684z"/>
				<path style="fill:#3D7D82;" d="M127.032,266.465c0.041,0.098,13.066-13.931,4.052-16.878
					C122.82,247.108,127.407,266.517,127.032,266.465z"/>
				<path style="fill:#3D7D82;" d="M127.45,283.595c0.135-0.378-16.758-11.083-20.731-4.112
					C102.512,285.841,127.363,283.288,127.45,283.595z"/>
				<path style="fill:#3D7D82;" d="M132.322,277.946c0.099,0.228,18.456-15.967,8.714-20.914
					C132.023,252.878,131.387,271.775,132.322,277.946z"/>
				<path style="fill:none;stroke:#3D7D82;stroke-width:0.8504;stroke-miterlimit:10;" d="M142.867,280.016
					c-2.174,5.103-4.717,9.952-7.566,14.513"/>
				<path style="fill:none;stroke:#3D7D82;stroke-width:0.8504;stroke-miterlimit:10;" d="M136.297,299.401
					c-5.045-3.965-10.39-7.32-15.905-10.066"/>
				<path style="fill:none;stroke:#3D7D82;stroke-width:0.8504;stroke-miterlimit:10;" d="M147.496,293.83
					c-3.155,4.7-6.586,9.117-10.241,13.227"/>
				<path style="fill:none;stroke:#3D7D82;stroke-width:0.8504;stroke-miterlimit:10;" d="M137.837,314.878
					c-5.724-4.95-11.912-9.062-18.358-12.33"/>
				<path style="fill:none;stroke:#3D7D82;stroke-width:0.8504;stroke-miterlimit:10;" d="M151.987,309.462
					c-4.507,6.032-9.455,11.562-14.722,16.539"/>
				<path style="fill:none;stroke:#3D7D82;stroke-width:0.8504;stroke-miterlimit:10;" d="M136.598,332.272
					c-4.309-4.857-9.048-9.115-14.087-12.76"/>
				<path style="fill:#3D7D82;" d="M130.85,295.21c0.279-0.392-14.101-16.037-20.6-8.769
					C103.648,292.854,130.812,294.733,130.85,295.21z"/>
				<path style="fill:#3D7D82;" d="M137.574,290.503c0.143,0.316,17.488-15.93,9.751-21.923
					C140.313,263.458,137.45,285.291,137.574,290.503z"/>
				<path style="fill:#3D7D82;" d="M132.69,310.588c0.442-0.581-15.366-20.168-22.749-12.97
					C102.675,303.604,129.97,310.815,132.69,310.588z"/>
				<path style="fill:#3D7D82;" d="M140.82,303.056c-0.037,0.192,21.615-9.069,13.694-18.899
					C147.242,275.608,141.375,303.358,140.82,303.056z"/>
				<path style="fill:#3D7D82;" d="M132.951,328.694c0.611-0.601-11.419-24.139-19.474-16.603
					C105.677,318.388,133.083,328.108,132.951,328.694z"/>
				<path style="fill:#3D7D82;" d="M139.615,324.028c-0.025,0.452,28.242-12.654,19.841-24.846
					C151.552,288.767,142.212,314.781,139.615,324.028z"/>
			</g>
			<path style="fill:#8BAF64;" d="M162.805,402.92l-33.477,18.775c0,0-58.358-45.89-54.667-59.382
				c3.691-13.491,50.946,41.798,50.946,41.798s-49.994-59.428-42.699-69.23c7.295-9.802,51.922,64.691,51.922,64.691
				s-41.342-71.311-32.304-78.918s41.02,75.298,41.02,75.298s-30.494-74.31-17.073-78.664c13.421-4.354,22.912,75.39,22.912,75.39
				s-12.682-64.292,1.919-62.382c14.242,1.862,4.461,60.073,4.461,60.073s1.505-45.341,15.518-40.402
				C186.674,355.391,162.805,402.92,162.805,402.92z"/>
			<g>
				<path style="fill:#3D7D82;" d="M338.347,419.269c0,0-3.161-39.831,18.335-51.211c6.955,19.599-7.587,46.153-7.587,46.153
					s8.851-37.934,34.773-41.728c4.426,22.128-27.818,45.521-27.818,45.521s19.599-33.508,39.198-28.451
					c0.632,16.438-35.405,37.302-35.405,37.302L338.347,419.269z"/>
				<path style="fill:none;stroke:#5A9095;stroke-width:0.8504;stroke-miterlimit:10;" d="M395.248,389.554
					c0,0-23.603,16.649-36.88,32.876"/>
				<path style="fill:none;stroke:#5A9095;stroke-width:0.8504;stroke-miterlimit:10;" d="M383.868,372.484
					c0,0-23.814,26.765-30.979,46.575"/>
				<path style="fill:none;stroke:#5A9095;stroke-width:0.8504;stroke-miterlimit:10;" d="M356.682,368.058
					c0,0-10.959,29.293-10.959,47.418"/>
				
					<line style="fill:none;stroke:#5A9095;stroke-width:0.8504;stroke-miterlimit:10;" x1="362.583" y1="386.182" x2="365.112" y2="395.876"/>
				
					<line style="fill:none;stroke:#5A9095;stroke-width:0.8504;stroke-miterlimit:10;" x1="372.488" y1="386.814" x2="381.972" y2="386.393"/>
				<path style="fill:none;stroke:#5A9095;stroke-width:0.8504;stroke-miterlimit:10;" d="M379.443,392.294
					c0,0-14.331,10.537-23.182,29.926"/>
				
					<line style="fill:none;stroke:#5A9095;stroke-width:0.8504;stroke-miterlimit:10;" x1="373.542" y1="398.195" x2="375.228" y2="404.938"/>
				
					<line style="fill:none;stroke:#5A9095;stroke-width:0.8504;stroke-miterlimit:10;" x1="381.339" y1="400.934" x2="389.98" y2="401.988"/>
				
					<line style="fill:none;stroke:#5A9095;stroke-width:0.8504;stroke-miterlimit:10;" x1="371.013" y1="409.364" x2="378.178" y2="413.579"/>
				
					<line style="fill:none;stroke:#5A9095;stroke-width:0.8504;stroke-miterlimit:10;" x1="349.306" y1="392.504" x2="357.314" y2="390.186"/>
				
					<line style="fill:none;stroke:#5A9095;stroke-width:0.8504;stroke-miterlimit:10;" x1="345.934" y1="378.806" x2="350.781" y2="384.496"/>
				
					<line style="fill:none;stroke:#5A9095;stroke-width:0.8504;stroke-miterlimit:10;" x1="352.889" y1="379.649" x2="358.157" y2="378.174"/>
			</g>
			<path style="fill:#E8794C;" d="M156.497,430.509H399.22c0,0-12.793-17.586-30.879-8.793
				c-18.086,8.793-20.184-24.083-47.464-13.591c-27.28,10.492-41.969-45.467-83.239-29.379c-41.27,16.088-46.32,25.407-62.331,17.25
				C159.295,387.84,134.813,404.628,156.497,430.509z"/>
			<g>
				<path style="fill:none;stroke:#E8794C;stroke-width:0.8504;stroke-miterlimit:10;" d="M49.766,274.713
					c0,0,65.115,63.516,57.063,131.264"/>
				<path style="fill:#EF946B;" d="M105.249,367.498c0,0-10.281,0.91-30.27-14.146C54.99,338.295,72.999,376.414,105.249,367.498z"
					/>
				<path style="fill:#EF946B;" d="M100.257,353.154c0,0-9.706,0.185-27.026-15.081C55.912,322.807,69.251,359.362,100.257,353.154z
					"/>
				<path style="fill:#EF946B;" d="M93.897,338.328c0,0-8.068,0.028-22.174-12.857C57.616,312.585,68.02,343.076,93.897,338.328z"/>
				<path style="fill:#EF946B;" d="M85.713,320.975c0,0-6.945,0.746-20.75-9.22C51.159,301.788,64.036,327.427,85.713,320.975z"/>
				<path style="fill:#EF946B;" d="M76.21,306.535c0,0-6.502,1.031-20.193-7.78C42.326,289.943,56.19,313.667,76.21,306.535z"/>
				<path style="fill:#EF946B;" d="M67.779,295.414c0,0-5.721,0.726-17.35-7.31C38.8,280.067,50.014,301.095,67.779,295.414z"/>
				<path style="fill:#EF946B;" d="M104.131,367.616c0,0,7.161-2.752,10.556-22.686
					C118.081,324.995,130.388,364.236,104.131,367.616z"/>
				<path style="fill:#EF946B;" d="M99.218,353.548c0,0,6.058-3.529,6.108-22.828C105.377,311.421,122.447,346.957,99.218,353.548z"
					/>
				<path style="fill:#EF946B;" d="M93.684,338.01c0,0,4.528-3.459,2.291-19.525C93.739,302.42,111.863,330.525,93.684,338.01z"/>
				<path style="fill:#EF946B;" d="M84.251,321.095c0,0,4.464-2.418,4.351-16.093C88.488,291.327,101.422,316.741,84.251,321.095z"
					/>
				<path style="fill:#EF946B;" d="M75.02,306.721c0,0,4.441-2.006,5.17-14.737C80.919,279.252,91.799,303.609,75.02,306.721z"/>
				<path style="fill:#EF946B;" d="M66.605,294.883c0,0,3.765-1.906,3.952-13.147C70.743,270.495,80.986,291.62,66.605,294.883z"/>
				<path style="fill:#EF946B;" d="M61.097,287.125c0,0-7.172-17.253-15.407-15.838C37.455,272.703,61.097,287.125,61.097,287.125z"
					/>
			</g>
			<path style="fill:#3D7D82;" d="M104.035,440.146h168.577c0,0-10.492-21.684-28.679-12.591
				c-18.187,9.093-30.777-28.679-59.457-13.99c-28.679,14.689-39.871-35.674-81.84-32.876
				C60.667,383.487,72.558,438.747,104.035,440.146z"/>
			<path style="fill:#F7DFB5;" d="M160.35,442.647c0,0-2.087-16.677-13.777-22.382c-1.253,11.849-1.253,14.044-1.253,14.044
				s-2.505-11.41-9.185-14.921c-8.767,7.461-2.505,16.677-2.505,16.677s-5.845-11.41-13.36-11.41
				c-5.01,8.777,3.757,18.871,3.757,18.871S159.097,442.647,160.35,442.647z"/>
			<path style="fill:#8BAF64;" d="M381.5,435.949c0,0,4.197-19.119,20.052-24.249c2.798,8.394,0.933,13.99,0.933,13.99
				s7.928-13.523,16.321-15.389c1.865,10.259-2.798,18.187-2.798,18.187s9.326-13.057,15.855-13.523
				c3.731,11.658-7.461,20.985-7.461,20.985S382.2,435.25,381.5,435.949z"/>
		</g>
	</g>
</g>
<g id="OBJECTS">
	<g>
		<g>
			<path style="fill:#4F3E3A;" d="M165.513,392.344v-286.15c0-5.352,4.338-9.69,9.69-9.69h81.346c5.352,0,9.69,4.338,9.69,9.69
				v286.149c0,5.352-4.339,9.69-9.69,9.69h-81.345C169.851,402.034,165.513,397.695,165.513,392.344z"/>
			<path style="fill:#230E09;" d="M175.307,392.344v-286.15c0-5.352,4.338-9.69,9.69-9.69h81.346c5.352,0,9.69,4.338,9.69,9.69
				v286.149c0,5.352-4.339,9.69-9.69,9.69h-81.345C179.645,402.034,175.307,397.695,175.307,392.344z"/>
			<path style="fill:#FFFFFF;" d="M232.262,119.547L232.262,119.547c0,6.206-2.952,11.236-6.593,11.236h0
				c-3.641,0-6.593-5.031-6.593-11.236l0,0c0-5.163-2.456-9.348-5.485-9.348l-32.416,0.065v278.009h88.987V110.265l-32.416-0.065
				C234.718,110.2,232.262,114.385,232.262,119.547z"/>
			<path style="opacity:0.5;fill:#A8CFEC;" d="M268.218,110.265v278.009h1.945V110.265H268.218z"/>
			<path style="fill:#655653;" d="M228.896,119.165c0,3.169-1.507,5.738-3.367,5.738c-1.859,0-3.367-2.569-3.367-5.738
				c0-3.169,1.507-5.738,3.367-5.738C227.389,113.427,228.896,115.996,228.896,119.165z"/>
			<path style="fill:#230E09;" d="M170.494,238.693L170.494,238.693c-0.877,0-1.588-0.711-1.588-1.588v-75.517
				c0-0.877,0.711-1.588,1.588-1.588l0,0c0.877,0,1.588,0.711,1.588,1.588v75.517C172.082,237.982,171.371,238.693,170.494,238.693z
				"/>
			<path style="fill:#230E09;" d="M170.494,148.925L170.494,148.925c-0.877,0-1.588-0.711-1.588-1.588v-20.724
				c0-0.877,0.711-1.588,1.588-1.588l0,0c0.877,0,1.588,0.711,1.588,1.588v20.724C172.082,148.214,171.371,148.925,170.494,148.925z
				"/>
		</g>
		<g>
			<defs>
				<rect id="SVGID_1_" x="181.176" y="110.265" width="216.994" height="352.155"/>
			</defs>
			<clipPath id="SVGID_00000042711229268369850570000015027943736957941152_">
				<use xlink:href="#SVGID_1_"  style="overflow:visible;"/>
			</clipPath>
			<g style="opacity:0.4;clip-path:url(#SVGID_00000042711229268369850570000015027943736957941152_);">
				
					<line style="fill:none;stroke:#FFFFFF;stroke-width:0.8504;stroke-miterlimit:10;" x1="352.777" y1="183.064" x2="352.777" y2="188.5"/>
				
					<line style="fill:none;stroke:#FFFFFF;stroke-width:0.8504;stroke-miterlimit:10;" x1="352.777" y1="215.779" x2="352.777" y2="220.218"/>
				
					<line style="fill:none;stroke:#FFFFFF;stroke-width:0.8504;stroke-miterlimit:10;" x1="346.616" y1="184.963" x2="347.919" y2="188.544"/>
				
					<line style="fill:none;stroke:#FFFFFF;stroke-width:0.8504;stroke-miterlimit:10;" x1="357.355" y1="214.469" x2="359.217" y2="219.585"/>
				
					<line style="fill:none;stroke:#FFFFFF;stroke-width:0.8504;stroke-miterlimit:10;" x1="340.739" y1="187.544" x2="344.106" y2="191.558"/>
				
					<line style="fill:none;stroke:#FFFFFF;stroke-width:0.8504;stroke-miterlimit:10;" x1="361.496" y1="212.282" x2="364.766" y2="216.178"/>
				
					<line style="fill:none;stroke:#FFFFFF;stroke-width:0.8504;stroke-miterlimit:10;" x1="337.118" y1="192.85" x2="340.535" y2="194.823"/>
				
					<line style="fill:none;stroke:#FFFFFF;stroke-width:0.8504;stroke-miterlimit:10;" x1="334.68" y1="199.2" x2="339.899" y2="199.668"/>
				
					<line style="fill:none;stroke:#FFFFFF;stroke-width:0.8504;stroke-miterlimit:10;" x1="335.858" y1="205.515" x2="339.672" y2="204.501"/>
				
					<line style="fill:none;stroke:#FFFFFF;stroke-width:0.8504;stroke-miterlimit:10;" x1="365.92" y1="199.573" x2="371.361" y2="198.614"/>
				
					<line style="fill:none;stroke:#FFFFFF;stroke-width:0.8504;stroke-miterlimit:10;" x1="337.043" y1="210.974" x2="340.61" y2="208.915"/>
				
					<line style="fill:none;stroke:#FFFFFF;stroke-width:0.8504;stroke-miterlimit:10;" x1="364.554" y1="195.091" x2="368.9" y2="192.582"/>
				
					<line style="fill:none;stroke:#FFFFFF;stroke-width:0.8504;stroke-miterlimit:10;" x1="340.824" y1="216.136" x2="344.021" y2="212.325"/>
				
					<line style="fill:none;stroke:#FFFFFF;stroke-width:0.8504;stroke-miterlimit:10;" x1="361.394" y1="191.621" x2="364.868" y2="187.48"/>
				
					<line style="fill:none;stroke:#FFFFFF;stroke-width:0.8504;stroke-miterlimit:10;" x1="346.516" y1="219.092" x2="348.019" y2="214.962"/>
				
					<line style="fill:none;stroke:#FFFFFF;stroke-width:0.8504;stroke-miterlimit:10;" x1="357.527" y1="188.84" x2="359.046" y2="184.667"/>
			</g>
			<g style="opacity:0.4;clip-path:url(#SVGID_00000042711229268369850570000015027943736957941152_);">
				
					<line style="fill:none;stroke:#999999;stroke-width:0.8504;stroke-miterlimit:10;" x1="196.908" y1="195.135" x2="198.999" y2="200.978"/>
				
					<line style="fill:none;stroke:#999999;stroke-width:0.8504;stroke-miterlimit:10;" x1="209.493" y1="230.306" x2="211.201" y2="235.079"/>
				
					<line style="fill:none;stroke:#999999;stroke-width:0.8504;stroke-miterlimit:10;" x1="191.015" y1="199.546" x2="193.793" y2="202.894"/>
				
					<line style="fill:none;stroke:#999999;stroke-width:0.8504;stroke-miterlimit:10;" x1="213.911" y1="227.136" x2="217.881" y2="231.921"/>
				
					<line style="fill:none;stroke:#999999;stroke-width:0.8504;stroke-miterlimit:10;" x1="185.689" y1="204.581" x2="190.854" y2="207.601"/>
				
					<line style="fill:none;stroke:#999999;stroke-width:0.8504;stroke-miterlimit:10;" x1="217.522" y1="223.192" x2="222.536" y2="226.123"/>
				
					<line style="fill:none;stroke:#999999;stroke-width:0.8504;stroke-miterlimit:10;" x1="183.837" y1="211.678" x2="188.271" y2="212.485"/>
				
					<line style="fill:none;stroke:#999999;stroke-width:0.8504;stroke-miterlimit:10;" x1="217.389" y1="207.827" x2="222.869" y2="204.702"/>
				
					<line style="fill:none;stroke:#999999;stroke-width:0.8504;stroke-miterlimit:10;" x1="190.73" y1="231.193" x2="193.772" y2="227.607"/>
				
					<line style="fill:none;stroke:#999999;stroke-width:0.8504;stroke-miterlimit:10;" x1="214.196" y1="203.534" x2="217.903" y2="199.164"/>
				
					<line style="fill:none;stroke:#999999;stroke-width:0.8504;stroke-miterlimit:10;" x1="196.779" y1="235.287" x2="198.751" y2="229.96"/>
				
					<line style="fill:none;stroke:#999999;stroke-width:0.8504;stroke-miterlimit:10;" x1="209.464" y1="201.019" x2="211.606" y2="195.231"/>
				
					<line style="fill:none;stroke:#999999;stroke-width:0.8504;stroke-miterlimit:10;" x1="204.036" y1="236.276" x2="204.064" y2="231.258"/>
				
					<line style="fill:none;stroke:#999999;stroke-width:0.8504;stroke-miterlimit:10;" x1="204.237" y1="199.517" x2="204.264" y2="194.446"/>
			</g>
			<g style="clip-path:url(#SVGID_00000042711229268369850570000015027943736957941152_);">
				<path style="fill:#A22C08;" d="M343.663,156.473c-2.681-8.178-8.544-12.46-12.82-11.579c-4.275,0.88-4.545-3.988-10.377-1.973
					c-5.832,2.015-6.366-1.172-10.259,1.665c-3.893,2.837-6.687,6.363-5.674,9.797c1.012,3.434-3.543,7.201-1.238,11.182
					c2.305,3.982-0.861,9.557,1.47,10.401c5.973,2.161,3.803,5.423,10.123,4.691C321.208,179.925,350.701,166.541,343.663,156.473z"
					/>
				<path style="fill:#FFC9A1;" d="M340.393,222.268l10.609,14.02l30.828-21.558l6.93,4.982c0,0-27.99,37.356-40.283,36.855
					c-12.293-0.501-29.794-28.078-29.794-28.078L340.393,222.268z"/>
				<path style="fill:#FFC9A1;" d="M381.83,214.729c0,0-1.535-4.851,1.35-8.725c2.885-3.874,6.899-2.115,6.899-2.115
					s2.783-2.828,4.241-1.445c1.032,0.979,0.209,2.457,0.209,2.457s2.097-0.5,1.873,2.218c1.73,0.318,1.72,2.005,1.284,2.751
					c1.465,1.098,1.163,2.147-0.146,3.471c-1.309,1.324-7.187,7.826-10.285,6.525C383.513,218.296,381.83,214.729,381.83,214.729z"
					/>
				<path style="fill:none;stroke:#A22C08;stroke-width:0.8504;stroke-miterlimit:10;" d="M390.078,203.889
					c2.428,1.438,5.002,5.733,3.539,6.989c-1.462,1.256-4.282-2.149-4.282-2.149s0.604,5.682-3.714,5.336"/>
				<path style="fill:none;stroke:#A22C08;stroke-width:0.8504;stroke-miterlimit:10;" d="M394.528,204.901
					c0,0-1.452,1.793-1.629,1.946"/>
				<path style="fill:none;stroke:#A22C08;stroke-width:0.8504;stroke-miterlimit:10;" d="M396.401,207.119
					c0,0-1.477,2.073-2.387,2.537"/>
				<path style="fill:none;stroke:#A22C08;stroke-width:0.8504;stroke-miterlimit:10;" d="M397.685,209.87
					c-1.971,2.869-5.239,3.708-4.852,1.344"/>
				<path style="fill:none;stroke:#A22C08;stroke-width:0.8504;stroke-miterlimit:10;" d="M397.824,213.129
					c-2.468,2.406-4.965,1.259-3.432-0.607"/>
				<path style="fill:#E8794C;" d="M310.515,197.611c5.186-10.292,29.832,16.757,36.3,28.202c-5.613,12-18.662,20.328-18.662,20.328
					S301.803,214.902,310.515,197.611z"/>
				<g>
					<path style="fill:#E8794C;" d="M173.655,300.546c0,0-6.428-5.011-9.303-10.349c-2.874-5.338-6.219-6.563-6.219-6.563
						s-12.16,6.878-19.8,16.03c-7.172,8.591-5.118,11.369-5.118,11.369s6.421,5.773,12.688,0.519
						c6.266-5.254,8.536-6.952,16.43-1.237C166.425,308.745,173.655,300.546,173.655,300.546z"/>
					<path style="fill:#FFFFFF;" d="M158.134,283.633c0,0,1.597,0.587,3.533,2.71c-4.581,2.601-15.205,9.117-20.074,16.119
						c3.38,3.37,4.023,6.964,3.982,9.347c-6.16,4.787-12.358-0.777-12.358-0.777s-2.054-2.778,5.118-11.369
						C145.974,290.511,158.134,283.633,158.134,283.633z"/>
					<path style="fill:#FFC9A1;" d="M162.334,310.313c-2.348-1.699-4.196-2.739-5.802-3.228c0.408-1.025,0.137-2.327-1.145-3.898
						c-2.438-2.989,5.218-9.752,10.576-10.475c3.155,4.296,7.692,7.833,7.692,7.833S166.425,308.745,162.334,310.313z"/>
				</g>
				<path style="fill:#5F95A6;" d="M287.642,281.246c0,0-43.496,76.885-71.578,75.586c-28.081-1.299-57.595-43.137-57.595-43.137
					l13.769-17.975l42.526,25.76c0,0,16.273-42.643,35.047-52.022C268.584,260.079,287.642,281.246,287.642,281.246z"/>
				<g>
					<path style="fill:#E8794C;" d="M256.811,430.474c0,0-1.072,8.08-4.223,13.259c-3.152,5.179-2.517,8.684-2.517,8.684
						s12.084,7.011,23.842,8.974c11.038,1.842,12.396-1.334,12.396-1.334s1.732-8.459-5.969-11.208
						c-7.701-2.749-10.314-3.848-9.377-13.548C267.541,432.565,256.811,430.474,256.811,430.474z"/>
					<path style="fill:#FFFFFF;" d="M250.071,452.417c0,0-0.301-1.675,0.551-4.418c4.561,2.636,15.555,8.506,24.058,9.165
						c1.198-4.62,3.973-6.992,6.049-8.162c7.245,2.893,5.58,11.054,5.58,11.054s-1.358,3.177-12.396,1.334
						C262.154,459.428,250.071,452.417,250.071,452.417z"/>
					<path style="fill:#FFFFFF;" d="M274.854,444.301"/>
					<path style="fill:#FFC9A1;" d="M270.963,435.301c-0.279,2.885-0.241,5.005,0.149,6.638c-1.09,0.167-2.077,1.059-2.784,2.958
						c-1.345,3.616-11.052,0.431-14.385-3.826c2.111-4.895,2.867-10.597,2.867-10.597S267.541,432.565,270.963,435.301z"/>
				</g>
				<path style="fill:#5F95A6;" d="M285.18,277.914c0,0,13.657,46.052,10.476,68.738c-3.181,22.687-18.878,92.692-18.878,92.692
					s-18.386-2.933-25.22-6.636c0.987-23.928,7.34-66.373,8.142-78.641c0.934-14.294-42.258-52.786-17.003-94.047
					C265.898,271.718,285.18,277.914,285.18,277.914z"/>
				<path style="fill:#E8794C;" d="M290.996,282.95c0,0-47.942-2.987-49.734-24.235c15.324-43.021,30.114-82.428,46.242-81.495
					c16.128,0.932,38.291,28.104,41.27,34.426s-19.256,34.053-26.205,42.282S290.996,282.95,290.996,282.95z"/>
				<path style="fill:#FFC9A1;" d="M261.205,192.597l-17.406-2.48l-6.701,37.016l-8.428,1.344c0,0-6.44-46.232,2.64-54.535
					c9.08-8.302,40.927-1.051,40.927-1.051L261.205,192.597z"/>
				<path style="fill:#FFC9A1;" d="M237.098,227.133c0,0,4.507,2.363,5.187,7.144c0.68,4.782-3.408,6.361-3.408,6.361
					s0.016,3.968-1.993,4.013c-1.422,0.032-1.879-1.597-1.879-1.597s-1.136,1.831-2.892-0.256c-1.452,0.992-2.633-0.212-2.849-1.049
					c-1.813,0.252-2.337-0.705-2.341-2.567c-0.003-1.862-0.41-10.617,2.706-11.876C233.391,225.787,237.098,227.133,237.098,227.133
					z"/>
				
					<line style="fill:none;stroke:#A22C08;stroke-width:0.8504;stroke-miterlimit:10;" x1="239.748" y1="236.379" x2="238.877" y2="240.638"/>
				
					<line style="fill:none;stroke:#A22C08;stroke-width:0.8504;stroke-miterlimit:10;" x1="235.202" y1="240.894" x2="235.005" y2="243.054"/>
				
					<line style="fill:none;stroke:#A22C08;stroke-width:0.8504;stroke-miterlimit:10;" x1="232.678" y1="240.928" x2="232.114" y2="242.798"/>
				
					<line style="fill:none;stroke:#A22C08;stroke-width:0.8504;stroke-miterlimit:10;" x1="229.649" y1="240.018" x2="229.265" y2="241.749"/>
				<path style="fill:#FFC9A1;" d="M340.699,162.486c0.951,8.314-3.026,10.226-0.575,14.096c1.822,2.877-2.332,3.271-2.332,3.271
					s-1.402,9.488-5.06,10.671c-3.658,1.183-18.135-1.943-22.411-19.893C306.044,152.682,339.04,147.981,340.699,162.486z"/>
				<path style="fill:#230E09;" d="M334.448,172.209c-0.138,0.882,0.067,1.647,0.459,1.709c0.392,0.061,0.822-0.604,0.961-1.486
					c0.138-0.882-0.067-1.648-0.459-1.709C335.017,170.662,334.587,171.327,334.448,172.209z"/>
				<path style="fill:none;stroke:#A22C08;stroke-width:0.8504;stroke-miterlimit:10;" d="M332.429,180.539
					c0,0,2.207,2.23,3.922,1.184"/>
				<path style="fill:none;stroke:#A22C08;stroke-width:0.8504;stroke-miterlimit:10;" d="M337.054,166.781
					c0,0-2.036,0.226-3.063,0.974"/>
				<path style="fill:#E8794C;" d="M299.78,189.058c-0.378,14.888-32.979,9.115-45.632,5.546
					c-4.467-12.472-1.068-27.574-1.068-27.574S300.272,169.702,299.78,189.058z"/>
				<path style="fill:#A22C08;" d="M325.068,162.086c0,0,1.292,4.167-0.287,5.643c-1.579,1.476-1.269,6.179-1.269,6.179
					s-2.658-2.141-3.831-6.117c-2.695,0.956-3.819,9.312-3.819,9.312s-6.815,1.071-7.337-8.609
					c-0.26-4.823,8.313-15.973,14.328-17.098c6.015-1.124,12.614-2.157,18.383,3.057c5.769,5.215,1.224,9.845-4.942,5.257
					c-0.615,2.489-5.083,3.77-6.593,0.517C330.234,162.553,326.384,164.189,325.068,162.086z"/>
				<path style="fill:#FFC9A1;" d="M326.248,186.88l-8.409,14.556c-4.745,6.407-20.665-5.782-15.242-14.474
					c10.304-11.602,14.413-13.839,14.413-13.839L326.248,186.88z"/>
				<path style="fill:#FFC9A1;" d="M319.755,168.086c-3.241-7.299-6.702,2.038-5.114,7.016c1.588,4.978,4.689,1.124,4.689,1.124"/>
				<path style="fill:none;stroke:#A22C08;stroke-width:0.8504;stroke-miterlimit:10;" d="M325.179,189.77
					c-3.835-1.378-8.282-5.437-8.94-8.384"/>
				<path style="fill:none;stroke:#701E05;stroke-width:0.8504;stroke-miterlimit:10;" d="M333.239,155.44
					c0,0,0.229,3.483-2.835,2.141c-3.064-1.343-4.544-2.351-5.113-0.372"/>
				<path style="fill:none;stroke:#701E05;stroke-width:0.8504;stroke-miterlimit:10;" d="M328.593,152.642
					c0,0-5.269-2.12-6.564,0.09"/>
				<path style="fill:none;stroke:#701E05;stroke-width:0.8504;stroke-miterlimit:10;" d="M321.062,155.597
					c0,0,0.778,3.828-2.156,4.402"/>
				<path style="fill:none;stroke:#701E05;stroke-width:0.8504;stroke-miterlimit:10;" d="M317.611,157.814
					c0,0-4.917,1.124-3.573,4.093"/>
				<path style="fill:none;stroke:#701E05;stroke-width:0.8504;stroke-miterlimit:10;" d="M336.422,151.63
					c-1.303-1.583-3.071-3.498-5.146-2.359"/>
				<path style="fill:none;stroke:#701E05;stroke-width:0.8504;stroke-miterlimit:10;" d="M327.035,147.743
					c0,0-2.871-3.122-5.472-1.376"/>
				<path style="fill:none;stroke:#701E05;stroke-width:0.8504;stroke-miterlimit:10;" d="M341.088,156.499
					c0,0-2.438,1.255-4.188-0.226"/>
				<path style="fill:none;stroke:#701E05;stroke-width:0.8504;stroke-miterlimit:10;" d="M335.53,153.472
					c0,0-2.782-2.591-4.468-1.736"/>
				<path style="fill:none;stroke:#701E05;stroke-width:0.8504;stroke-miterlimit:10;" d="M319.937,150.68c0,0-2.068-1.1-3.19,1.654
					"/>
				<path style="fill:none;stroke:#701E05;stroke-width:0.8504;stroke-miterlimit:10;" d="M311.807,156.903
					c0,0-4.805,2.607-3.032,5.04"/>
				<path style="fill:none;stroke:#701E05;stroke-width:0.8504;stroke-miterlimit:10;" d="M313.116,160.577
					c0,0-2.812,1.995-1.766,4.429"/>
				<path style="fill:none;stroke:#701E05;stroke-width:0.8504;stroke-miterlimit:10;" d="M309.425,165.492
					c-0.04,0.252-2.741,3.19-1.66,5.083"/>
				<path style="fill:none;stroke:#701E05;stroke-width:0.8504;stroke-miterlimit:10;" d="M320.355,162.295
					c0,0,1.189,2.858,0.034,3.625"/>
				<path style="fill:none;stroke:#701E05;stroke-width:0.8504;stroke-miterlimit:10;" d="M313.242,153.249
					c0,0-2.847-0.533-3.071,0.897"/>
				<path style="fill:none;stroke:#701E05;stroke-width:0.8504;stroke-miterlimit:10;" d="M310.446,149.105
					c0,0-2.283,1.365-2.812,3.092"/>
				<path style="fill:none;stroke:#3D7D82;stroke-width:0.8504;stroke-miterlimit:10;" d="M235.227,283.007
					c0,0-1.626,16.143,15.828,51.842"/>
				<path style="fill:none;stroke:#3D7D82;stroke-width:0.8504;stroke-miterlimit:10;" d="M260.355,278.476
					c0,0,7.05,40.446,13.453,54.518c6.403,14.072-9.145,86.583-9.145,86.583"/>
				
					<line style="fill:none;stroke:#3D7D82;stroke-width:0.8504;stroke-miterlimit:10;" x1="252.144" y1="416.286" x2="279.727" y2="422.746"/>
				
					<line style="fill:none;stroke:#3D7D82;stroke-width:0.8504;stroke-miterlimit:10;" x1="186.685" y1="304.685" x2="167.401" y2="325.672"/>
				<path style="fill:none;stroke:#3D7D82;stroke-width:0.8504;stroke-miterlimit:10;" d="M264.178,295.895
					c0,0,15.701,0.445,11.161-13.909"/>
				
					<line style="fill:none;stroke:#C44A28;stroke-width:0.8504;stroke-miterlimit:10;" x1="351.657" y1="235.271" x2="344.773" y2="240.124"/>
				
					<line style="fill:none;stroke:#C44A28;stroke-width:0.8504;stroke-miterlimit:10;" x1="243.799" y1="190.117" x2="244.525" y2="185.033"/>
				<path style="fill:none;stroke:#A22C08;stroke-width:0.8504;stroke-miterlimit:10;" d="M319.029,175.963
					c-2.55,2.257-4.145,0.965-4.825-2.187"/>
				<path style="fill:none;stroke:#EF8E64;stroke-width:0.8504;stroke-miterlimit:10;" d="M271.605,169.105
					c0,0-1.009,11.977,4.381,15.035c5.39,3.058,9.136,3.936,9.483,10.124c0.347,6.188,5.685,17.137,11.633,17.812
					c5.948,0.675,13.1,2.35,14.867,7.074c1.767,4.725,19.416,10.655,26.331-3.531"/>
				<path style="fill:none;stroke:#EF8E64;stroke-width:0.8504;stroke-miterlimit:10;" d="M290.637,176.796
					c0,0-1.445,16.904,4.988,21.644c6.433,4.74,9.526,13.007,20.162,15.139c10.636,2.132,17.738-5.185,17.738-5.185"/>
				<path style="fill:none;stroke:#EF8E64;stroke-width:0.8504;stroke-miterlimit:10;" d="M264.555,168.531
					c0,0-6.35,17.91,4.329,22.926c10.679,5.016-1.706,16.483,10.458,24.362s28.546,8.482,35.029,22.214"/>
				<path style="fill:none;stroke:#EF8E64;stroke-width:0.8504;stroke-miterlimit:10;" d="M321.819,236.903
					c0,0,13.689-9.366,19.861-5.047"/>
				<path style="fill:none;stroke:#EF8E64;stroke-width:0.8504;stroke-miterlimit:10;" d="M261.091,209.388
					c0,0,1.752,9.391,11.207,11.964c9.455,2.574,15.186,5.712,17.996,12.118c2.81,6.406,12.75,13.044,18.336,12.198"/>
				<path style="fill:none;stroke:#EF8E64;stroke-width:0.8504;stroke-miterlimit:10;" d="M255.789,222.826
					c4.556,9.688,15.729,7.995,20.321,14.459c4.593,6.464,22.988,7.54,27.102,16.047"/>
				<path style="fill:none;stroke:#EF8E64;stroke-width:0.8504;stroke-miterlimit:10;" d="M250.113,234.788
					c5.179,11.63,18.83,5.488,25.69,16.075c6.86,10.587,17.916,12.458,22.38,10.271"/>
				<path style="fill:none;stroke:#EF8E64;stroke-width:0.8504;stroke-miterlimit:10;" d="M245.705,246.341
					c0,0,4.571,5.022,17.852,8.133c13.281,3.111,15.655,14.443,30.516,15.41"/>
				<path style="fill:none;stroke:#EF8E64;stroke-width:0.8504;stroke-miterlimit:10;" d="M243.55,252.472
					c0,0,0.969,8.13,17.634,10.596c16.664,2.466,16.75,8.234,31.372,10.222"/>
				
					<line style="fill:none;stroke:#C44A28;stroke-width:0.8504;stroke-miterlimit:10;" x1="266.426" y1="197.347" x2="284.974" y2="200.973"/>
				
					<line style="fill:none;stroke:#C44A28;stroke-width:0.8504;stroke-miterlimit:10;" x1="326.249" y1="221.058" x2="316.392" y2="237.069"/>
				<path style="fill:none;stroke:#C44A28;stroke-width:0.8504;stroke-miterlimit:10;" d="M258.846,166.835
					c0,0-3.025,19.048,0.85,28.577"/>
				<path style="fill:none;stroke:#C44A28;stroke-width:0.8504;stroke-miterlimit:10;" d="M343.131,221.061
					c0,0-9.596,16.431-18.023,20.205"/>
				<path style="fill:none;stroke:#C44A28;stroke-width:0.8504;stroke-miterlimit:10;" d="M302.36,183.493
					c-7.4,10.121-0.482,18.925,4.568,21.904c5.05,2.979,12.6,2.951,16.796-5.765"/>
				<path style="fill:none;stroke:#C44A28;stroke-width:0.8504;stroke-miterlimit:10;" d="M241.847,254.743
					c0,0,2.482,18.542,49.809,23.521"/>
				<path style="fill:none;stroke:#7DB8E2;stroke-width:1.7008;stroke-miterlimit:10;" d="M222.35,218.622
					c-0.835,1.275-2.546,1.632-3.821,0.797l-3.714-2.432"/>
				<path style="fill:none;stroke:#61ACE2;stroke-width:1.7008;stroke-miterlimit:10;" d="M224.372,220.742
					c-0.47,1.354-1.949,2.07-3.302,1.6c-1.354-0.47-2.07-1.949-1.6-3.302c0.47-1.354,1.949-2.07,3.302-1.6
					C224.126,217.91,224.842,219.388,224.372,220.742z"/>
				<path style="fill:none;stroke:#61ACE2;stroke-width:1.7008;stroke-miterlimit:10;" d="M213.36,215.781l-5.41-2.639
					c-0.978-0.477-1.384-1.657-0.907-2.635"/>
				
					<rect x="224.178" y="218.906" transform="matrix(0.9763 0.2163 -0.2163 0.9763 53.5778 -45.0438)" style="fill:#61ACE2;" width="16.727" height="6.615"/>
				<path style="fill:none;stroke:#61ACE2;stroke-width:1.7008;stroke-miterlimit:10;" d="M215.995,214.874L215.995,214.874
					c-0.477,0.978-1.657,1.384-2.635,0.907"/>
				<path style="fill:none;stroke:#61ACE2;stroke-width:1.7008;stroke-miterlimit:10;" d="M207.044,210.506L207.044,210.506
					c0.477-0.978,1.657-1.384,2.635-0.907"/>
				<path style="fill:none;stroke:#7DB8E2;stroke-width:1.7008;stroke-miterlimit:10;" d="M214.814,216.988
					c-1.275-0.835-1.632-2.546-0.797-3.822l0,0c0.835-1.275,2.546-1.632,3.821-0.797l3.714,2.432
					c1.275,0.835,1.632,2.546,0.797,3.821l0,0"/>
				<path style="fill:none;stroke:#61ACE2;stroke-width:1.7008;stroke-miterlimit:10;" d="M209.679,209.599l5.41,2.639
					c0.978,0.477,1.384,1.657,0.907,2.635"/>
				<path style="fill:none;stroke:#61ACE2;stroke-width:1.7008;stroke-linecap:round;stroke-miterlimit:10;" d="M211.234,219.506
					c0.103,0.775,0.794,3.705-0.654,3.672"/>
				<path style="fill:none;stroke:#61ACE2;stroke-width:1.7008;stroke-linecap:round;stroke-miterlimit:10;" d="M205.234,204.896
					c-0.732-0.659-0.126-1.785,0.765-1.773c0.969,0.013,2.086,1.249,2.524,2.002"/>
				<path style="fill:none;stroke:#61ACE2;stroke-width:1.7008;stroke-linecap:round;stroke-miterlimit:10;" d="M205.741,216.199
					c-0.579,0.333-1.312,0.299-1.938,0.066c-0.892-0.331-1.744-1.005-2.505-1.57"/>
				<path style="fill:none;stroke:#7DB8E2;stroke-width:1.7008;stroke-miterlimit:10;" d="M163.129,206.066
					c0.857-1.261,2.574-1.587,3.835-0.73l3.671,2.497"/>
				<path style="fill:none;stroke:#61ACE2;stroke-width:1.7008;stroke-miterlimit:10;" d="M172.068,209.065l5.362,2.734
					c0.969,0.494,1.355,1.681,0.86,2.65"/>
				<path style="fill:none;stroke:#7DB8E2;stroke-width:1.7008;stroke-miterlimit:10;" d="M189.135,217.039L189.135,217.039
					c0-1.524,1.236-2.76,2.761-2.76l4.439,0.001c1.525,0,2.76,1.236,2.76,2.761l0,0c0,1.525-1.236,2.76-2.761,2.76"/>
				<path style="fill:none;stroke:#61ACE2;stroke-width:1.7008;stroke-miterlimit:10;" d="M191.545,215.735
					c0.742,0.152,1.22,0.877,1.068,1.619l0,0c-0.152,0.742-0.877,1.221-1.619,1.068l-7.07-1.449
					c-0.742-0.152-1.22-0.877-1.068-1.619l0,0"/>
				<path style="fill:none;stroke:#7DB8E2;stroke-width:1.7008;stroke-miterlimit:10;" d="M179.27,211.583l4.203,1.43
					c1.443,0.491,2.215,2.059,1.724,3.502l0,0c-0.491,1.443-2.059,2.215-3.502,1.724l-4.203-1.43
					c-1.443-0.491-2.215-2.059-1.724-3.502l0,0C176.259,211.863,177.827,211.092,179.27,211.583z"/>
				<path style="fill:none;stroke:#61ACE2;stroke-width:1.7008;stroke-miterlimit:10;" d="M169.417,209.926L169.417,209.926
					c0.494-0.969,1.681-1.355,2.651-0.86"/>
				<path style="fill:none;stroke:#61ACE2;stroke-width:1.7008;stroke-miterlimit:10;" d="M178.29,214.45L178.29,214.45
					c-0.494,0.969-1.681,1.355-2.65,0.86"/>
				<path style="fill:none;stroke:#7DB8E2;stroke-width:1.7008;stroke-miterlimit:10;" d="M170.635,207.833
					c1.26,0.857,1.587,2.574,0.73,3.835l0,0c-0.857,1.26-2.574,1.587-3.835,0.73l-3.671-2.497c-1.26-0.857-1.587-2.574-0.73-3.835
					l0,0"/>
				<path style="fill:none;stroke:#61ACE2;stroke-width:1.7008;stroke-miterlimit:10;" d="M175.64,215.31l-5.362-2.734
					c-0.969-0.494-1.355-1.681-0.86-2.65"/>
				<path style="fill:none;stroke:#61ACE2;stroke-width:1.7008;stroke-miterlimit:10;" d="M182.856,215.354
					c0.152-0.742,0.877-1.22,1.619-1.068l7.07,1.449"/>
				<path style="fill:none;stroke:#7DB8E2;stroke-width:1.7008;stroke-miterlimit:10;" d="M196.335,219.8l-4.439-0.001
					c-1.524,0-2.76-1.236-2.76-2.761"/>
				<path style="fill:none;stroke:#7DB8E2;stroke-width:1.7008;stroke-linecap:round;stroke-miterlimit:10;" d="M206.661,220.109
					L206.661,220.109c0.541,0.971,0.192,2.196-0.779,2.737l-2.828,1.574c-0.971,0.541-2.196,0.192-2.737-0.779l0,0
					c-0.541-0.971-0.192-2.197,0.779-2.737"/>
				<path style="fill:none;stroke:#7DB8E2;stroke-width:1.7008;stroke-linecap:round;stroke-miterlimit:10;" d="M196.848,209.342
					l2.827-1.574c0.971-0.541,2.196-0.192,2.737,0.779"/>
				
					<line style="fill:none;stroke:#2693E1;stroke-width:0.8504;stroke-miterlimit:10;" x1="225.035" y1="217.403" x2="223.58" y2="223.614"/>
				<g>
					<path style="fill:none;stroke:#7DB8E2;stroke-width:1.7008;stroke-miterlimit:10;" d="M372.678,213.748
						c-0.911,1.223-2.64,1.475-3.863,0.565l-3.56-2.652"/>
					<path style="fill:none;stroke:#61ACE2;stroke-width:1.7008;stroke-miterlimit:10;" d="M373.686,216.416
						c-1.158,0.844-2.781,0.59-3.625-0.567c-0.844-1.158-0.591-2.781,0.567-3.625c1.158-0.844,2.781-0.59,3.625,0.567
						C375.098,213.949,374.844,215.572,373.686,216.416z"/>
					<path style="fill:none;stroke:#61ACE2;stroke-width:1.7008;stroke-miterlimit:10;" d="M363.877,210.367l-5.24-2.962
						c-0.947-0.535-1.281-1.738-0.746-2.685"/>
					
						<rect x="371.198" y="218.973" transform="matrix(0.679 0.7341 -0.7341 0.679 285.0257 -207.2988)" style="fill:#61ACE2;" width="16.727" height="6.615"/>
					<path style="fill:none;stroke:#61ACE2;stroke-width:1.7008;stroke-miterlimit:10;" d="M366.562,209.622L366.562,209.622
						c-0.536,0.947-1.738,1.281-2.685,0.746"/>
					<path style="fill:none;stroke:#61ACE2;stroke-width:1.7008;stroke-miterlimit:10;" d="M357.891,204.721L357.891,204.721
						c0.535-0.947,1.738-1.281,2.685-0.746"/>
					<path style="fill:none;stroke:#7DB8E2;stroke-width:1.7008;stroke-miterlimit:10;" d="M365.256,211.66
						c-1.223-0.911-1.475-2.64-0.565-3.863l0,0c0.911-1.223,2.64-1.476,3.863-0.565l3.56,2.652c1.223,0.911,1.475,2.64,0.565,3.863
						l0,0"/>
					<path style="fill:none;stroke:#61ACE2;stroke-width:1.7008;stroke-miterlimit:10;" d="M360.576,203.975l5.24,2.962
						c0.947,0.536,1.281,1.738,0.746,2.685"/>
					<path style="fill:none;stroke:#61ACE2;stroke-width:1.7008;stroke-linecap:round;stroke-miterlimit:10;" d="M357.223,199.908
						c-0.271,0.733-1.029,3.646-2.294,2.941"/>
					<path style="fill:none;stroke:#61ACE2;stroke-width:1.7008;stroke-linecap:round;stroke-miterlimit:10;" d="M355.175,193.966
						c-0.34-0.924,0.723-1.637,1.505-1.21c0.851,0.464,1.26,2.079,1.296,2.949"/>
					<path style="fill:none;stroke:#61ACE2;stroke-width:1.7008;stroke-linecap:round;stroke-miterlimit:10;" d="M352.859,211.762
						c-0.667,0.024-1.3-0.349-1.744-0.847c-0.634-0.709-1.072-1.704-1.482-2.559"/>
					<path style="fill:none;stroke:#7DB8E2;stroke-width:1.7008;stroke-linecap:round;stroke-miterlimit:10;" d="M351.293,202.895
						L351.293,202.895c0.025,1.111-0.856,2.032-1.967,2.056l-3.236,0.071c-1.111,0.024-2.032-0.856-2.056-1.967l0,0
						c-0.024-1.111,0.856-2.032,1.968-2.056"/>
					<path style="fill:none;stroke:#7DB8E2;stroke-width:1.7008;stroke-linecap:round;stroke-miterlimit:10;" d="M347.18,195.387
						l3.236-0.071c1.111-0.025,2.032,0.856,2.056,1.967"/>
					
						<line style="fill:none;stroke:#2693E1;stroke-width:0.8504;stroke-miterlimit:10;" x1="376.134" y1="214.05" x2="371.399" y2="218.325"/>
				</g>
			</g>
		</g>
		<g>
			<path style="fill:#230E09;" d="M381.123,260.337v21.102c0,4.822,3.909,8.732,8.732,8.732h38.566c4.823,0,8.732-3.909,8.732-8.732
				v-21.102c0-4.823-3.909-8.732-8.732-8.732h-38.566C385.032,251.605,381.123,255.514,381.123,260.337z M399.333,282.209v-22.642
				l19.609,11.321L399.333,282.209z"/>
			<g>
				
					<ellipse transform="matrix(0.1582 -0.9874 0.9874 0.1582 76.9399 632.0234)" style="fill:none;stroke:#CD4234;stroke-width:4.252;stroke-miterlimit:10;" cx="409.138" cy="270.888" rx="40.48" ry="40.48"/>
				
					<line style="fill:none;stroke:#CD4234;stroke-width:4.252;stroke-miterlimit:10;" x1="380.06" y1="299.966" x2="438.216" y2="241.81"/>
			</g>
		</g>
		<g>
			<path style="fill:#230E09;" d="M117.871,173.651v-11.662c0-7.072-4.517-13.074-10.817-15.322
				c0.166-0.535,0.255-1.104,0.255-1.694c0-3.16-2.561-5.721-5.721-5.721s-5.721,2.561-5.721,5.721c0,0.59,0.09,1.158,0.255,1.694
				c-6.3,2.248-10.817,8.25-10.817,15.322v11.662c0,4.253-3.448,7.701-7.701,7.701h0v4.254h47.967v-4.254
				C121.319,181.352,117.871,177.904,117.871,173.651z M101.589,196.168c4.375,0,7.921-3.546,7.921-7.921H93.668
				C93.668,192.621,97.214,196.168,101.589,196.168z"/>
			<g>
				
					<ellipse transform="matrix(0.7071 -0.7071 0.7071 0.7071 -88.8343 120.9556)" style="fill:none;stroke:#CD4234;stroke-width:4.252;stroke-miterlimit:10;" cx="101.589" cy="167.71" rx="40.48" ry="40.48"/>
				
					<line style="fill:none;stroke:#CD4234;stroke-width:4.252;stroke-miterlimit:10;" x1="72.511" y1="196.788" x2="130.667" y2="138.632"/>
			</g>
		</g>
		<g>
			<g>
				<g>
					<path style="fill:#230E09;" d="M389.549,75.973c-11.148,0-21.249,4.56-28.543,11.91l4.062,4.062
						c6.253-6.309,14.917-10.225,24.481-10.225c9.563,0,18.228,3.915,24.481,10.225l4.062-4.062
						C410.798,80.534,400.697,75.973,389.549,75.973z M369.13,96.008l4.065,4.065c4.172-4.228,9.959-6.857,16.354-6.857
						c6.394,0,12.182,2.629,16.354,6.857l4.065-4.065c-5.212-5.268-12.44-8.539-20.419-8.539
						C381.57,87.468,374.342,90.739,369.13,96.008z M377.257,104.135l4.058,4.058c2.088-2.145,5.003-3.482,8.233-3.482
						c3.23,0,6.145,1.337,8.233,3.482l4.058-4.058c-3.131-3.187-7.482-5.171-12.292-5.171
						C384.739,98.964,380.388,100.948,377.257,104.135z M389.549,110.459c-1.641,0-3.113,0.7-4.162,1.806
						c-0.977,1.031-1.586,2.413-1.586,3.941c0,3.169,2.578,5.747,5.747,5.747s5.748-2.578,5.748-5.747
						c0-1.528-0.609-2.911-1.586-3.941C392.662,111.158,391.189,110.459,389.549,110.459z"/>
				</g>
			</g>
			<g>
				
					<ellipse transform="matrix(0.7071 -0.7071 0.7071 0.7071 44.1184 304.4384)" style="fill:none;stroke:#CD4234;stroke-width:4.252;stroke-miterlimit:10;" cx="389.549" cy="98.964" rx="40.48" ry="40.48"/>
				
					<line style="fill:none;stroke:#CD4234;stroke-width:4.252;stroke-miterlimit:10;" x1="360.471" y1="128.042" x2="418.627" y2="69.885"/>
			</g>
		</g>
	</g>
</g>
</svg>
