<svg width="227" height="200" viewBox="0 0 227 200" fill="none" xmlns="http://www.w3.org/2000/svg">
<g clip-path="url(#clip0_2199_11134)">
<path d="M145.782 180.589L145.225 172.845C141.576 171.022 137.538 170.116 133.46 170.207C139.197 174.64 138.738 183.5 142.711 189.564C143.964 191.445 145.626 193.021 147.571 194.174C149.517 195.326 151.697 196.026 153.95 196.222L158.725 198.968C159.271 195.359 159.028 191.675 158.013 188.17C156.998 184.664 155.234 181.42 152.844 178.661C151.488 177.127 149.944 175.769 148.248 174.621C147.204 177.616 145.782 180.589 145.782 180.589Z" fill="#F2F2F2"/>
<path d="M117.341 200.001H226.65C226.742 200.001 226.832 199.964 226.897 199.898C226.963 199.833 227 199.744 227 199.651C227 199.558 226.963 199.469 226.897 199.403C226.832 199.338 226.742 199.301 226.65 199.301H117.341C117.248 199.301 117.159 199.338 117.094 199.403C117.028 199.469 116.991 199.558 116.991 199.651C116.991 199.744 117.028 199.833 117.094 199.898C117.159 199.964 117.248 200.001 117.341 200.001Z" fill="#CCCCCC"/>
<path d="M47.7465 116.435V116.584H47.851C47.8131 116.537 47.7783 116.487 47.7465 116.435ZM48.5505 52.9038C41.2541 62.3893 37.3045 74.0227 37.3184 85.9881C37.32 87.8103 37.4093 89.6067 37.5863 91.3773C37.6136 91.6815 37.6453 91.9857 37.6863 92.2854C38.7001 101.091 41.8649 109.512 46.9018 116.807C47.0969 117.093 47.2967 117.374 47.4968 117.656C49.6651 120.695 52.1406 123.503 54.8839 126.035C76.9693 146.421 111.405 145.05 131.798 122.972C132.112 122.641 132.412 122.305 132.707 121.969C141.054 112.519 145.856 100.463 146.291 87.864C146.726 75.2649 142.767 62.9065 135.091 52.9038C134.86 52.5996 134.624 52.2954 134.378 51.9957C133.841 51.3193 133.284 50.6564 132.707 50.0071C132.412 49.6712 132.112 49.3352 131.798 49.0038C126.707 43.4833 120.525 39.0782 113.644 36.0665C106.763 33.0547 99.3325 31.5019 91.8209 31.5059C91.2986 31.5059 90.7808 31.515 90.263 31.5286C89.9177 31.5376 89.5726 31.5513 89.2275 31.5694C81.4959 31.9363 73.9316 33.9482 67.0399 37.4706C60.1482 40.9931 54.0878 45.9451 49.2634 51.9957C49.0181 52.2954 48.7822 52.5996 48.5505 52.9038ZM47.851 116.584C47.8131 116.537 47.7783 116.487 47.7465 116.435V116.584H47.851Z" fill="white"/>
<path d="M47.3646 115.875L47.519 115.562L59.0826 92.2841V92.2796L59.5324 91.3761V91.3716L78.6353 52.9026V52.898L79.0851 51.9945L79.0895 51.99L88.7638 32.4989L89.2271 31.5682C89.5723 31.5501 89.9175 31.5364 90.2626 31.5273L89.8039 32.4535L80.1026 51.99V51.9945L79.6528 52.898V52.9026L60.05 92.3749L60.0456 92.3795L48.4819 115.675L48.0277 116.583L47.955 116.733L47.4964 117.655C47.2963 117.373 47.0965 117.092 46.9014 116.806L47.3646 115.875Z" fill="#3F3D56"/>
<path d="M59.8549 91.377V92.285H37.6859C37.6449 91.9853 37.6132 91.6811 37.5859 91.377H59.8549Z" fill="#3F3D56"/>
<path d="M94.3066 98.4608V97.5527H116.476C116.517 97.8524 116.548 98.1566 116.576 98.4608H94.3066Z" fill="#3F3D56"/>
<path d="M112.849 95.2969H113.758V117.458C113.458 117.499 113.153 117.53 112.849 117.558V95.2969Z" fill="#3F3D56"/>
<path d="M135.091 52.9039C134.859 52.5997 134.624 52.2955 134.378 51.9959H132.707V50.0073C132.412 49.6713 132.112 49.3354 131.798 49.0039V51.9959H49.2633C49.018 52.2955 48.782 52.5997 48.5503 52.9039H131.798V122.973C132.112 122.641 132.412 122.305 132.707 121.969V52.9039H135.091Z" fill="#3F3D56"/>
<path d="M132.252 115.676H47.7451V116.584H132.252V115.676Z" fill="#3F3D56"/>
<path d="M47.7465 116.435V116.584H47.851C47.8131 116.537 47.7783 116.487 47.7465 116.435ZM48.5505 52.9038C41.2541 62.3893 37.3045 74.0227 37.3184 85.9881C37.32 87.8103 37.4093 89.6067 37.5863 91.3773C37.6136 91.6815 37.6453 91.9857 37.6863 92.2854C38.7001 101.091 41.8649 109.512 46.9018 116.807C47.0969 117.093 47.2967 117.374 47.4968 117.656C49.6651 120.695 52.1406 123.503 54.8839 126.035C76.9693 146.421 111.405 145.05 131.798 122.972C132.112 122.641 132.412 122.305 132.707 121.969C141.054 112.519 145.856 100.463 146.291 87.864C146.726 75.2649 142.767 62.9065 135.091 52.9038C134.86 52.5996 134.624 52.2954 134.378 51.9957C133.841 51.3193 133.284 50.6564 132.707 50.0071C132.412 49.6712 132.112 49.3352 131.798 49.0038C126.707 43.4833 120.525 39.0782 113.644 36.0665C106.763 33.0547 99.3325 31.5019 91.8209 31.5059C91.2986 31.5059 90.7808 31.515 90.263 31.5286C89.9177 31.5376 89.5726 31.5513 89.2275 31.5694C81.4959 31.9363 73.9316 33.9482 67.0399 37.4706C60.1482 40.9931 54.0878 45.9451 49.2634 51.9957C49.0181 52.2954 48.7822 52.5996 48.5505 52.9038ZM38.5991 92.2854C38.5583 91.9857 38.5266 91.6815 38.4947 91.3773C37.1102 77.5875 41.1247 63.7978 49.695 52.9038C49.9356 52.5996 50.1765 52.2954 50.4262 51.9957C55.1202 46.2723 60.951 41.5846 67.55 38.2289C74.1489 34.8732 81.3726 32.9225 88.7642 32.5001C89.1093 32.482 89.4546 32.4638 89.8043 32.4547C90.4719 32.4275 91.144 32.4139 91.8209 32.4139C99.3739 32.4094 106.842 34.0054 113.733 37.0967C120.624 40.1879 126.781 44.7041 131.798 50.3476C132.112 50.6927 132.416 51.0377 132.707 51.3919C132.884 51.5916 133.052 51.7914 133.216 51.9957C133.465 52.2954 133.706 52.5996 133.947 52.9038C141.583 62.5959 145.632 74.6298 145.406 86.9652C145.18 99.3006 140.693 111.178 132.707 120.584C132.416 120.938 132.112 121.284 131.798 121.629C129.033 124.734 125.915 127.507 122.507 129.892C98.2856 146.838 64.9076 140.947 47.9554 116.734C47.919 116.684 47.8827 116.634 47.851 116.584C47.8131 116.537 47.7783 116.487 47.7465 116.435C47.6149 116.248 47.4877 116.062 47.365 115.876C42.5942 108.828 39.5878 100.738 38.5991 92.2854ZM47.851 116.584C47.8131 116.537 47.7783 116.487 47.7465 116.435V116.584H47.851Z" fill="#CCCCCC"/>
<path d="M154.592 144.507H100.216C99.5509 144.506 98.9135 144.241 98.4433 143.772C97.9732 143.302 97.7088 142.664 97.708 142V115.515C97.7088 114.85 97.9732 114.213 98.4433 113.743C98.9135 113.273 99.5509 113.009 100.216 113.008H154.592C155.257 113.009 155.894 113.273 156.364 113.743C156.834 114.213 157.099 114.85 157.099 115.515V142C157.099 142.664 156.834 143.302 156.364 143.772C155.894 144.241 155.257 144.506 154.592 144.507Z" fill="#CACACA"/>
<path d="M130.64 142.375C118.731 142.375 106.314 142.261 101.681 142.187C101.071 142.175 100.491 141.924 100.063 141.49C99.6356 141.055 99.3949 140.471 99.3926 139.861V115.516C99.3928 115.298 99.4795 115.088 99.6337 114.934C99.7879 114.779 99.997 114.692 100.215 114.691H154.59C154.808 114.692 155.017 114.778 155.172 114.932C155.326 115.087 155.414 115.296 155.415 115.514V132.032C155.404 134.728 154.337 137.313 152.443 139.232C150.548 141.151 147.976 142.251 145.279 142.297C140.961 142.353 135.848 142.375 130.64 142.375Z" fill="#E4E4E4"/>
<path d="M148.978 129.911H104.735C104.448 129.91 104.168 129.822 103.934 129.656C103.699 129.491 103.521 129.257 103.425 128.987L98.4171 114.944C98.3424 114.734 98.3191 114.51 98.3492 114.289C98.3793 114.069 98.4619 113.859 98.59 113.677C98.7182 113.495 98.8882 113.346 99.0857 113.244C99.2832 113.141 99.5025 113.087 99.7251 113.087L155.03 113.01H155.032C155.262 113.01 155.489 113.067 155.691 113.176C155.894 113.285 156.066 113.443 156.193 113.635C156.32 113.827 156.397 114.047 156.417 114.276C156.437 114.505 156.401 114.736 156.31 114.948L150.256 129.068C150.149 129.318 149.971 129.532 149.744 129.682C149.516 129.831 149.25 129.911 148.978 129.911Z" fill="#CACACA"/>
<path d="M117.558 139.644H102.302C101.927 139.644 101.567 139.494 101.301 139.229C101.036 138.963 100.887 138.603 100.887 138.227C100.887 137.852 101.036 137.492 101.301 137.226C101.567 136.961 101.927 136.811 102.302 136.811H117.558C117.934 136.811 118.294 136.961 118.559 137.226C118.825 137.492 118.974 137.852 118.974 138.227C118.974 138.603 118.825 138.963 118.559 139.229C118.294 139.494 117.934 139.644 117.558 139.644Z" fill="#CACACA"/>
<path d="M127.321 133.374C129.234 133.374 130.785 131.823 130.785 129.91C130.785 127.998 129.234 126.447 127.321 126.447C125.408 126.447 123.856 127.998 123.856 129.91C123.856 131.823 125.408 133.374 127.321 133.374Z" fill="#3F3D56"/>
<path d="M17.5134 7.16193C26.026 1.16923 36.5715 -1.19763 46.83 0.582018C57.0884 2.36167 66.2194 8.14206 72.2144 16.6516C84.6982 34.3717 97.2247 80.8383 88.3822 107.757C62.0073 79.9079 21.4875 77.0141 8.0202 61.8426C-6.37009 45.6313 -0.213344 19.6411 17.5134 7.16193Z" fill="#2669E8"/>
<path d="M40.6509 47.2863C47.7219 47.2863 53.4541 41.5563 53.4541 34.4879C53.4541 27.4195 47.7219 21.6895 40.6509 21.6895C33.5798 21.6895 27.8477 27.4195 27.8477 34.4879C27.8477 41.5563 33.5798 47.2863 40.6509 47.2863Z" fill="white"/>
<path d="M99.2052 121.695C103.837 121.695 107.591 117.942 107.591 113.312C107.591 108.683 103.837 104.93 99.2052 104.93C94.5738 104.93 90.8193 108.683 90.8193 113.312C90.8193 117.942 94.5738 121.695 99.2052 121.695Z" fill="#2669E8"/>
<path opacity="0.2" d="M26.9532 31.5356C26.1055 32.987 25.552 34.5911 25.3244 36.2563C25.0968 37.9215 25.1995 39.6152 25.6268 41.2407C26.054 42.8662 26.7973 44.3917 27.8143 45.7301C28.8313 47.0684 30.102 48.1935 31.5539 49.0409C33.0059 49.8883 34.6106 50.4416 36.2764 50.6691C37.9422 50.8966 39.6366 50.7939 41.2627 50.3669C42.8888 49.9398 44.4149 49.1968 45.7537 48.1801C47.0926 47.1635 48.218 45.8933 49.0658 44.4419C46.7805 46.446 43.8563 47.5716 40.8166 47.6174C37.7769 47.6632 34.8201 46.6262 32.4754 44.6918C30.1307 42.7575 28.5512 40.0522 28.0196 37.0601C27.488 34.068 28.0389 30.9845 29.5739 28.3613C28.5347 29.2712 27.6497 30.3431 26.9532 31.5356Z" fill="#231F20"/>
<path opacity="0.2" d="M7.99601 61.9025C21.4633 77.074 61.9831 79.9678 88.358 107.817C89.1812 105.27 89.8149 102.665 90.2538 100.025C63.892 74.7079 25.628 71.5084 12.6161 56.85C0.970241 43.7305 2.7831 24.2074 13.2933 10.623C-1.1213 23.98 -5.19131 47.0464 7.99601 61.9025Z" fill="#231F20"/>
<path d="M175.393 115.505L169.956 113.85C167.589 116.702 165.627 124.965 165.627 124.965L158.185 137.053C157.787 137.242 157.446 137.533 157.195 137.895C156.945 138.258 156.795 138.681 156.76 139.12C156.725 139.559 156.806 140 156.996 140.398C157.185 140.796 157.476 141.136 157.839 141.386C158.203 141.636 158.625 141.785 159.065 141.82C159.504 141.854 159.945 141.773 160.343 141.583C160.741 141.393 161.081 141.101 161.331 140.738C161.58 140.375 161.729 139.952 161.763 139.513L173.025 125.845L175.393 115.505Z" fill="#FFB6B6"/>
<path d="M175.289 116.826L176.294 108.598L174.041 104.838C173.596 104.101 172.954 103.504 172.188 103.113C171.421 102.722 170.56 102.553 169.702 102.626C168.54 102.732 167.462 103.275 166.686 104.145C165.909 105.016 165.492 106.149 165.519 107.315C165.603 110.851 166.161 115.323 168.335 116.545L168.358 116.557L175.289 116.826Z" fill="#2669E8"/>
<path d="M190.648 191.169L187.388 192.742L179.766 180.92L184.578 178.598L190.648 191.169Z" fill="#FFB6B6"/>
<path d="M192.405 194.514L182.379 199.352L182.318 199.225C181.818 198.191 181.75 197 182.129 195.916C182.507 194.831 183.301 193.941 184.336 193.441L185.497 191.169L189.585 190.909L190.46 190.486L192.405 194.514Z" fill="#2F2E41"/>
<path d="M166.379 195.575L162.759 195.575L161.036 181.615L166.38 181.616L166.379 195.575Z" fill="#FFB6B6"/>
<path d="M166.506 199.351L155.373 199.351V199.21C155.373 198.061 155.83 196.959 156.642 196.147C157.455 195.335 158.557 194.878 159.706 194.878H159.707L161.74 193.336L165.535 194.878L166.507 194.878L166.506 199.351Z" fill="#2F2E41"/>
<path d="M162.791 130.834L158.642 159.433L159.771 163.196L158.29 165.861L160.465 185.92L159.582 187.864L162.05 189.385H167.071L167.337 168.196L168.578 165.085V163.37L171.102 150.449L171.685 170.563L172.491 172.118C175.494 178.928 179.538 181.157 182.398 186.248L187.419 183.529L187.314 181.501C188.323 180.991 185.799 179.499 185.557 178.395L185.118 176.418L182.189 170.353L182.077 168.217L182.879 153.689L182.501 134.126L175.915 129.092L162.791 130.834Z" fill="#2F2E41"/>
<path d="M169.31 96.1458C172.913 96.1458 175.833 93.2262 175.833 89.6247C175.833 86.0231 172.913 83.1035 169.31 83.1035C165.707 83.1035 162.786 86.0231 162.786 89.6247C162.786 93.2262 165.707 96.1458 169.31 96.1458Z" fill="#FFB6B6"/>
<path d="M159.67 143.171L159.575 143.137L160.838 139.035C160.672 138.507 160.641 137.945 160.746 137.401C160.851 136.858 161.09 136.349 161.441 135.92C161.236 135.567 160.395 133.898 161.766 132.48C161.684 132.067 161.271 129.62 162.71 128.424C162.71 128.424 165.502 107.273 167.068 101.686C167.113 101.277 166.746 97.9399 168.853 97.809C169.963 97.7401 171.63 97.6346 174.132 97.4734C174.455 97.4502 174.644 97.9957 174.931 98.8836C175.125 99.4842 174.126 100.305 174.368 100.291L174.385 100.29L174.402 100.295C176.735 100.92 178.782 102.33 180.199 104.286C181.615 106.243 182.314 108.628 182.179 111.039L181.435 123.677C181.547 124.185 183.916 138.598 183.297 140.145C182.946 141.022 183.545 141.569 183.982 141.968C184.207 142.174 184.37 142.322 184.347 142.485C184.338 142.53 184.318 142.571 184.288 142.606C184.259 142.641 184.221 142.668 184.178 142.684C183.783 142.882 184.001 144.238 184.232 145.046L184.256 145.128L184.179 145.168C184.091 145.213 177.012 141.967 168.412 141.967C165.17 141.967 163.297 144.435 159.67 143.171Z" fill="#2669E8"/>
<path d="M174.479 93.6341C174.412 93.5993 174.352 93.5506 174.304 93.4912C174.256 93.4317 174.222 93.363 174.202 93.2893L174.109 92.9107L174.395 93.2085C174.548 93.0819 174.665 92.9173 174.734 92.7311C174.803 92.545 174.822 92.3439 174.788 92.1483C174.755 91.9526 174.67 91.7693 174.543 91.6167C174.416 91.4641 174.251 91.3478 174.065 91.2793C173.939 91.2373 173.81 91.206 173.679 91.1856C173.542 91.1636 173.407 91.1311 173.275 91.0881C172.966 90.9547 172.7 90.7394 172.505 90.4655C172.31 90.1916 172.194 89.8697 172.169 89.5345C172.126 88.9434 172.192 88.3496 172.362 87.7821C169.484 88.2241 166.549 88.1359 163.702 87.5218C163.263 87.4293 162.843 87.2641 162.459 87.0331C161.756 86.6164 161.17 86.0277 160.758 85.3225C160.703 85.2274 160.681 85.1173 160.693 85.0084C160.706 84.8995 160.753 84.7975 160.828 84.7172C160.88 84.6612 160.942 84.6165 161.012 84.5857C161.082 84.5549 161.158 84.5388 161.234 84.5383L161.13 84.2563C161.097 84.1682 161.089 84.0731 161.105 83.9806C161.121 83.8881 161.162 83.8015 161.222 83.7297C161.283 83.6579 161.361 83.6035 161.45 83.5719C161.538 83.5403 161.634 83.5328 161.726 83.55L162.095 83.619L162.06 83.3738C162.046 83.2824 162.057 83.1891 162.091 83.1032C162.125 83.0173 162.18 82.9416 162.252 82.8837C162.324 82.8258 162.41 82.7877 162.501 82.7731C162.593 82.7585 162.686 82.768 162.773 82.8005C162.852 82.8303 162.937 82.8425 163.021 82.8364C163.105 82.8303 163.187 82.806 163.262 82.7652C163.336 82.7243 163.4 82.6679 163.45 82.5997C163.5 82.5316 163.535 82.4534 163.552 82.3706L163.679 81.7542L163.692 81.7215C164.317 80.6813 165.517 79.9251 166.985 79.6468C168.293 79.3989 169.63 79.5241 170.923 79.6452C171.471 79.6563 172.009 79.7923 172.497 80.0427C172.718 80.17 172.899 80.3561 173.02 80.5803C173.141 80.8045 173.198 81.058 173.183 81.3124C174.456 80.9212 175.822 81.7006 176.497 82.6827C177.3 83.8506 177.43 85.3159 177.453 86.4619C177.508 89.1707 176.95 91.3871 175.794 93.0494C175.628 93.3315 175.378 93.5542 175.078 93.6855C175.002 93.7111 174.922 93.724 174.841 93.7237C174.715 93.7243 174.591 93.6935 174.479 93.6341Z" fill="#2F2E41"/>
<path d="M174.714 119.309L169.926 116.248C166.876 118.356 162.756 125.783 162.756 125.783L152.327 135.415C151.892 135.489 151.485 135.677 151.146 135.959C150.807 136.24 150.549 136.607 150.396 137.02C150.244 137.434 150.203 137.88 150.278 138.314C150.353 138.748 150.542 139.155 150.824 139.494C151.106 139.832 151.473 140.09 151.887 140.242C152.3 140.394 152.747 140.434 153.181 140.358C153.616 140.283 154.022 140.094 154.361 139.811C154.699 139.529 154.956 139.162 155.108 138.748L169.643 128.627L174.714 119.309Z" fill="#FFB6B6"/>
<path d="M174.257 120.551L177.446 112.9L176.293 108.672C176.063 107.843 175.606 107.094 174.974 106.511C174.341 105.928 173.558 105.533 172.712 105.371C171.565 105.16 170.38 105.392 169.397 106.02C168.414 106.649 167.707 107.627 167.418 108.757C166.544 112.185 165.874 116.641 167.638 118.405L167.656 118.423L174.257 120.551Z" fill="#2669E8"/>
</g>
<defs>
<clipPath id="clip0_2199_11134">
<rect width="227" height="200" fill="white"/>
</clipPath>
</defs>
</svg>
