<svg width="73" height="72" viewBox="0 0 73 72" fill="none" xmlns="http://www.w3.org/2000/svg">
<rect x="0.400391" width="72" height="72" rx="14.4" fill="#EBF2FF"/>
<path d="M34.8735 26.4688H26.6807C26.0598 26.4688 25.4644 26.7146 25.0255 27.1522C24.5865 27.5898 24.3398 28.1832 24.3398 28.8021V45.1354C24.3398 45.7543 24.5865 46.3477 25.0255 46.7853C25.4644 47.2229 26.0598 47.4687 26.6807 47.4687H43.0663C43.6872 47.4687 44.2826 47.2229 44.7215 46.7853C45.1605 46.3477 45.4072 45.7543 45.4072 45.1354V36.9687" stroke="#6691E3" stroke-width="2" stroke-linecap="round" stroke-linejoin="round"/>
<path d="M43.6525 24.7171C44.1182 24.2529 44.7497 23.9922 45.4082 23.9922C46.0666 23.9922 46.6981 24.2529 47.1638 24.7171C47.6294 25.1812 47.891 25.8107 47.891 26.4671C47.891 27.1234 47.6294 27.7529 47.1638 28.2171L36.0449 39.3004L31.3633 40.4671L32.5337 35.8004L43.6525 24.7171Z" stroke="#6691E3" stroke-width="2" stroke-linecap="round" stroke-linejoin="round"/>
</svg>
