<svg width="29" height="29" viewBox="0 0 29 29" fill="none" xmlns="http://www.w3.org/2000/svg">
<circle cx="14.1514" cy="14.5312" r="13.5" stroke="#666666"/>
<path d="M21.1258 10.3294C21.1004 10.2836 21.0588 10.2504 21.0101 10.2365L19.6459 9.85476L19.841 9.65095L19.9005 9.71302C19.9748 9.7907 20.0956 9.7907 20.1702 9.71302L20.4833 9.38606C20.5576 9.30838 20.5576 9.18224 20.4833 9.10424L19.2655 7.83255C19.1912 7.75488 19.0704 7.75488 18.9957 7.83255L18.6827 8.15952C18.6084 8.23719 18.6084 8.36333 18.6827 8.44134L18.7422 8.50341L18.3662 8.89644C18.0001 8.83436 17.6264 8.94523 17.3477 9.20282C17.3455 9.20482 17.3433 9.20714 17.3411 9.20946L11.3694 7.53812C11.2677 7.50957 11.1632 7.57264 11.1358 7.67886L10.3659 10.68L9.99702 10.9757C9.89184 10.9757 9.80636 11.065 9.80636 11.1749L9.60351 13.6516L8.15794 19.289C8.13061 19.3952 8.19099 19.5044 8.29268 19.533L9.60383 19.9001L12.8304 20.6966C12.8304 20.8065 12.9159 20.8958 13.021 20.8958L17.9827 22.238C18.0879 22.238 18.1733 22.1487 18.1733 22.0388L21.0359 10.9054L21.1449 10.4805C21.1579 10.4297 21.1512 10.3753 21.1258 10.3294ZM18.3812 9.30606C18.4463 9.32332 18.5156 9.30374 18.5632 9.25394L19.147 8.64383C19.2214 8.56615 19.2214 8.44001 19.147 8.36201L19.0876 8.29993L19.1308 8.25479L20.0787 9.24498L20.0355 9.29013L19.9761 9.22805C19.9402 9.19087 19.8919 9.16963 19.8413 9.16963C19.7908 9.16963 19.7422 9.19054 19.7066 9.22805L19.1229 9.83817C19.0752 9.88796 19.0564 9.95999 19.073 10.0284C19.1263 10.2465 19.0997 10.4735 19.0031 10.6667L17.7704 9.37909C17.9547 9.27818 18.1721 9.25062 18.3812 9.30606ZM10.188 11.3744L10.2639 11.0786L9.98516 12.1654L10.188 11.3744ZM11.4549 7.97463L17.5076 9.66854L17.9817 10.1638L17.1485 11.0342C17.0741 11.1118 17.0741 11.238 17.1485 11.316C17.1857 11.3548 17.2346 11.3744 17.2832 11.3744C17.3319 11.3744 17.3808 11.3548 17.418 11.316L18.2512 10.4456L18.8937 11.1165C18.9296 11.154 18.9779 11.1749 19.0285 11.1749H19.0342C19.0866 11.1733 19.1362 11.149 19.1712 11.1079C19.3799 10.8616 19.4877 10.5442 19.48 10.2209L20.7273 10.5701L17.8479 21.7952L8.5755 19.1997L11.4549 7.97463ZM17.792 21.8397L13.2117 20.4974L9.98516 20.0067L17.9334 22.2314C17.9496 22.236 17.9661 22.238 17.9827 22.238C18.0157 22.238 18.0488 22.229 18.078 22.2114C18.1219 22.1849 18.1536 22.1414 18.167 22.0906L20.6549 12.3925L17.792 21.8397ZM12.5582 11.3555C12.5855 11.2493 12.6901 11.1862 12.7918 11.2147L18.0186 12.6776C18.1203 12.7062 18.1806 12.8154 18.1533 12.9216C18.1304 13.0106 18.0535 13.0693 17.9693 13.0693C17.9531 13.0693 17.9363 13.067 17.9197 13.0624L12.6929 11.5995C12.5916 11.5709 12.5312 11.4617 12.5582 11.3555ZM17.6293 14.9644C17.6064 15.0534 17.5295 15.1121 17.4453 15.1121C17.4291 15.1121 17.4123 15.1098 17.3957 15.1051L12.1689 13.6423C12.0672 13.6137 12.0069 13.5045 12.0342 13.3983C12.0615 13.2921 12.1661 13.229 12.2678 13.2575L17.4946 14.7204C17.5962 14.7486 17.6566 14.8578 17.6293 14.9644ZM17.1053 17.0069C17.0824 17.0958 17.0055 17.1546 16.9213 17.1546C16.9051 17.1546 16.8882 17.1523 16.8717 17.1476L11.6452 15.6851C11.5435 15.6565 11.4832 15.5473 11.5105 15.4411C11.5378 15.3349 11.6424 15.2718 11.7441 15.3003L16.9709 16.7632C17.0722 16.7914 17.1326 16.9006 17.1053 17.0069ZM16.5813 19.0497C16.5584 19.1386 16.4815 19.1974 16.3973 19.1974C16.3811 19.1974 16.3642 19.195 16.3477 19.1904L11.1209 17.7275C11.0192 17.699 10.9588 17.5898 10.9862 17.4835C11.0135 17.3773 11.118 17.3142 11.2197 17.3428L16.4465 18.8057C16.5482 18.8342 16.6086 18.9434 16.5813 19.0497Z" fill="#666666"/>
<path d="M17.9827 22.238L13.021 20.8958C12.9159 20.8958 12.8304 20.8065 12.8304 20.6966L9.60383 19.9001L8.29268 19.533C8.19099 19.5044 8.13061 19.3952 8.15794 19.289L9.60351 13.6516L9.80636 11.1749C9.80636 11.065 9.89184 10.9757 9.99702 10.9757L10.3659 10.68L11.1358 7.67886C11.1632 7.57264 11.2677 7.50957 11.3694 7.53812L17.3411 9.20946C17.3433 9.20714 17.3455 9.20482 17.3477 9.20282C17.6264 8.94523 18.0001 8.83436 18.3662 8.89644L18.7422 8.50341L18.6827 8.44134C18.6084 8.36333 18.6084 8.23719 18.6827 8.15952L18.9957 7.83255C19.0704 7.75488 19.1912 7.75488 19.2655 7.83255L20.4833 9.10424C20.5576 9.18224 20.5576 9.30838 20.4833 9.38606L20.1702 9.71302C20.0956 9.7907 19.9748 9.7907 19.9005 9.71302L19.841 9.65095L19.6459 9.85476L21.0101 10.2365C21.0588 10.2504 21.1004 10.2836 21.1258 10.3294C21.1512 10.3753 21.1579 10.4297 21.1449 10.4805L21.0359 10.9054L18.1733 22.0388C18.1733 22.1487 18.0879 22.238 17.9827 22.238ZM17.9827 22.238C17.9661 22.238 17.9496 22.236 17.9334 22.2314L9.98516 20.0067L13.2117 20.4974L17.792 21.8397L20.6549 12.3925L18.167 22.0906C18.1536 22.1414 18.1219 22.1849 18.078 22.2114C18.0488 22.229 18.0157 22.238 17.9827 22.238ZM18.3812 9.30606C18.4463 9.32332 18.5156 9.30374 18.5632 9.25394L19.147 8.64383C19.2214 8.56615 19.2214 8.44001 19.147 8.36201L19.0876 8.29993L19.1308 8.25479L20.0787 9.24498L20.0355 9.29013L19.9761 9.22805C19.9402 9.19087 19.8919 9.16963 19.8413 9.16963C19.7908 9.16963 19.7422 9.19054 19.7066 9.22805L19.1229 9.83817C19.0752 9.88796 19.0564 9.95999 19.073 10.0284C19.1263 10.2465 19.0997 10.4735 19.0031 10.6667L17.7704 9.37909C17.9547 9.27818 18.1721 9.25062 18.3812 9.30606ZM10.188 11.3744L10.2639 11.0786L9.98516 12.1654L10.188 11.3744ZM11.4549 7.97463L17.5076 9.66854L17.9817 10.1638L17.1485 11.0342C17.0741 11.1118 17.0741 11.238 17.1485 11.316C17.1857 11.3548 17.2346 11.3744 17.2832 11.3744C17.3319 11.3744 17.3808 11.3548 17.418 11.316L18.2512 10.4456L18.8937 11.1165C18.9296 11.154 18.9779 11.1749 19.0285 11.1749H19.0342C19.0866 11.1733 19.1362 11.149 19.1712 11.1079C19.3799 10.8616 19.4877 10.5442 19.48 10.2209L20.7273 10.5701L17.8479 21.7952L8.5755 19.1997L11.4549 7.97463ZM12.5582 11.3555C12.5855 11.2493 12.6901 11.1862 12.7918 11.2147L18.0186 12.6776C18.1203 12.7062 18.1806 12.8154 18.1533 12.9216C18.1304 13.0106 18.0535 13.0693 17.9693 13.0693C17.9531 13.0693 17.9363 13.067 17.9197 13.0624L12.6929 11.5995C12.5916 11.5709 12.5312 11.4617 12.5582 11.3555ZM17.6293 14.9644C17.6064 15.0534 17.5295 15.1121 17.4453 15.1121C17.4291 15.1121 17.4123 15.1098 17.3957 15.1051L12.1689 13.6423C12.0672 13.6137 12.0069 13.5045 12.0342 13.3983C12.0615 13.2921 12.1661 13.229 12.2678 13.2575L17.4946 14.7204C17.5962 14.7486 17.6566 14.8578 17.6293 14.9644ZM17.1053 17.0069C17.0824 17.0958 17.0055 17.1546 16.9213 17.1546C16.9051 17.1546 16.8882 17.1523 16.8717 17.1476L11.6452 15.6851C11.5435 15.6565 11.4832 15.5473 11.5105 15.4411C11.5378 15.3349 11.6424 15.2718 11.7441 15.3003L16.9709 16.7632C17.0722 16.7914 17.1326 16.9006 17.1053 17.0069ZM16.5813 19.0497C16.5584 19.1386 16.4815 19.1974 16.3973 19.1974C16.3811 19.1974 16.3642 19.195 16.3477 19.1904L11.1209 17.7275C11.0192 17.699 10.9588 17.5898 10.9862 17.4835C11.0135 17.3773 11.118 17.3142 11.2197 17.3428L16.4465 18.8057C16.5482 18.8342 16.6086 18.9434 16.5813 19.0497Z" stroke="#666666" stroke-width="0.3"/>
</svg>
