<svg width="35" height="36" viewBox="0 0 35 36" fill="none" xmlns="http://www.w3.org/2000/svg">
<g filter="url(#filter0_d_8039_5810)">
<rect x="4" y="2" width="27.63" height="27.63" rx="6" fill="url(#paint0_linear_8039_5810)"/>
</g>
<path d="M10.9075 10.0588H14.9368C15.6493 10.0588 16.3325 10.3419 16.8363 10.8456C17.3401 11.3494 17.6231 12.0326 17.6231 12.7451V22.147C17.6231 21.6126 17.4108 21.1002 17.033 20.7224C16.6552 20.3445 16.1427 20.1323 15.6084 20.1323H10.9075V10.0588Z" stroke="white" stroke-width="0.8" stroke-linecap="round" stroke-linejoin="round"/>
<path d="M24.3387 10.0588H20.3093C19.5969 10.0588 18.9136 10.3419 18.4098 10.8456C17.9061 11.3494 17.623 12.0326 17.623 12.7451V22.147C17.623 21.6126 17.8353 21.1002 18.2131 20.7224C18.591 20.3445 19.1034 20.1323 19.6377 20.1323H24.3387V10.0588Z" stroke="white" stroke-width="0.8" stroke-linecap="round" stroke-linejoin="round"/>
<defs>
<filter id="filter0_d_8039_5810" x="0.664544" y="0.787107" width="34.3008" height="34.3008" filterUnits="userSpaceOnUse" color-interpolation-filters="sRGB">
<feFlood flood-opacity="0" result="BackgroundImageFix"/>
<feColorMatrix in="SourceAlpha" type="matrix" values="0 0 0 0 0 0 0 0 0 0 0 0 0 0 0 0 0 0 127 0" result="hardAlpha"/>
<feOffset dy="2.12256"/>
<feGaussianBlur stdDeviation="1.66773"/>
<feColorMatrix type="matrix" values="0 0 0 0 0 0 0 0 0 0 0 0 0 0 0 0 0 0 0.02 0"/>
<feBlend mode="normal" in2="BackgroundImageFix" result="effect1_dropShadow_8039_5810"/>
<feBlend mode="normal" in="SourceGraphic" in2="effect1_dropShadow_8039_5810" result="shape"/>
</filter>
<linearGradient id="paint0_linear_8039_5810" x1="29.481" y1="27.481" x2="-5.21" y2="-9.359" gradientUnits="userSpaceOnUse">
<stop stop-color="#00A464"/>
<stop offset="1" stop-color="#00A464" stop-opacity="0"/>
</linearGradient>
</defs>
</svg>
