<svg width="21" height="25" viewBox="0 0 21 25" fill="none" xmlns="http://www.w3.org/2000/svg">
<path d="M13.0303 1.46967C12.8897 1.32902 12.6989 1.25 12.5 1.25H4.1C3.34413 1.25 2.61922 1.55027 2.08475 2.08475C1.55027 2.61922 1.25 3.34413 1.25 4.1V20.9C1.25 21.6559 1.55027 22.3808 2.08475 22.9153C2.61922 23.4497 3.34413 23.75 4.1 23.75H16.7C17.4559 23.75 18.1808 23.4497 18.7153 22.9153C19.2497 22.3808 19.55 21.6559 19.55 20.9V8.3C19.55 8.10109 19.471 7.91032 19.3303 7.76967L13.0303 1.46967Z" fill="#053682" stroke="#152848" stroke-width="1.5" stroke-linecap="round" stroke-linejoin="round"/>
<path d="M12.5 2V8.3H18.8" fill="white"/>
<path d="M12.5 2V8.3H18.8" stroke="#152848" stroke-width="1.5" stroke-linecap="round" stroke-linejoin="round"/>
<path d="M14.6002 13.5503H6.2002" stroke="white" stroke-width="1.5" stroke-linecap="round" stroke-linejoin="round"/>
<path d="M14.6002 17.75H6.2002" stroke="white" stroke-width="1.5" stroke-linecap="round" stroke-linejoin="round"/>
<path d="M8.3002 9.3501H7.2502H6.2002" fill="#053682"/>
<path d="M8.3002 9.3501H7.2502H6.2002" stroke="white" stroke-width="1.5" stroke-linecap="round" stroke-linejoin="round"/>
</svg>
