<svg width="28" height="28" viewBox="0 0 28 28" fill="none" xmlns="http://www.w3.org/2000/svg">
<path d="M16.3333 2.3335H6.99996C6.38112 2.3335 5.78763 2.57933 5.35004 3.01691C4.91246 3.4545 4.66663 4.04799 4.66663 4.66683V23.3335C4.66663 23.9523 4.91246 24.5458 5.35004 24.9834C5.78763 25.421 6.38112 25.6668 6.99996 25.6668H21C21.6188 25.6668 22.2123 25.421 22.6499 24.9834C23.0875 24.5458 23.3333 23.9523 23.3333 23.3335V9.3335L16.3333 2.3335Z" stroke="#6691E3" stroke-width="2.33333" stroke-linecap="round" stroke-linejoin="round"/>
<path d="M16.3334 2.3335V9.3335H23.3334" stroke="#6691E3" stroke-width="2.33333" stroke-linecap="round" stroke-linejoin="round"/>
<path d="M18.6667 15.1665H9.33337" stroke="#6691E3" stroke-width="2.33333" stroke-linecap="round" stroke-linejoin="round"/>
<path d="M18.6667 19.8335H9.33337" stroke="#6691E3" stroke-width="2.33333" stroke-linecap="round" stroke-linejoin="round"/>
<path d="M11.6667 10.5H10.5H9.33337" stroke="#6691E3" stroke-width="2.33333" stroke-linecap="round" stroke-linejoin="round"/>
</svg>
