<svg width="16" height="16" viewBox="0 0 16 16" fill="none" xmlns="http://www.w3.org/2000/svg">
<g clip-path="url(#clip0_56_1539)">
<path d="M15.0558 4.6307C14.979 4.32378 14.8226 4.04257 14.6023 3.81547C14.382 3.58837 14.1057 3.42342 13.8012 3.33729C12.6889 3.06567 8.23959 3.06567 8.23959 3.06567C8.23959 3.06567 3.79027 3.06567 2.67795 3.36316C2.37351 3.44929 2.09719 3.61423 1.8769 3.84133C1.65662 4.06843 1.50016 4.34964 1.42334 4.65656C1.21977 5.78542 1.12019 6.93057 1.12586 8.07762C1.1186 9.23331 1.21819 10.3872 1.42334 11.5246C1.50803 11.8219 1.66799 12.0925 1.88777 12.31C2.10754 12.5275 2.3797 12.6846 2.67795 12.7662C3.79027 13.0637 8.23959 13.0637 8.23959 13.0637C8.23959 13.0637 12.6889 13.0637 13.8012 12.7662C14.1057 12.6801 14.382 12.5151 14.6023 12.288C14.8226 12.0609 14.979 11.7797 15.0558 11.4728C15.2578 10.3525 15.3574 9.21604 15.3533 8.07762C15.3606 6.92194 15.261 5.76805 15.0558 4.6307Z" stroke="white" stroke-width="1.29341" stroke-linecap="round" stroke-linejoin="round"/>
<path d="M6.78442 10.1928L10.503 8.0781L6.78442 5.96338V10.1928Z" fill="white" stroke="white" stroke-width="1.29341" stroke-linecap="round" stroke-linejoin="round"/>
</g>
<defs>
<clipPath id="clip0_56_1539">
<rect width="15.5209" height="15.5209" fill="white" transform="translate(0.479126 0.479004)"/>
</clipPath>
</defs>
</svg>
