<svg width="15" height="14" viewBox="0 0 15 14" fill="none" xmlns="http://www.w3.org/2000/svg">
<path d="M1.66672 1.75H5.16672C5.78556 1.75 6.37905 1.99583 6.81663 2.43342C7.25422 2.871 7.50005 3.46449 7.50005 4.08333V12.25C7.50005 11.7859 7.31568 11.3408 6.98749 11.0126C6.6593 10.6844 6.21418 10.5 5.75005 10.5H1.66672V1.75Z" stroke="white" stroke-width="1.16667" stroke-linecap="round" stroke-linejoin="round"/>
<path d="M13.3333 1.75H9.83333C9.21449 1.75 8.621 1.99583 8.18342 2.43342C7.74583 2.871 7.5 3.46449 7.5 4.08333V12.25C7.5 11.7859 7.68437 11.3408 8.01256 11.0126C8.34075 10.6844 8.78587 10.5 9.25 10.5H13.3333V1.75Z" stroke="white" stroke-width="1.16667" stroke-linecap="round" stroke-linejoin="round"/>
</svg>
