<svg width="28" height="28" viewBox="0 0 28 28" fill="none" xmlns="http://www.w3.org/2000/svg">
<path d="M12.8333 4.66675H4.66668C4.04784 4.66675 3.45435 4.91258 3.01676 5.35017C2.57918 5.78775 2.33334 6.38124 2.33334 7.00008V23.3334C2.33334 23.9523 2.57918 24.5457 3.01676 24.9833C3.45435 25.4209 4.04784 25.6667 4.66668 25.6667H21C21.6188 25.6667 22.2123 25.4209 22.6499 24.9833C23.0875 24.5457 23.3333 23.9523 23.3333 23.3334V15.1667" stroke="#6691E3" stroke-width="2" stroke-linecap="round" stroke-linejoin="round"/>
<path d="M21.5833 2.91652C22.0475 2.4524 22.677 2.19165 23.3333 2.19165C23.9897 2.19165 24.6192 2.4524 25.0833 2.91652C25.5475 3.38065 25.8082 4.01015 25.8082 4.66652C25.8082 5.3229 25.5475 5.9524 25.0833 6.41652L14 17.4999L9.33334 18.6665L10.5 13.9999L21.5833 2.91652Z" stroke="#6691E3" stroke-width="2" stroke-linecap="round" stroke-linejoin="round"/>
</svg>
