<svg width="15" height="15" viewBox="0 0 15 15" fill="none" xmlns="http://www.w3.org/2000/svg">
<circle opacity="0.2" cx="7.30005" cy="7.30005" r="7.30005" fill="#F5F5FF"/>
<path d="M10.4423 5.22042C10.0946 3.53101 8.44329 2.4434 6.75369 2.79104C5.30711 3.08871 4.26673 4.35903 4.26009 5.83606C4.26009 5.90633 4.26302 5.97855 4.26926 6.05468C3.2402 6.1634 2.49417 7.08608 2.60309 8.11534C2.704 9.06925 3.50918 9.79283 4.46836 9.79186H4.68698C4.6819 9.72276 4.67663 9.65405 4.67663 9.58358C4.67663 8.08879 5.8884 6.87683 7.38338 6.87683C8.87837 6.87683 10.0901 8.08859 10.0901 9.58358C10.0901 9.65405 10.0847 9.72256 10.0798 9.79186H10.2984C11.5619 9.79537 12.589 8.77392 12.5925 7.51024C12.5958 6.29789 11.6529 5.29342 10.4427 5.22042H10.4423Z" fill="#F5F5FF"/>
<path d="M7.38323 7.29346C6.11837 7.29346 5.09302 8.31881 5.09302 9.58386C5.09302 10.8489 6.11837 11.8741 7.38323 11.8741C8.64808 11.8741 9.67363 10.8487 9.67363 9.58386C9.67363 8.31901 8.64828 7.29346 7.38323 7.29346ZM6.96551 10.6123L6.00789 9.5903L6.40003 9.22295L6.99284 9.85557L8.39433 8.55538L8.75856 8.95026L6.96551 10.6123Z" fill="#F5F5FF"/>
</svg>
