<svg width="15" height="16" viewBox="0 0 15 16" fill="none" xmlns="http://www.w3.org/2000/svg">
<circle opacity="0.2" cx="7.69995" cy="7.78027" r="7.30005" fill="#2669E8"/>
<path d="M10.8422 5.70064C10.4945 4.01124 8.84319 2.92362 7.15359 3.27126C5.70701 3.56893 4.66663 4.83925 4.65999 6.31628C4.65999 6.38655 4.66292 6.45877 4.66917 6.5349C3.6401 6.64362 2.89407 7.5663 3.00299 8.59556C3.10391 9.54947 3.90908 10.2731 4.86826 10.2721H5.08688C5.0818 10.203 5.07653 10.1343 5.07653 10.0638C5.07653 8.56901 6.2883 7.35706 7.78329 7.35706C9.27828 7.35706 10.49 8.56882 10.49 10.0638C10.49 10.1343 10.4846 10.2028 10.4797 10.2721H10.6983C11.9618 10.2756 12.9889 9.25414 12.9924 7.99046C12.9957 6.77811 12.0528 5.77364 10.8426 5.70064H10.8422Z" fill="#2669E8"/>
<path d="M7.78313 7.77368C6.51827 7.77368 5.49292 8.79903 5.49292 10.0641C5.49292 11.3291 6.51827 12.3543 7.78313 12.3543C9.04798 12.3543 10.0735 11.3289 10.0735 10.0641C10.0735 8.79923 9.04818 7.77368 7.78313 7.77368ZM7.36541 11.0926L6.40779 10.0705L6.79994 9.70317L7.39274 10.3358L8.79423 9.03561L9.15846 9.43049L7.36541 11.0926Z" fill="#2669E8"/>
</svg>
