<svg width="8" height="10" viewBox="0 0 8 10" fill="none" xmlns="http://www.w3.org/2000/svg">
<path d="M3.97157 4.92662C4.23328 4.92662 4.45703 4.83342 4.64281 4.64702C4.82868 4.46062 4.92162 4.23657 4.92162 3.97485C4.92162 3.71314 4.82842 3.48935 4.64202 3.30348C4.45562 3.1177 4.23152 3.0248 3.96973 3.0248C3.70801 3.0248 3.48427 3.118 3.29848 3.3044C3.11261 3.4908 3.01967 3.7149 3.01967 3.9767C3.01967 4.23841 3.11287 4.46215 3.29927 4.64794C3.48567 4.83372 3.70977 4.92662 3.97157 4.92662ZM3.97065 8.95C4.99978 8.0287 5.78733 7.14502 6.33328 6.29896C6.87924 5.45289 7.15221 4.71185 7.15221 4.07586C7.15221 3.11686 6.84754 2.32849 6.2382 1.71072C5.62885 1.09296 4.873 0.784082 3.97065 0.784082C3.06829 0.784082 2.31244 1.09296 1.7031 1.71072C1.09375 2.32849 0.789079 3.11686 0.789079 4.07586C0.789079 4.71185 1.06206 5.45289 1.60801 6.29896C2.15397 7.14502 2.94151 8.0287 3.97065 8.95ZM3.97065 10C2.64675 8.85285 1.654 7.78527 0.992398 6.79726C0.330799 5.80916 0 4.90202 0 4.07586C0 2.8619 0.392654 1.8791 1.17796 1.12746C1.96336 0.375821 2.89425 0 3.97065 0C5.04704 0 5.97793 0.375821 6.76333 1.12746C7.54864 1.8791 7.94129 2.8619 7.94129 4.07586C7.94129 4.90202 7.61049 5.80916 6.94889 6.79726C6.28729 7.78527 5.29455 8.85285 3.97065 10Z" fill="#0048D0"/>
</svg>
