<svg width="32" height="35" viewBox="0 0 32 35" fill="none" xmlns="http://www.w3.org/2000/svg">
<path d="M30.4747 34.1585V30.4741C30.4747 28.5198 29.6984 26.6456 28.3165 25.2637C26.9346 23.8818 25.0603 23.1055 23.106 23.1055H8.36867C6.41438 23.1055 4.54013 23.8818 3.15823 25.2637C1.77634 26.6456 1 28.5198 1 30.4741V34.1585" fill="#C0BAFF"/>
<path d="M30.4747 34.1585V30.4741C30.4747 28.5198 29.6984 26.6456 28.3165 25.2637C26.9346 23.8818 25.0603 23.1055 23.106 23.1055H8.36867C6.41438 23.1055 4.54013 23.8818 3.15823 25.2637C1.77634 26.6456 1 28.5198 1 30.4741V34.1585" stroke="#7B70F1" stroke-width="1.5" stroke-linecap="round" stroke-linejoin="round"/>
<path d="M15.7368 15.7373C19.8064 15.7373 23.1055 12.4383 23.1055 8.36867C23.1055 4.29907 19.8064 1 15.7368 1C11.6672 1 8.36816 4.29907 8.36816 8.36867C8.36816 12.4383 11.6672 15.7373 15.7368 15.7373Z" fill="#C0BAFF" stroke="#7B70F1" stroke-width="1.5" stroke-linecap="round" stroke-linejoin="round"/>
</svg>
