<svg width="43" height="44" viewBox="0 0 43 44" fill="none" xmlns="http://www.w3.org/2000/svg">
<circle opacity="0.5" cx="21.5" cy="21.7168" r="21.5" fill="white"/>
<path d="M12.9128 31.9398C12.9128 32.0472 12.9339 32.1535 12.975 32.2528C13.0161 32.352 13.0764 32.4422 13.1523 32.5181C13.2283 32.5941 13.3184 32.6543 13.4177 32.6954C13.5169 32.7365 13.6233 32.7576 13.7307 32.7576H28.4514C28.5588 32.7576 28.6651 32.7365 28.7644 32.6954C28.8636 32.6543 28.9538 32.5941 29.0297 32.5181C29.1057 32.4422 29.1659 32.352 29.207 32.2528C29.2481 32.1535 29.2692 32.0472 29.2692 31.9398V29.4863H12.9128V31.9398Z" fill="#33AD48"/>
<path d="M31.4012 15.7504C31.2794 15.6579 31.1341 15.6012 30.9818 15.5868C30.8295 15.5724 30.6761 15.6009 30.5391 15.6689L24.7916 18.5425L21.8506 11.1901C21.7899 11.0383 21.6851 10.9081 21.5497 10.8165C21.4143 10.7248 21.2546 10.6758 21.0911 10.6758C20.9276 10.6758 20.7678 10.7248 20.6324 10.8165C20.4971 10.9081 20.3923 11.0383 20.3316 11.1901L17.3905 18.5425L11.643 15.6689C11.5061 15.6004 11.3527 15.5718 11.2002 15.5862C11.0478 15.6006 10.9024 15.6575 10.7808 15.7505C10.6591 15.8435 10.566 15.9687 10.512 16.112C10.458 16.2553 10.4453 16.4109 10.4754 16.561L12.7332 27.85H29.449L31.7067 16.561C31.7369 16.4109 31.7242 16.2553 31.6702 16.1119C31.6162 15.9686 31.523 15.8433 31.4012 15.7504ZM21.0911 24.5787C20.6056 24.5187 20.1628 24.2712 19.8572 23.8893C19.5516 23.5073 19.4074 23.021 19.4554 22.5341C19.4074 22.0473 19.5516 21.561 19.8572 21.179C20.1628 20.797 20.6056 20.5496 21.0911 20.4896C21.5766 20.5496 22.0194 20.797 22.325 21.179C22.6306 21.561 22.7747 22.0473 22.7267 22.5341C22.7747 23.021 22.6306 23.5073 22.325 23.8893C22.0194 24.2713 21.5766 24.5187 21.0911 24.5787Z" fill="#33AD48"/>
</svg>
