<svg width="20" height="22" viewBox="0 0 20 22" fill="none" xmlns="http://www.w3.org/2000/svg">
<path d="M4.99998 10V6C4.99998 4.67392 5.52677 3.40215 6.46445 2.46447C7.40213 1.52678 8.6739 1 9.99998 1C11.3261 1 12.5978 1.52678 13.5355 2.46447C14.4732 3.40215 15 4.67392 15 6V10" fill="#F7F6FF"/>
<path d="M4.99998 10V6C4.99998 4.67392 5.52677 3.40215 6.46445 2.46447C7.40213 1.52678 8.6739 1 9.99998 1C11.3261 1 12.5978 1.52678 13.5355 2.46447C14.4732 3.40215 15 4.67392 15 6V10" stroke="#152848" stroke-width="1.5" stroke-linecap="round" stroke-linejoin="round"/>
<path d="M17 9.99976H3C1.89543 9.99976 1 10.8952 1 11.9998V18.9998C1 20.1043 1.89543 20.9998 3 20.9998H17C18.1046 20.9998 19 20.1043 19 18.9998V11.9998C19 10.8952 18.1046 9.99976 17 9.99976Z" fill="#AFA8FD" stroke="#152848" stroke-width="1.5" stroke-linecap="round" stroke-linejoin="round"/>
</svg>
