<svg width="34" height="35" viewBox="0 0 34 35" fill="none" xmlns="http://www.w3.org/2000/svg">
<circle cx="16.6176" cy="17.4999" r="16.6176" fill="#2669E8"/>
<path d="M16.6174 18.6233C11.1527 18.6233 8.14331 21.1472 8.14331 25.7296C8.14331 26.0874 8.44027 26.3777 8.80722 26.3777H24.428C24.7946 26.3777 25.0919 26.0878 25.0919 25.7296C25.0919 21.1472 22.0825 18.6233 16.6178 18.6233H16.6174ZM9.49492 25.0818C9.75601 21.6552 12.1488 19.9192 16.6174 19.9192C21.0861 19.9192 23.4788 21.6552 23.7403 25.0818H9.49492Z" fill="white"/>
<path d="M16.6175 8.62231C14.1072 8.62231 12.2146 10.5074 12.2146 13.007C12.2146 15.5066 14.1896 17.6727 16.6175 17.6727C19.0455 17.6727 21.0205 15.5798 21.0205 13.0074C21.0205 10.4349 19.1279 8.62231 16.6175 8.62231ZM16.6175 16.3767C14.9217 16.3767 13.5421 14.8651 13.5421 13.007C13.5421 11.149 14.8354 9.91824 16.6175 9.91824C18.3997 9.91824 19.693 11.2461 19.693 13.007C19.693 14.8651 18.3134 16.3767 16.6175 16.3767Z" fill="white"/>
</svg>
