<svg width="21" height="20" viewBox="0 0 21 20" fill="none" xmlns="http://www.w3.org/2000/svg">
<path d="M10.5902 16.9378C10.3145 16.9376 10.0437 16.865 9.80492 16.7271L5.12209 14.0255C4.76046 13.8161 4.49667 13.4717 4.38862 13.0681C4.28057 12.6644 4.33708 12.2343 4.54574 11.8723L5.22115 10.7016C5.57822 10.2046 6.04552 9.79718 6.58642 9.51111C7.12733 9.22503 7.72713 9.06812 8.33883 9.05266C8.3694 9.04732 8.39841 9.03533 8.42382 9.01754C8.44924 8.99974 8.47043 8.97658 8.48589 8.94969C8.50136 8.92279 8.51072 8.89283 8.51332 8.86191C8.51592 8.831 8.51169 8.79989 8.50093 8.77079C8.20789 8.23298 8.04351 7.63456 8.0207 7.02252C7.99789 6.41048 8.11726 5.80149 8.36945 5.24336L9.04486 4.07265C9.25445 3.71147 9.59854 3.44798 10.0019 3.33981C10.4052 3.23164 10.835 3.28758 11.1972 3.4954L15.88 6.19703C16.2416 6.40644 16.5054 6.75076 16.6135 7.15444C16.7215 7.55812 16.665 7.98817 16.4563 8.35023L15.7809 9.52094C15.4238 10.0183 14.9562 10.426 14.415 10.7123C13.8737 10.9985 13.2735 11.1555 12.6614 11.1707C12.6308 11.1758 12.6017 11.1876 12.5762 11.2053C12.5507 11.2229 12.5295 11.246 12.514 11.2729C12.4985 11.2998 12.4891 11.3297 12.4866 11.3607C12.484 11.3916 12.4884 11.4227 12.4993 11.4517C12.7925 11.9896 12.957 12.5882 12.9798 13.2004C13.0026 13.8126 12.8832 14.4218 12.6308 14.98L11.9554 16.1507C11.817 16.3902 11.6179 16.589 11.3782 16.7272C11.1386 16.8653 10.8668 16.938 10.5902 16.9378ZM10.4101 4.63639C10.3705 4.63631 10.3316 4.64668 10.2973 4.66644C10.263 4.68621 10.2345 4.71467 10.2147 4.74896L9.53926 5.91967C9.40303 6.29952 9.351 6.70445 9.38677 7.1064C9.42253 7.50836 9.54524 7.89774 9.74638 8.24757C9.8377 8.46905 9.87694 8.70853 9.86105 8.94757C9.84517 9.1866 9.7746 9.41879 9.65478 9.62624C9.53496 9.83368 9.36909 10.0108 9.16998 10.144C8.97086 10.2772 8.74381 10.3629 8.50634 10.3945C8.10293 10.3953 7.70452 10.4838 7.33865 10.6537C6.97279 10.8236 6.64821 11.071 6.38736 11.3788L5.71195 12.5495C5.69708 12.5751 5.6874 12.6033 5.68347 12.6327C5.67954 12.662 5.68144 12.6919 5.68905 12.7205C5.69666 12.7491 5.70984 12.7759 5.72783 12.7994C5.74582 12.8229 5.76827 12.8426 5.7939 12.8575L10.4767 15.5591C10.5286 15.5883 10.5898 15.596 10.6472 15.5805C10.7046 15.565 10.7537 15.5275 10.7838 15.4762L11.4592 14.3055C11.5954 13.9257 11.6475 13.5207 11.6117 13.1188C11.5759 12.7168 11.4532 12.3275 11.2521 11.9776C11.1606 11.7562 11.1212 11.5167 11.137 11.2777C11.1528 11.0386 11.2233 10.8064 11.3432 10.599C11.4631 10.3916 11.629 10.2145 11.8282 10.0814C12.0275 9.94835 12.2546 9.86289 12.4921 9.83163C12.8955 9.83027 13.2939 9.74149 13.6597 9.57141C14.0255 9.40134 14.3501 9.154 14.6111 8.84643L15.2865 7.67573C15.3014 7.65013 15.3111 7.62185 15.315 7.59251C15.3189 7.56317 15.317 7.53335 15.3094 7.50474C15.3018 7.47613 15.2886 7.44931 15.2706 7.4258C15.2527 7.40229 15.2302 7.38256 15.2046 7.36774L10.5218 4.66611C10.4877 4.64677 10.4492 4.63654 10.4101 4.63639Z" fill="#666666"/>
<path d="M19.5056 10.787C19.3264 10.787 19.1546 10.7159 19.028 10.5892C18.9013 10.4625 18.8302 10.2907 18.8302 10.1116C18.8303 8.46401 18.3418 6.85339 17.4265 5.48344C16.5111 4.11349 15.2101 3.04573 13.688 2.41522C12.1658 1.7847 10.4908 1.61973 8.8749 1.94119C7.25897 2.26264 5.77466 3.05608 4.60968 4.22115C4.33043 4.5008 4.07104 4.7996 3.83341 5.11539C3.72593 5.25869 3.56593 5.35343 3.3886 5.37876C3.21127 5.4041 3.03115 5.35795 2.88784 5.25047C2.74454 5.14299 2.6498 4.98299 2.62447 4.80566C2.59913 4.62833 2.64528 4.4482 2.75276 4.3049C3.02916 3.93971 3.33003 3.5937 3.6533 3.26927C5.00693 1.91507 6.73174 0.99269 8.6096 0.61877C10.4875 0.24485 12.434 0.436188 14.2031 1.16859C15.9723 1.90099 17.4845 3.14155 18.5485 4.7334C19.6126 6.32525 20.1807 8.19688 20.181 10.1116C20.181 10.2907 20.1098 10.4625 19.9832 10.5892C19.8565 10.7159 19.6847 10.787 19.5056 10.787Z" fill="#666666"/>
<path d="M10.5002 19.7928C9.22881 19.793 7.96984 19.5428 6.7952 19.0563C5.62056 18.5699 4.55326 17.8568 3.65426 16.9578C2.75527 16.0589 2.04219 14.9916 1.55576 13.8169C1.06934 12.6423 0.8191 11.3833 0.819336 10.1119C0.819336 9.9328 0.890495 9.76101 1.01716 9.63435C1.14382 9.50768 1.31561 9.43652 1.49474 9.43652C1.67387 9.43652 1.84567 9.50768 1.97233 9.63435C2.09899 9.76101 2.17015 9.9328 2.17015 10.1119C2.17006 11.7595 2.65856 13.3701 3.57386 14.7401C4.48917 16.11 5.79018 17.1778 7.31235 17.8083C8.83452 18.4388 10.5095 18.6038 12.1254 18.2823C13.7413 17.9609 15.2257 17.1675 16.3906 16.0024C16.6698 15.7232 16.9289 15.4247 17.166 15.109C17.277 14.9759 17.4349 14.8905 17.6071 14.8704C17.7792 14.8504 17.9525 14.8972 18.0912 15.0012C18.2298 15.1052 18.3233 15.2584 18.3522 15.4293C18.3811 15.6002 18.3434 15.7757 18.2467 15.9195C17.9706 16.2853 17.6697 16.6316 17.3461 16.9561C16.4492 17.8579 15.3823 18.573 14.2072 19.0599C13.0321 19.5469 11.7721 19.7959 10.5002 19.7928Z" fill="#666666"/>
<path d="M18.1413 18.4283C17.9621 18.4283 17.7903 18.3572 17.6637 18.2305C17.537 18.1038 17.4659 17.932 17.4659 17.7529V15.8816H15.5936C15.4145 15.8816 15.2427 15.8104 15.116 15.6838C14.9894 15.5571 14.9182 15.3853 14.9182 15.2062C14.9182 15.027 14.9894 14.8552 15.116 14.7286C15.2427 14.6019 15.4145 14.5308 15.5936 14.5308H18.1413C18.3204 14.5308 18.4922 14.6019 18.6188 14.7286C18.7455 14.8552 18.8167 15.027 18.8167 15.2062V17.7529C18.8167 17.932 18.7455 18.1038 18.6188 18.2305C18.4922 18.3572 18.3204 18.4283 18.1413 18.4283Z" fill="#666666"/>
<path d="M5.40574 5.69272H2.859C2.67987 5.69272 2.50808 5.62156 2.38142 5.4949C2.25475 5.36823 2.18359 5.19644 2.18359 5.01731V2.47057C2.18359 2.29144 2.25475 2.11965 2.38142 1.99299C2.50808 1.86632 2.67987 1.79517 2.859 1.79517C3.03813 1.79517 3.20992 1.86632 3.33659 1.99299C3.46325 2.11965 3.53441 2.29144 3.53441 2.47057V4.3419H5.40574C5.58487 4.3419 5.75666 4.41306 5.88332 4.53973C6.00999 4.66639 6.08115 4.83818 6.08115 5.01731C6.08115 5.19644 6.00999 5.36823 5.88332 5.4949C5.75666 5.62156 5.58487 5.69272 5.40574 5.69272Z" fill="#666666"/>
</svg>
