<svg width="21" height="20" viewBox="0 0 21 20" fill="none" xmlns="http://www.w3.org/2000/svg">
<path d="M10.5899 17.1378C10.3142 17.1376 10.0434 17.0649 9.80468 16.927L5.12185 14.2254C4.76021 14.016 4.49643 13.6717 4.38838 13.268C4.28032 12.8643 4.33683 12.4343 4.5455 12.0722L5.22091 10.9015C5.57798 10.4046 6.04528 9.99714 6.58618 9.71106C7.12708 9.42498 7.72689 9.26807 8.33859 9.25261C8.36915 9.24727 8.39817 9.23528 8.42358 9.21749C8.44899 9.1997 8.47018 9.17653 8.48565 9.14964C8.50112 9.12274 8.51048 9.09278 8.51308 9.06186C8.51568 9.03095 8.51145 8.99984 8.50069 8.97074C8.20765 8.43293 8.04327 7.83451 8.02045 7.22247C7.99764 6.61044 8.11702 6.00144 8.36921 5.44331L9.04462 4.2726C9.25421 3.91142 9.59829 3.64794 10.0016 3.53976C10.405 3.43159 10.8347 3.48753 11.1969 3.69535L15.8797 6.39699C16.2414 6.60639 16.5052 6.95072 16.6132 7.35439C16.7213 7.75807 16.6648 8.18813 16.4561 8.55019L15.7807 9.72089C15.4235 10.2182 14.956 10.626 14.4147 10.9122C13.8735 11.1985 13.2733 11.3554 12.6612 11.3707C12.6306 11.3758 12.6015 11.3875 12.576 11.4052C12.5505 11.4229 12.5292 11.446 12.5137 11.4728C12.4982 11.4997 12.4889 11.5297 12.4863 11.5606C12.4838 11.5915 12.4882 11.6226 12.4991 11.6517C12.7923 12.1896 12.9567 12.7882 12.9796 13.4004C13.0024 14.0126 12.8829 14.6217 12.6306 15.18L11.9552 16.3507C11.8167 16.5902 11.6176 16.789 11.378 16.9271C11.1384 17.0653 10.8666 17.1379 10.5899 17.1378ZM10.4098 4.83634C10.3702 4.83627 10.3313 4.84663 10.297 4.86639C10.2627 4.88616 10.2342 4.91462 10.2144 4.94891L9.53901 6.11962C9.40279 6.49947 9.35076 6.9044 9.38652 7.30635C9.42229 7.70831 9.54499 8.09769 9.74614 8.44752C9.83746 8.669 9.87669 8.90848 9.86081 9.14752C9.84493 9.38655 9.77435 9.61874 9.65454 9.82619C9.53472 10.0336 9.36885 10.2108 9.16973 10.344C8.97061 10.4772 8.74356 10.5629 8.50609 10.5944C8.10268 10.5953 7.70427 10.6837 7.33841 10.8536C6.97255 11.0236 6.64796 11.271 6.38711 11.5787L5.7117 12.7494C5.69683 12.775 5.68716 12.8033 5.68323 12.8326C5.6793 12.862 5.68119 12.8918 5.6888 12.9204C5.69642 12.949 5.7096 12.9758 5.72759 12.9993C5.74558 13.0229 5.76803 13.0426 5.79365 13.0574L10.4765 15.759C10.5283 15.7882 10.5895 15.7959 10.647 15.7804C10.7044 15.7649 10.7535 15.7275 10.7836 15.6762L11.459 14.5055C11.5952 14.1256 11.6472 13.7207 11.6115 13.3187C11.5757 12.9168 11.453 12.5274 11.2518 12.1776C11.1603 11.9562 11.1209 11.7167 11.1367 11.4776C11.1525 11.2386 11.2231 11.0064 11.3429 10.7989C11.4628 10.5915 11.6288 10.4144 11.828 10.2814C12.0272 10.1483 12.2544 10.0628 12.4919 10.0316C12.8953 10.0302 13.2936 9.94144 13.6594 9.77136C14.0252 9.60129 14.3498 9.35395 14.6109 9.04639L15.2863 7.87568C15.3012 7.85008 15.3108 7.82181 15.3148 7.79246C15.3187 7.76312 15.3168 7.7333 15.3092 7.70469C15.3016 7.67608 15.2884 7.64926 15.2704 7.62575C15.2524 7.60224 15.23 7.58251 15.2043 7.56769L10.5215 4.86606C10.4875 4.84672 10.449 4.83649 10.4098 4.83634Z" fill="#2669E8"/>
<path d="M19.5053 10.987C19.3262 10.987 19.1544 10.9158 19.0277 10.7891C18.9011 10.6625 18.8299 10.4907 18.8299 10.3116C18.83 8.66396 18.3415 7.05335 17.4262 5.68339C16.5109 4.31344 15.2099 3.24569 13.6877 2.61517C12.1655 1.98465 10.4906 1.81968 8.87466 2.14114C7.25873 2.46259 5.77441 3.25603 4.60944 4.4211C4.33018 4.70075 4.07079 4.99955 3.83317 5.31534C3.72569 5.45864 3.56569 5.55338 3.38836 5.57871C3.21103 5.60405 3.0309 5.5579 2.8876 5.45042C2.74429 5.34294 2.64956 5.18294 2.62422 5.00561C2.59889 4.82828 2.64504 4.64815 2.75252 4.50485C3.02891 4.13966 3.32978 3.79365 3.65306 3.46923C5.00669 2.11502 6.7315 1.19264 8.60936 0.818721C10.4872 0.444801 12.4338 0.636139 14.2029 1.36854C15.972 2.10094 17.4842 3.3415 18.5483 4.93335C19.6123 6.5252 20.1804 8.39683 20.1807 10.3116C20.1807 10.4907 20.1096 10.6625 19.9829 10.7891C19.8563 10.9158 19.6845 10.987 19.5053 10.987Z" fill="#2669E8"/>
<path d="M10.4999 19.9927C9.22856 19.993 7.9696 19.7427 6.79496 19.2563C5.62032 18.7699 4.55301 18.0568 3.65402 17.1578C2.75502 16.2588 2.04194 15.1915 1.55552 14.0169C1.0691 12.8422 0.818855 11.5833 0.819092 10.3119C0.819092 10.1328 0.890251 9.96096 1.01691 9.8343C1.14358 9.70763 1.31537 9.63647 1.4945 9.63647C1.67363 9.63647 1.84542 9.70763 1.97209 9.8343C2.09875 9.96096 2.16991 10.1328 2.16991 10.3119C2.16981 11.9595 2.65831 13.5701 3.57362 14.94C4.48893 16.31 5.78994 17.3778 7.31211 18.0083C8.83428 18.6388 10.5092 18.8038 12.1252 18.4823C13.7411 18.1608 15.2254 17.3674 16.3904 16.2023C16.6695 15.9231 16.9286 15.6246 17.1658 15.309C17.2768 15.1759 17.4347 15.0905 17.6068 15.0704C17.779 15.0503 17.9523 15.0971 18.0909 15.2011C18.2296 15.3051 18.323 15.4584 18.352 15.6293C18.3809 15.8002 18.3431 15.9756 18.2464 16.1195C17.9704 16.4853 17.6695 16.8316 17.3459 17.156C16.4489 18.0579 15.382 18.773 14.207 19.2599C13.0319 19.7468 11.7719 19.9959 10.4999 19.9927Z" fill="#2669E8"/>
<path d="M18.141 18.6283C17.9619 18.6283 17.7901 18.5571 17.6634 18.4304C17.5368 18.3038 17.4656 18.132 17.4656 17.9529V16.0815H15.5934C15.4142 16.0815 15.2425 16.0104 15.1158 15.8837C14.9891 15.757 14.918 15.5852 14.918 15.4061C14.918 15.227 14.9891 15.0552 15.1158 14.9285C15.2425 14.8019 15.4142 14.7307 15.5934 14.7307H18.141C18.3201 14.7307 18.4919 14.8019 18.6186 14.9285C18.7453 15.0552 18.8164 15.227 18.8164 15.4061V17.9529C18.8164 18.132 18.7453 18.3038 18.6186 18.4304C18.4919 18.5571 18.3201 18.6283 18.141 18.6283Z" fill="#2669E8"/>
<path d="M5.40549 5.89267H2.85876C2.67963 5.89267 2.50784 5.82151 2.38117 5.69485C2.25451 5.56818 2.18335 5.39639 2.18335 5.21726V2.67052C2.18335 2.4914 2.25451 2.3196 2.38117 2.19294C2.50784 2.06628 2.67963 1.99512 2.85876 1.99512C3.03789 1.99512 3.20968 2.06628 3.33634 2.19294C3.46301 2.3196 3.53416 2.4914 3.53416 2.67052V4.54185H5.40549C5.58462 4.54185 5.75642 4.61301 5.88308 4.73968C6.00974 4.86634 6.0809 5.03813 6.0809 5.21726C6.0809 5.39639 6.00974 5.56818 5.88308 5.69485C5.75642 5.82151 5.58462 5.89267 5.40549 5.89267Z" fill="#2669E8"/>
</svg>
