<svg width="20" height="18" viewBox="0 0 20 18" fill="none" xmlns="http://www.w3.org/2000/svg">
<path fill-rule="evenodd" clip-rule="evenodd" d="M7.79356 0.344028C9.05615 0.262524 10.3759 0.262356 11.6411 0.344028C15.5977 0.599434 18.737 3.70097 18.9951 7.57954C19.0434 8.30514 19.0434 9.05564 18.9951 9.78124C18.737 13.6598 15.5977 16.7613 11.6411 17.0168C10.3759 17.0984 9.05615 17.0982 7.79356 17.0168C7.3041 16.9851 6.7713 16.8727 6.30223 16.6852C6.09595 16.6027 5.95591 16.5469 5.85344 16.5104C5.78299 16.5574 5.6894 16.6242 5.55313 16.7218C4.86655 17.2134 3.99975 17.5583 2.76965 17.5293L2.73003 17.5283C2.49273 17.5228 2.23979 17.517 2.0335 17.4782C1.78504 17.4315 1.47764 17.3148 1.28525 16.9962C1.07586 16.6496 1.15981 16.299 1.24104 16.0782C1.3177 15.8698 1.45059 15.6254 1.58634 15.3758L1.60495 15.3415C2.00899 14.598 2.12155 13.9904 1.90552 13.5852C1.18438 12.5281 0.535638 11.2254 0.439534 9.78124C0.391249 9.05564 0.391249 8.30514 0.439534 7.57954C0.697658 3.70097 3.83693 0.599434 7.79356 0.344028ZM8.85765 6.60005C8.85765 6.34628 9.13733 5.96209 9.72407 5.96209C10.3108 5.96209 10.5905 6.34628 10.5905 6.60005C10.5905 6.70272 10.5565 6.80523 10.4832 6.90253C10.3845 7.0335 10.2574 7.17343 10.0969 7.34379L10.0199 7.42523C9.88549 7.56709 9.7317 7.72955 9.5916 7.89387C9.27015 8.27106 8.85765 8.83722 8.85765 9.55869V9.92856C8.85765 10.3932 9.24555 10.7699 9.72407 10.7699C10.2026 10.7699 10.5905 10.3932 10.5905 9.92856V9.55869C10.5905 9.4632 10.6482 9.29333 10.9265 8.96679C11.035 8.83941 11.1523 8.71556 11.286 8.57421L11.3751 8.47989C11.5366 8.30859 11.7213 8.10901 11.8815 7.8964C12.1557 7.53267 12.3233 7.08638 12.3233 6.60005C12.3233 5.21979 11.0513 4.27935 9.72407 4.27935C8.39681 4.27935 7.12483 5.21979 7.12483 6.60005C7.12483 7.06473 7.51274 7.44138 7.99124 7.44138C8.46976 7.44138 8.85765 7.06473 8.85765 6.60005ZM9.72407 11.8517C9.24555 11.8517 8.85765 12.2284 8.85765 12.6931C8.85765 13.1577 9.24555 13.5344 9.72407 13.5344H9.73447C10.213 13.5344 10.6009 13.1577 10.6009 12.6931C10.6009 12.2284 10.213 11.8517 9.73447 11.8517H9.72407Z" fill="white"/>
</svg>
