<svg width="15" height="15" viewBox="0 0 15 15" fill="none" xmlns="http://www.w3.org/2000/svg">
<circle opacity="0.2" cx="7.60046" cy="7.70007" r="7.20007" fill="#2669E8"/>
<path fill-rule="evenodd" clip-rule="evenodd" d="M6.7771 4.86308C7.25155 4.83473 7.74748 4.83467 8.22293 4.86308C9.70973 4.95193 10.8894 6.03084 10.9864 7.38006C11.0045 7.63247 11.0045 7.89354 10.9864 8.14595C10.8894 9.49516 9.70973 10.5741 8.22293 10.6629C7.74748 10.6913 7.25155 10.6913 6.7771 10.6629C6.59317 10.6519 6.39295 10.6128 6.21669 10.5476C6.13917 10.5189 6.08655 10.4995 6.04804 10.4868C6.02157 10.5031 5.9864 10.5264 5.93519 10.5603C5.67719 10.7313 5.35146 10.8513 4.88922 10.8412L4.87433 10.8409C4.78516 10.839 4.69011 10.8369 4.61259 10.8234C4.51922 10.8072 4.40371 10.7666 4.33141 10.6558C4.25273 10.5352 4.28427 10.4132 4.3148 10.3364C4.34361 10.2639 4.39354 10.1789 4.44456 10.0921L4.45155 10.0802C4.60338 9.82153 4.64567 9.61015 4.5645 9.46923C4.2935 9.1015 4.04972 8.64831 4.01361 8.14595C3.99546 7.89354 3.99546 7.63247 4.01361 7.38006C4.11061 6.03084 5.29028 4.95193 6.7771 4.86308ZM7.17696 7.03933C7.17696 6.95105 7.28206 6.8174 7.50254 6.8174C7.72303 6.8174 7.82812 6.95105 7.82812 7.03933C7.82812 7.07504 7.81536 7.1107 7.78782 7.14455C7.75073 7.19011 7.70297 7.23878 7.64264 7.29805L7.6137 7.32638C7.5632 7.37573 7.50541 7.43224 7.45276 7.4894C7.33197 7.62061 7.17696 7.81756 7.17696 8.06853V8.1972C7.17696 8.35885 7.32272 8.48988 7.50254 8.48988C7.68236 8.48988 7.82812 8.35885 7.82812 8.1972V8.06853C7.82812 8.03531 7.84981 7.97622 7.95439 7.86263C7.99518 7.81832 8.03923 7.77524 8.08947 7.72607L8.12297 7.69326C8.18366 7.63367 8.25304 7.56424 8.31327 7.49028C8.41629 7.36375 8.47929 7.2085 8.47929 7.03933C8.47929 6.55918 8.0013 6.23204 7.50254 6.23204C7.00378 6.23204 6.5258 6.55918 6.5258 7.03933C6.5258 7.20097 6.67157 7.332 6.85138 7.332C7.0312 7.332 7.17696 7.20097 7.17696 7.03933ZM7.50254 8.86618C7.32272 8.86618 7.17696 8.99722 7.17696 9.15886C7.17696 9.32051 7.32272 9.45155 7.50254 9.45155H7.50645C7.68627 9.45155 7.83203 9.32051 7.83203 9.15886C7.83203 8.99722 7.68627 8.86618 7.50645 8.86618H7.50254Z" fill="#2669E8"/>
</svg>
