<svg width="17" height="17" viewBox="0 0 17 17" fill="none" xmlns="http://www.w3.org/2000/svg">
<path d="M8.5 16C12.6421 16 16 12.6421 16 8.5C16 4.35786 12.6421 1 8.5 1C4.35786 1 1 4.35786 1 8.5C1 12.6421 4.35786 16 8.5 16Z" stroke="white" stroke-width="1.16471" stroke-linecap="round" stroke-linejoin="round"/>
<path d="M6.31752 6.25006C6.49385 5.74881 6.84188 5.32614 7.29999 5.05691C7.75809 4.78768 8.29669 4.68926 8.8204 4.77909C9.34411 4.86893 9.81913 5.1412 10.1613 5.54771C10.5035 5.95421 10.6908 6.4687 10.69 7.00006C10.69 8.50006 8.44002 9.25006 8.44002 9.25006" stroke="white" stroke-width="1.16471" stroke-linecap="round" stroke-linejoin="round"/>
<path d="M8.5 12.25H8.5075" stroke="white" stroke-width="1.16471" stroke-linecap="round" stroke-linejoin="round"/>
</svg>
