<svg width="20" height="20" viewBox="0 0 20 20" fill="none" xmlns="http://www.w3.org/2000/svg">
<rect x="0.736328" y="0.667969" width="19.2642" height="19.2642" rx="9.63212" fill="#2669E8" fill-opacity="0.2"/>
<path d="M11.8983 9.16644C11.4809 9.16644 11.1428 8.82817 11.1428 8.41093V6.89951C11.1428 6.69931 11.0635 6.50721 10.9218 6.36555C10.7802 6.22389 10.5875 6.14438 10.3873 6.14438H8.12074C7.70334 6.14438 7.36523 6.48264 7.36523 6.89989V13.6995C7.36523 14.1168 7.70334 14.4551 8.12074 14.4551H13.4094C13.6096 14.4551 13.8022 14.3755 13.9439 14.2337C14.0855 14.0921 14.1649 13.9 14.1649 13.6995V9.92195C14.1649 9.72156 14.0855 9.52946 13.9439 9.3878C13.8022 9.24596 13.6096 9.16644 13.4094 9.16644H11.8983Z" stroke="#2669E8" stroke-width="0.642142" stroke-miterlimit="10" stroke-linecap="round" stroke-linejoin="round"/>
<path d="M14.1643 9.92188C14.1643 9.43816 13.9717 8.97427 13.6298 8.6322C13.0802 8.08181 12.2264 7.22884 11.6767 6.67845C11.3349 6.33637 10.8702 6.14428 10.3867 6.14428C10.5869 6.14428 10.7796 6.2238 10.9212 6.36546C11.0629 6.50714 11.1422 6.69923 11.1422 6.89944V8.41083C11.1422 8.82808 11.4803 9.16637 11.8978 9.16637H13.4088C13.609 9.16637 13.8016 9.24588 13.9433 9.38754C14.085 9.5292 14.1643 9.72129 14.1643 9.9215V9.92188Z" stroke="#2669E8" stroke-width="0.642142" stroke-miterlimit="10" stroke-linecap="round" stroke-linejoin="round"/>
<path d="M9.63086 11.812L10.3864 12.9453L11.8974 10.6788" stroke="#2669E8" stroke-width="0.642142" stroke-miterlimit="10" stroke-linecap="round" stroke-linejoin="round"/>
</svg>
