<svg width="20" height="20" viewBox="0 0 20 20" fill="none" xmlns="http://www.w3.org/2000/svg">
<rect x="0.658203" y="0.667969" width="19.2642" height="19.2642" rx="9.63212" fill="#2669E8" fill-opacity="0.2"/>
<path d="M11.8749 9.16644C11.4575 9.16644 11.1194 8.82817 11.1194 8.41093V6.89951C11.1194 6.69931 11.04 6.50721 10.8984 6.36555C10.7567 6.22389 10.5641 6.14438 10.3639 6.14438H8.09731C7.6799 6.14438 7.3418 6.48264 7.3418 6.89989V13.6995C7.3418 14.1168 7.6799 14.4551 8.09731 14.4551H13.3859C13.5861 14.4551 13.7788 14.3755 13.9205 14.2337C14.0621 14.0921 14.1414 13.9 14.1414 13.6995V9.92195C14.1414 9.72156 14.0621 9.52946 13.9205 9.3878C13.7788 9.24596 13.5861 9.16644 13.3859 9.16644H11.8749Z" stroke="#2669E8" stroke-width="0.642142" stroke-miterlimit="10" stroke-linecap="round" stroke-linejoin="round"/>
<path d="M9.375 13.0703L12.1068 10.3351" stroke="#2669E8" stroke-width="0.6" stroke-miterlimit="10" stroke-linecap="round" stroke-linejoin="round"/>
<path d="M12.1426 13.0332L9.34204 10.3684" stroke="#2669E8" stroke-width="0.6" stroke-miterlimit="10" stroke-linecap="round" stroke-linejoin="round"/>
<path d="M14.1409 9.92188C14.1409 9.43816 13.9482 8.97427 13.6064 8.6322C13.0567 8.08181 12.203 7.22884 11.6533 6.67845C11.3114 6.33637 10.8468 6.14428 10.3633 6.14428C10.5635 6.14428 10.7561 6.2238 10.8978 6.36546C11.0395 6.50714 11.1188 6.69923 11.1188 6.89944V8.41083C11.1188 8.82808 11.4569 9.16637 11.8743 9.16637H13.3853C13.5856 9.16637 13.7782 9.24588 13.9199 9.38754C14.0615 9.5292 14.1409 9.72129 14.1409 9.9215V9.92188Z" stroke="#2669E8" stroke-width="0.642142" stroke-miterlimit="10" stroke-linecap="round" stroke-linejoin="round"/>
</svg>
