<svg width="21" height="23" viewBox="0 0 21 23" fill="none" xmlns="http://www.w3.org/2000/svg">
<path d="M18.0313 6.70884C19.2659 8.31174 20 10.3201 20 12.5003C20 17.7472 15.7466 22 10.5003 22C5.25405 22 1 17.7466 1 12.4997C1 7.25279 5.25342 3 10.4997 3" fill="#AFA8FD"/>
<path d="M18.0313 6.70884C19.2659 8.31174 20 10.3201 20 12.5003C20 17.7472 15.7466 22 10.5003 22C5.25405 22 1 17.7466 1 12.4997C1 7.25279 5.25342 3 10.4997 3" stroke="#152848" stroke-width="1.5" stroke-miterlimit="10"/>
<path d="M8 9H10.7406C11.4937 9.02039 13 9.47047 13 11.1077C13 13.1542 10.9027 13.5165 9.83577 13.5165C8.98222 13.5165 8.25628 13.5165 8 13.5165L13 18" stroke="white"/>
<path d="M14 9H7" stroke="white"/>
<path d="M14 11H7" stroke="white"/>
<path d="M8.29034 6.37308L10.3731 3.08273L7.08273 1" stroke="#152848" stroke-width="1.5" stroke-linecap="round" stroke-linejoin="round"/>
</svg>
