<svg width="15" height="14" viewBox="0 0 15 14" fill="none" xmlns="http://www.w3.org/2000/svg">
<path d="M7.39983 0.16153C6.72183 0.16153 6.17103 0.71233 6.17103 1.39033C6.17103 1.96153 6.56463 2.43793 7.09263 2.57593V3.54073H4.33743C2.97663 3.54073 1.87023 4.64713 1.87023 6.00793V7.22713H0.334229V10.9135H1.87023V13.6783H12.9294V10.9135H14.4654V7.22713H12.9294V6.00793C12.9294 4.64713 11.823 3.54073 10.4622 3.54073H7.70703V2.57593C8.23623 2.43793 8.62863 1.96153 8.62863 1.39033C8.62863 0.71233 8.07783 0.16153 7.39983 0.16153ZM7.39983 0.77593C7.73823 0.77593 8.01423 1.05193 8.01423 1.39033C8.01423 1.72873 7.73823 2.00473 7.39983 2.00473C7.06143 2.00473 6.78543 1.72873 6.78543 1.39033C6.78543 1.05193 7.06143 0.77593 7.39983 0.77593ZM4.33743 4.15513H10.4622C11.4834 4.15513 12.315 4.98673 12.315 6.00793V13.0639H10.4718V10.6063H4.32783V13.0639H2.48463V6.00793C2.48463 4.98673 3.31623 4.15513 4.33743 4.15513ZM5.40303 5.99833C4.64103 5.99833 4.02063 6.61873 4.02063 7.38073C4.02063 8.14273 4.64103 8.76313 5.40303 8.76313C6.16503 8.76313 6.78543 8.14273 6.78543 7.38073C6.78543 6.61873 6.16503 5.99833 5.40303 5.99833ZM9.39663 5.99833C8.63463 5.99833 8.01423 6.61873 8.01423 7.38073C8.01423 8.14273 8.63463 8.76313 9.39663 8.76313C10.1586 8.76313 10.779 8.14273 10.779 7.38073C10.779 6.61873 10.1586 5.99833 9.39663 5.99833ZM5.40303 6.61273C5.82663 6.61273 6.17103 6.95713 6.17103 7.38073C6.17103 7.80433 5.82663 8.14873 5.40303 8.14873C4.97943 8.14873 4.63503 7.80433 4.63503 7.38073C4.63503 6.95713 4.97943 6.61273 5.40303 6.61273ZM9.39663 6.61273C9.82023 6.61273 10.1646 6.95713 10.1646 7.38073C10.1646 7.80433 9.82023 8.14873 9.39663 8.14873C8.97303 8.14873 8.62863 7.80433 8.62863 7.38073C8.62863 6.95713 8.97303 6.61273 9.39663 6.61273ZM0.948628 7.84153H1.87023V10.2991H0.948628V7.84153ZM12.9294 7.84153H13.851V10.2991H12.9294V7.84153ZM4.94223 11.2207H6.17103V13.0639H4.94223V11.2207ZM6.78543 11.2207H8.01423V13.0639H6.78543V11.2207ZM8.62863 11.2207H9.85743V13.0639H8.62863V11.2207Z" fill="#0070F0"/>
</svg>
