<svg width="32" height="31" viewBox="0 0 32 31" fill="none" xmlns="http://www.w3.org/2000/svg">
<g filter="url(#filter0_d_155_230017)">
<rect x="3.86523" y="1.40039" width="24" height="24" rx="6" fill="url(#paint0_linear_155_230017)"/>
</g>
<path d="M18.3489 11.3224C17.7518 11.3224 17.2682 10.8386 17.2682 10.2419V8.08009C17.2682 7.79374 17.1548 7.51899 16.9522 7.31638C16.7496 7.11376 16.474 7.00003 16.1877 7.00003H12.9458C12.3488 7.00003 11.8652 7.48385 11.8652 8.08063V17.8061C11.8652 18.4029 12.3488 18.8867 12.9458 18.8867H20.5101C20.7965 18.8867 21.072 18.773 21.2746 18.5701C21.4772 18.3675 21.5907 18.0927 21.5907 17.8061V12.403C21.5907 12.1164 21.4772 11.8417 21.2746 11.6391C21.072 11.4362 20.7965 11.3224 20.5101 11.3224H18.3489Z" stroke="#F2F8FF" stroke-width="0.8" stroke-miterlimit="10" stroke-linecap="round" stroke-linejoin="round"/>
<path d="M21.5905 12.4023C21.5905 11.7105 21.315 11.047 20.826 10.5577C20.0399 9.77052 18.8188 8.55053 18.0326 7.76331C17.5437 7.27405 16.8791 6.9993 16.1875 6.9993C16.4739 6.9993 16.7494 7.11303 16.952 7.31564C17.1546 7.51829 17.2681 7.79304 17.2681 8.07939V10.2411C17.2681 10.8379 17.7517 11.3217 18.3487 11.3217H20.5099C20.7963 11.3217 21.0718 11.4355 21.2745 11.6381C21.477 11.8407 21.5905 12.1155 21.5905 12.4018V12.4023Z" stroke="#F2F8FF" stroke-width="0.8" stroke-miterlimit="10" stroke-linecap="round" stroke-linejoin="round"/>
<path d="M15.2852 16.582L18.4454 13.4178" stroke="#F2F8FF" stroke-width="0.8" stroke-miterlimit="10" stroke-linecap="round" stroke-linejoin="round"/>
<path d="M18.4854 16.541L15.2455 13.4582" stroke="#F2F8FF" stroke-width="0.8" stroke-miterlimit="10" stroke-linecap="round" stroke-linejoin="round"/>
<defs>
<filter id="filter0_d_155_230017" x="0.529778" y="0.187497" width="30.6709" height="30.6709" filterUnits="userSpaceOnUse" color-interpolation-filters="sRGB">
<feFlood flood-opacity="0" result="BackgroundImageFix"/>
<feColorMatrix in="SourceAlpha" type="matrix" values="0 0 0 0 0 0 0 0 0 0 0 0 0 0 0 0 0 0 127 0" result="hardAlpha"/>
<feOffset dy="2.12256"/>
<feGaussianBlur stdDeviation="1.66773"/>
<feColorMatrix type="matrix" values="0 0 0 0 0 0 0 0 0 0 0 0 0 0 0 0 0 0 0.02 0"/>
<feBlend mode="normal" in2="BackgroundImageFix" result="effect1_dropShadow_155_230017"/>
<feBlend mode="normal" in="SourceGraphic" in2="effect1_dropShadow_155_230017" result="shape"/>
</filter>
<linearGradient id="paint0_linear_155_230017" x1="25.9986" y1="23.5337" x2="-4.13477" y2="-8.46628" gradientUnits="userSpaceOnUse">
<stop stop-color="#74367E"/>
<stop offset="1" stop-color="#74367E" stop-opacity="0"/>
</linearGradient>
</defs>
</svg>
