<svg width="330" height="598" viewBox="0 0 330 598" fill="none" xmlns="http://www.w3.org/2000/svg">
<path d="M103.059 543.899H44.478L50.61 597.45H96.9267L103.059 543.899Z" fill="#595959" stroke="#F7F6FF" stroke-linecap="round" stroke-linejoin="round"/>
<path d="M110 506.608C110 506.608 84.4216 508.623 83.3536 527.501C83.3536 527.501 109.259 539.438 110 506.608Z" fill="#4680E0" stroke="#F7F6FF" stroke-linecap="round" stroke-linejoin="round"/>
<path d="M59.3944 511.31C59.3944 511.31 45.0981 491.984 22 501.888C22 501.888 36.1069 525.245 59.3944 511.31Z" fill="#4680E0" stroke="#F7F6FF" stroke-linecap="round" stroke-linejoin="round"/>
<path d="M23.9636 450.284C23.9636 450.284 19.847 487.454 53.6931 477.223C53.6931 477.223 42.945 449.888 23.9636 450.284Z" fill="#4680E0" stroke="#F7F6FF" stroke-linecap="round" stroke-linejoin="round"/>
<path d="M65.5091 429.597C65.5091 429.597 38.7422 444.031 58.4299 465.924C58.4299 465.924 77.2046 450.284 65.5091 429.597Z" fill="#4680E0" stroke="#F7F6FF" stroke-linecap="round" stroke-linejoin="round"/>
<path d="M98.4424 462.823C98.4424 462.823 69.3502 459.895 69.3502 486.817C69.3502 486.817 98.4424 487.971 98.4424 462.823Z" fill="#4680E0" stroke="#F7F6FF" stroke-linecap="round" stroke-linejoin="round"/>
<path d="M71.0037 565.964C71.0037 565.964 84.2666 538.129 71.5377 509.777C58.8088 481.426 54.5027 457.553 61.1513 440.707" stroke="#F7F6FF" stroke-linecap="round" stroke-linejoin="round"/>
<path d="M88.8827 470.057C88.8827 470.057 71.4343 476.982 65.509 494.947" stroke="#F7F6FF" stroke-linecap="round" stroke-linejoin="round"/>
<path d="M33.1615 465.166C33.1615 465.166 43.2378 478.894 60.3245 477.412" stroke="#F7F6FF" stroke-linecap="round" stroke-linejoin="round"/>
<path d="M33.1615 505.833C33.1615 505.833 61.0824 513.877 72.175 511.241" stroke="#F7F6FF" stroke-linecap="round" stroke-linejoin="round"/>
<path d="M101.663 515.117C101.663 515.117 89.1928 528.81 76.6361 528.604" stroke="#F7F6FF" stroke-linecap="round" stroke-linejoin="round"/>
<path d="M41.9631 550.272H105.573V542.711H41.9631V550.272Z" fill="#595959" stroke="#F7F6FF" stroke-linecap="round" stroke-linejoin="round"/>
<path d="M238 0H234V133H238V0Z" fill="#595959"/>
<path fill-rule="evenodd" clip-rule="evenodd" d="M237.045 142.958C232.065 142.958 228.03 146.993 228.03 151.973C228.03 156.954 232.065 160.989 237.045 160.989C242.026 160.989 246.061 156.954 246.061 151.973C246.061 146.993 242.026 142.958 237.045 142.958Z" fill="#F7F6FF"/>
<path fill-rule="evenodd" clip-rule="evenodd" d="M236.086 109.958C215.933 109.958 199.152 124.36 195.456 143.424H276.722C273.025 124.353 256.238 109.958 236.092 109.958H236.086Z" fill="#4680E0"/>
<path d="M280.135 142.958H190.603V150.561H280.135V142.958Z" fill="#595959"/>
<path d="M142 386L190.621 151L279.759 151L330 386H142Z" fill="url(#paint0_linear_73_1223)"/>
<rect opacity="0.2" x="1" y="147" width="100" height="137" fill="#4A82E1" stroke="black"/>
<rect opacity="0.2" x="10" y="156" width="82" height="118" fill="#4A82E1" stroke="black"/>
<defs>
<linearGradient id="paint0_linear_73_1223" x1="236" y1="148.638" x2="236" y2="386" gradientUnits="userSpaceOnUse">
<stop stop-color="white" stop-opacity="0.12"/>
<stop offset="1" stop-color="white" stop-opacity="0"/>
</linearGradient>
</defs>
</svg>
