<svg width="20" height="20" viewBox="0 0 20 20" fill="none" xmlns="http://www.w3.org/2000/svg">
<path d="M18.2894 13.5006C17.7168 14.8546 16.8213 16.0478 15.6811 16.9758C14.5409 17.9038 13.1907 18.5383 11.7486 18.8239C10.3065 19.1095 8.81636 19.0376 7.40851 18.6142C6.00066 18.1909 4.71793 17.4292 3.67249 16.3956C2.62704 15.362 1.8507 14.0881 1.41134 12.6852C0.971973 11.2822 0.882968 9.79304 1.1521 8.34777C1.42123 6.9025 2.04031 5.54516 2.95521 4.39441C3.87011 3.24367 5.05297 2.33457 6.40038 1.74658" stroke="#152848" stroke-width="1.5" stroke-linecap="round" stroke-linejoin="round"/>
<path d="M19.0004 9.99953C19.0004 8.81763 18.7676 7.64731 18.3153 6.55537C17.8631 5.46344 17.2001 4.47129 16.3644 3.63556C15.5287 2.79983 14.5365 2.13689 13.4446 1.6846C12.3526 1.2323 11.1823 0.999512 10.0004 0.999512V9.99953H19.0004Z" fill="#AFA8FD" stroke="#152848" stroke-width="1.5" stroke-linecap="round" stroke-linejoin="round"/>
</svg>
