<svg width="20" height="20" viewBox="0 0 20 20" fill="none" xmlns="http://www.w3.org/2000/svg">
<path d="M18.2894 13.5011C17.7168 14.8551 16.8213 16.0483 15.6811 16.9763C14.5409 17.9043 13.1907 18.5388 11.7486 18.8244C10.3065 19.11 8.81636 19.038 7.40851 18.6147C6.00066 18.1914 4.71793 17.4297 3.67249 16.3961C2.62704 15.3625 1.8507 14.0886 1.41134 12.6857C0.971973 11.2827 0.882968 9.79353 1.1521 8.34826C1.42123 6.90299 2.04031 5.54564 2.95521 4.3949C3.87011 3.24416 5.05297 2.33506 6.40038 1.74707" stroke="#152848" stroke-width="1.5" stroke-linecap="round" stroke-linejoin="round"/>
<path d="M19.0005 10C19.0005 8.81812 18.7677 7.64779 18.3154 6.55586C17.8631 5.46393 17.2002 4.47177 16.3645 3.63605C15.5287 2.80032 14.5366 2.13738 13.4446 1.68509C12.3527 1.23279 11.1824 1 10.0005 1V10H19.0005Z" fill="#053682" stroke="#152848" stroke-width="1.5" stroke-linecap="round" stroke-linejoin="round"/>
</svg>
