<svg width="20" height="25" viewBox="0 0 20 25" fill="none" xmlns="http://www.w3.org/2000/svg">
<path d="M2.7999 24.6001C2.1399 24.6001 1.5749 24.3763 1.1049 23.9287C0.634902 23.4811 0.399902 22.943 0.399902 22.3144V10.8858C0.399902 10.2572 0.634902 9.71915 1.1049 9.27153C1.5749 8.82391 2.1399 8.6001 2.7999 8.6001H3.9999V6.31438C3.9999 4.73343 4.5849 3.38581 5.7549 2.27153C6.9249 1.15724 8.3399 0.600098 9.9999 0.600098C11.6599 0.600098 13.0749 1.15724 14.2449 2.27153C15.4149 3.38581 15.9999 4.73343 15.9999 6.31438V8.6001H17.1999C17.8599 8.6001 18.4249 8.82391 18.8949 9.27153C19.3649 9.71915 19.5999 10.2572 19.5999 10.8858V22.3144C19.5999 22.943 19.3649 23.4811 18.8949 23.9287C18.4249 24.3763 17.8599 24.6001 17.1999 24.6001H2.7999ZM2.7999 22.3144H17.1999V10.8858H2.7999V22.3144ZM9.9999 18.8858C10.6599 18.8858 11.2249 18.662 11.6949 18.2144C12.1649 17.7668 12.3999 17.2287 12.3999 16.6001C12.3999 15.9715 12.1649 15.4334 11.6949 14.9858C11.2249 14.5382 10.6599 14.3144 9.9999 14.3144C9.3399 14.3144 8.7749 14.5382 8.3049 14.9858C7.8349 15.4334 7.5999 15.9715 7.5999 16.6001C7.5999 17.2287 7.8349 17.7668 8.3049 18.2144C8.7749 18.662 9.3399 18.8858 9.9999 18.8858ZM6.3999 8.6001H13.5999V6.31438C13.5999 5.362 13.2499 4.55248 12.5499 3.88581C11.8499 3.21915 10.9999 2.88581 9.9999 2.88581C8.9999 2.88581 8.1499 3.21915 7.4499 3.88581C6.7499 4.55248 6.3999 5.362 6.3999 6.31438V8.6001Z" fill="white"/>
</svg>
