<svg width="15" height="15" viewBox="0 0 15 15" fill="none" xmlns="http://www.w3.org/2000/svg">
<g clip-path="url(#clip0_2199_9446)">
<path d="M7.13585 3.27734H3.09345C2.78713 3.27734 2.49336 3.39903 2.27676 3.61563C2.06016 3.83223 1.93848 4.126 1.93848 4.43231V12.5171C1.93848 12.8234 2.06016 13.1172 2.27676 13.3338C2.49336 13.5504 2.78713 13.6721 3.09345 13.6721H11.1782C11.4846 13.6721 11.7783 13.5504 11.9949 13.3338C12.2115 13.1172 12.3332 12.8234 12.3332 12.5171V8.47471" stroke="white" stroke-width="0.989975" stroke-linecap="round" stroke-linejoin="round"/>
<path d="M11.4669 2.40958C11.6967 2.17985 12.0082 2.05078 12.3331 2.05078C12.658 2.05078 12.9696 2.17985 13.1994 2.40958C13.4291 2.63932 13.5582 2.95091 13.5582 3.27581C13.5582 3.60071 13.4291 3.9123 13.1994 4.14204L7.71326 9.62815L5.40332 10.2056L5.98081 7.8957L11.4669 2.40958Z" stroke="white" stroke-width="0.989975" stroke-linecap="round" stroke-linejoin="round"/>
</g>
<defs>
<clipPath id="clip0_2199_9446">
<rect width="13.8596" height="13.8596" fill="white" transform="translate(0.783203 0.966797)"/>
</clipPath>
</defs>
</svg>
