<svg width="14" height="14" viewBox="0 0 14 14" fill="none" xmlns="http://www.w3.org/2000/svg">
<g clip-path="url(#clip0_2199_9440)">
<path d="M1.39941 2.50781H4.63333C5.20512 2.50781 5.7535 2.73496 6.15782 3.13927C6.56213 3.54359 6.78928 4.09197 6.78928 4.66376V12.2096C6.78928 11.7807 6.61892 11.3694 6.31568 11.0662C6.01244 10.763 5.60116 10.5926 5.17232 10.5926H1.39941V2.50781Z" stroke="white" stroke-width="1.07797" stroke-linecap="round" stroke-linejoin="round"/>
<path d="M12.1789 2.50781H8.94501C8.37322 2.50781 7.82484 2.73496 7.42052 3.13927C7.01621 3.54359 6.78906 4.09197 6.78906 4.66376V12.2096C6.78906 11.7807 6.95942 11.3694 7.26266 11.0662C7.5659 10.763 7.97718 10.5926 8.40602 10.5926H12.1789V2.50781Z" stroke="white" stroke-width="1.07797" stroke-linecap="round" stroke-linejoin="round"/>
</g>
<defs>
<clipPath id="clip0_2199_9440">
<rect width="12.9357" height="12.9357" fill="white" transform="translate(0.321289 0.890625)"/>
</clipPath>
</defs>
</svg>
