
<svg width="21" height="20" viewBox="0 0 21 20" fill="none" xmlns="http://www.w3.org/2000/svg">
<path d="M1.54881 11.1701V13.1965C1.54881 13.3691 1.62065 13.5273 1.76433 13.671C1.90802 13.8146 2.06618 13.8865 2.23883 13.8865H18.796C18.9686 13.8865 19.1268 13.8146 19.2705 13.671C19.4141 13.5273 19.486 13.3691 19.486 13.1965V11.1701H1.54881ZM2.23883 0.433594H18.796C19.2977 0.433594 19.725 0.609976 20.0779 0.962741C20.4307 1.31569 20.6071 1.74301 20.6071 2.24469V13.1965C20.6071 13.6981 20.4307 14.1255 20.0779 14.4784C19.725 14.8312 19.2977 15.0076 18.796 15.0076H13.7943V19.7937L10.5174 18.1553L7.2405 19.7937V15.0076H2.23883C1.73715 15.0076 1.30983 14.8312 0.956881 14.4784C0.604117 14.1255 0.427734 13.6981 0.427734 13.1965V2.24469C0.427734 1.74301 0.604117 1.31569 0.956881 0.962741C1.30983 0.609976 1.73715 0.433594 2.23883 0.433594ZM1.54881 8.75533H19.486V2.24469C19.486 2.07204 19.4141 1.91388 19.2705 1.77019C19.1268 1.62651 18.9686 1.55467 18.796 1.55467H2.23883C2.06618 1.55467 1.90802 1.62651 1.76433 1.77019C1.62065 1.91388 1.54881 2.07204 1.54881 2.24469V8.75533ZM1.54881 13.1965V1.55467H2.23883C2.06618 1.55467 1.90802 1.62651 1.76433 1.77019C1.62065 1.91388 1.54881 2.07204 1.54881 2.24469V13.1965C1.54881 13.3691 1.62065 13.5273 1.76433 13.671C1.90802 13.8146 2.06618 13.8865 2.23883 13.8865H1.54881V13.1965Z" fill="#666666"/>
</svg>
