<svg width="35" height="45" viewBox="0 0 35 45" fill="none" xmlns="http://www.w3.org/2000/svg">
<path d="M34.2478 17.1823L32.3255 19.5996L33.4145 22.4923L30.8392 24.1929L30.9783 27.282L28.0057 28.1003L27.1901 31.0829L24.1115 30.9434L22.4166 33.5274L19.5336 32.4347L17.1245 34.3635L14.7154 32.4347L11.8312 33.5274L10.1363 30.9434L7.05771 31.0829L6.24209 28.1003L3.26955 27.282L3.40863 24.1929L0.8333 22.4923L1.92237 19.5996L0 17.1823L1.92237 14.7651L0.8333 11.8712L3.40863 10.1718L3.26955 7.08155L6.24209 6.26318L7.05771 3.2806L10.1363 3.42015L11.8312 0.837298L14.7154 1.92886L17.1245 0L19.5336 1.92886L22.4166 0.837298L24.1115 3.42015L27.1901 3.2806L28.0057 6.26318L30.9783 7.08155L30.8392 10.1718L33.4145 11.8712L32.3255 14.7651L34.2478 17.1823Z" fill="#5E91DF"/>
<path d="M34.0344 19.8896L31.7561 21.9734L32.376 25.0032L29.5673 26.2746L29.2185 29.347L26.1552 29.6853L24.8811 32.5011L21.8626 31.8767L19.7834 34.1603L17.1067 32.6253L14.4253 34.1497L12.3497 31.8636L9.33005 32.4857L8.06301 29.6663L4.99971 29.3175L4.6638 26.2438L1.85627 24.9654L2.4786 21.9367L0.202637 19.8506L1.73251 17.166L0.213244 14.4743L2.49156 12.3906L1.87159 9.36186L4.68148 8.09054L5.02918 5.01689L8.09365 4.67985L9.36658 1.86284L12.3863 2.48726L14.4654 0.203613L17.1409 1.73866L19.8223 0.21544L21.8991 2.50145L24.9176 1.87821L26.1858 4.69759L29.2479 5.04646L29.585 8.12128L32.3914 9.39852L31.769 12.4272L34.045 14.5146L32.5163 17.1991L34.0344 19.8896Z" fill="#053682"/>
<path d="M17.1246 31.1904C9.4257 31.1904 3.16357 24.9059 3.16357 17.181C3.16357 9.45614 9.4257 3.17285 17.1246 3.17285C24.8235 3.17285 31.0868 9.45732 31.0868 17.181C31.0868 24.9048 24.8235 31.1904 17.1246 31.1904ZM17.1246 3.57376C9.64611 3.57376 3.56313 9.67847 3.56313 17.1822C3.56313 24.686 9.64729 30.7907 17.1246 30.7907C24.6019 30.7907 30.6872 24.686 30.6872 17.1822C30.6872 9.67847 24.6031 3.57376 17.1246 3.57376Z" fill="url(#paint0_linear_3404_1975)"/>
<path d="M32.9968 40.6407L25.7422 38.0342L22.3972 44.9999L13.1001 22.2415L23.6985 17.8823L32.9968 40.6407Z" fill="#053682"/>
<path d="M22.6923 44.3756L23.2946 43.1221L14.5243 21.6562L13.5708 22.0489L22.6923 44.3756Z" fill="white"/>
<path d="M32.3333 40.4103L31.0274 39.9408L22.2583 18.4749L23.2118 18.0835L32.3333 40.4103Z" fill="white"/>
<path d="M1.47314 40.6407L8.72769 38.0342L12.0727 44.9999L21.3698 22.2415L10.7715 17.8823L1.47314 40.6407Z" fill="#053682"/>
<path d="M11.7781 44.3756L11.1758 43.1221L19.9461 21.6562L20.8996 22.0489L11.7781 44.3756Z" fill="white"/>
<path d="M2.13525 40.4103L3.44119 39.9408L12.2115 18.4749L11.2579 18.0835L2.13525 40.4103Z" fill="white"/>
<path d="M31.4648 17.1824C31.4648 25.1285 25.0447 31.5714 17.1242 31.5714C9.20376 31.5714 2.78369 25.1285 2.78369 17.1824C2.78369 9.23639 9.20376 2.79346 17.1242 2.79346C25.0447 2.79346 31.4648 9.23521 31.4648 17.1813V17.1824Z" fill="#5E91DF"/>
<path d="M17.1247 3.97949C9.85716 3.97949 3.96631 9.89025 3.96631 17.1823C3.96631 24.4744 9.85716 30.3851 17.1247 30.3851C24.3922 30.3851 30.283 24.4744 30.283 17.1823C30.283 9.89025 24.3922 3.97949 17.1247 3.97949ZM17.1247 27.9028C11.2232 27.9028 6.4391 23.1025 6.4391 17.1811C6.4391 11.2597 11.2232 6.45946 17.1247 6.45946C23.0261 6.45946 27.8102 11.2597 27.8102 17.1811C27.8102 23.1025 23.0261 27.9028 17.1247 27.9028Z" fill="white"/>
<defs>
<linearGradient id="paint0_linear_3404_1975" x1="3.1624" y1="17.1822" x2="31.0856" y2="17.1822" gradientUnits="userSpaceOnUse">
<stop stop-color="#8B5E3C"/>
<stop offset="0.25" stop-color="#FBB040"/>
<stop offset="0.54" stop-color="#F4EEC2"/>
<stop offset="0.8" stop-color="#FBB040"/>
<stop offset="1" stop-color="#8B5E3C"/>
</linearGradient>
</defs>
</svg>
