<svg width="21" height="20" viewBox="0 0 21 20" fill="none" xmlns="http://www.w3.org/2000/svg">
<path d="M1.54881 11.3693V13.3957C1.54881 13.5683 1.62065 13.7265 1.76433 13.8702C1.90802 14.0139 2.06618 14.0857 2.23883 14.0857H18.796C18.9686 14.0857 19.1268 14.0139 19.2705 13.8702C19.4142 13.7265 19.486 13.5683 19.486 13.3957V11.3693H1.54881ZM2.23883 0.632812H18.796C19.2977 0.632812 19.725 0.809195 20.0779 1.16196C20.4307 1.51491 20.6071 1.94223 20.6071 2.44391V13.3957C20.6071 13.8974 20.4307 14.3247 20.0779 14.6776C19.725 15.0304 19.2977 15.2068 18.796 15.2068H13.7943V19.9929L10.5174 18.3545L7.2405 19.9929V15.2068H2.23883C1.73715 15.2068 1.30983 15.0304 0.956881 14.6776C0.604117 14.3247 0.427734 13.8974 0.427734 13.3957V2.44391C0.427734 1.94223 0.604117 1.51491 0.956881 1.16196C1.30983 0.809195 1.73715 0.632812 2.23883 0.632812ZM1.54881 8.95454H19.486V2.44391C19.486 2.27126 19.4142 2.1131 19.2705 1.96941C19.1268 1.82573 18.9686 1.75389 18.796 1.75389H2.23883C2.06618 1.75389 1.90802 1.82573 1.76433 1.96941C1.62065 2.1131 1.54881 2.27126 1.54881 2.44391V8.95454ZM1.54881 13.3957V1.75389H2.23883C2.06618 1.75389 1.90802 1.82573 1.76433 1.96941C1.62065 2.1131 1.54881 2.27126 1.54881 2.44391V13.3957C1.54881 13.5683 1.62065 13.7265 1.76433 13.8702C1.90802 14.0139 2.06618 14.0857 2.23883 14.0857H1.54881V13.3957Z" fill="#2669E8"/>
</svg>
