<svg width="21" height="20" viewBox="0 0 21 20" fill="none" xmlns="http://www.w3.org/2000/svg">
<path d="M1.54881 11.1691V13.1955C1.54881 13.3681 1.62065 13.5263 1.76433 13.67C1.90802 13.8137 2.06618 13.8855 2.23883 13.8855H18.796C18.9686 13.8855 19.1268 13.8137 19.2705 13.67C19.4142 13.5263 19.486 13.3681 19.486 13.1955V11.1691H1.54881ZM2.23883 0.432617H18.796C19.2977 0.432617 19.725 0.609 20.0779 0.961764C20.4307 1.31472 20.6071 1.74203 20.6071 2.24371V13.1955C20.6071 13.6972 20.4307 14.1245 20.0779 14.4774C19.725 14.8302 19.2977 15.0066 18.796 15.0066H13.7943V19.7927L10.5174 18.1543L7.2405 19.7927V15.0066H2.23883C1.73715 15.0066 1.30983 14.8302 0.956881 14.4774C0.604117 14.1245 0.427734 13.6972 0.427734 13.1955V2.24371C0.427734 1.74203 0.604117 1.31472 0.956881 0.961764C1.30983 0.609 1.73715 0.432617 2.23883 0.432617ZM1.54881 8.75435H19.486V2.24371C19.486 2.07107 19.4142 1.9129 19.2705 1.76922C19.1268 1.62553 18.9686 1.55369 18.796 1.55369H2.23883C2.06618 1.55369 1.90802 1.62553 1.76433 1.76922C1.62065 1.9129 1.54881 2.07107 1.54881 2.24371V8.75435ZM1.54881 13.1955V1.55369H2.23883C2.06618 1.55369 1.90802 1.62553 1.76433 1.76922C1.62065 1.9129 1.54881 2.07107 1.54881 2.24371V13.1955C1.54881 13.3681 1.62065 13.5263 1.76433 13.67C1.90802 13.8137 2.06618 13.8855 2.23883 13.8855H1.54881V13.1955Z" fill="#666666"/>
</svg>
