<svg width="15" height="15" viewBox="0 0 15 15" fill="none" xmlns="http://www.w3.org/2000/svg">
<g clip-path="url(#clip0_2199_9434)">
<path d="M13.8759 4.67291C13.8073 4.39884 13.6676 4.14772 13.4709 3.94493C13.2742 3.74214 13.0274 3.59485 12.7556 3.51793C11.7623 3.27539 7.78919 3.27539 7.78919 3.27539C7.78919 3.27539 3.81609 3.27539 2.82282 3.54103C2.55097 3.61795 2.30422 3.76524 2.10751 3.96803C1.91081 4.17082 1.7711 4.42194 1.7025 4.696C1.52071 5.70404 1.43179 6.72662 1.43685 7.7509C1.43037 8.78289 1.5193 9.81328 1.7025 10.8289C1.77812 11.0945 1.92096 11.336 2.11721 11.5302C2.31347 11.7245 2.55649 11.8648 2.82282 11.9377C3.81609 12.2033 7.78919 12.2033 7.78919 12.2033C7.78919 12.2033 11.7623 12.2033 12.7556 11.9377C13.0274 11.8608 13.2742 11.7135 13.4709 11.5107C13.6676 11.3079 13.8073 11.0568 13.8759 10.7827C14.0563 9.78226 14.1452 8.76747 14.1415 7.7509C14.148 6.71891 14.0591 5.68853 13.8759 4.67291Z" stroke="white" stroke-width="1.15497" stroke-linecap="round" stroke-linejoin="round"/>
<path d="M6.48975 9.64004L9.81029 7.75166L6.48975 5.86328V9.64004Z" fill="white" stroke="white" stroke-width="1.15497" stroke-linecap="round" stroke-linejoin="round"/>
</g>
<defs>
<clipPath id="clip0_2199_9434">
<rect width="13.8596" height="13.8596" fill="white" transform="translate(0.859375 0.964844)"/>
</clipPath>
</defs>
</svg>
