<svg width="29" height="29" viewBox="0 0 29 29" fill="none" xmlns="http://www.w3.org/2000/svg">
<circle cx="14.1514" cy="14.541" r="13.5" stroke="#666666"/>
<path d="M15.3335 9.60111C15.3335 7.91464 13.9622 6.54102 12.2734 6.54102C10.5844 6.54102 9.21582 7.91464 9.21582 9.60111C9.21582 11.2874 10.5869 12.6612 12.2759 12.6612C13.9647 12.6612 15.3335 11.2899 15.3335 9.60111ZM10.0615 9.60111C10.0615 8.38118 11.0534 7.3867 12.2759 7.3867C13.4958 7.3867 14.4901 8.37864 14.4901 9.60111C14.4901 10.821 13.4984 11.8153 12.2759 11.8153C11.056 11.8153 10.0615 10.8236 10.0615 9.60111Z" fill="#666666"/>
<path d="M22.8145 17.4098C22.3892 17.0279 21.7792 16.9074 21.2231 17.0895L19.5622 17.6329C19.4162 17.6815 19.2521 17.6149 19.1804 17.4764L17.63 14.483C17.2403 13.7322 16.4664 13.2656 15.6129 13.2656H9.13895C7.38091 13.2656 5.94824 14.6958 5.94824 16.4563V17.8634C5.94824 18.9167 6.46856 19.9036 7.33985 20.4982C7.33985 20.4982 7.34239 20.4982 7.34239 20.5007C7.34239 20.5007 7.34239 20.5007 7.34493 20.5033L7.42706 20.5571H7.4296C7.71156 20.7493 8.02676 20.8953 8.35486 20.9851V21.1824C8.35486 21.8206 8.87498 22.3409 9.5132 22.3409H15.2208C15.859 22.3409 16.3791 21.8206 16.3791 21.1824V19.132L16.4433 19.2552C16.7919 19.9239 17.3685 20.4521 18.0707 20.7364C18.4577 20.8928 18.8677 20.9722 19.2779 20.9722C19.6137 20.9722 19.9494 20.9184 20.2697 20.8134L22.2303 20.1701C22.7838 19.9906 23.1991 19.5242 23.3196 18.9552C23.44 18.3888 23.2478 17.7942 22.8145 17.4098ZM17.1916 18.8655L16.3305 17.2048C16.3305 17.2048 16.3305 17.2023 16.3279 17.2023C16.3228 17.1945 16.3178 17.1868 16.3127 17.1767C16.3099 17.1714 16.3074 17.1689 16.3048 17.1638C16.2998 17.1587 16.2972 17.1511 16.2921 17.1458C16.2869 17.1407 16.2843 17.1356 16.2792 17.1305C16.2767 17.128 16.2741 17.1253 16.2716 17.1227C16.246 17.0946 16.2204 17.0689 16.1895 17.0484C16.1486 17.0203 16.0999 16.9997 16.0485 16.987C16.046 16.987 16.0434 16.9845 16.0383 16.9845C16.0307 16.9817 16.0229 16.9817 16.0178 16.9817C16.0102 16.9817 16.0051 16.9792 15.9973 16.9792C15.9922 16.9792 15.9871 16.9792 15.982 16.9792C15.9717 16.9792 15.964 16.9766 15.9539 16.9766H15.9511C15.9486 16.9766 15.9435 16.9766 15.941 16.9766C15.9308 16.9766 15.923 16.9766 15.9128 16.9792C15.9077 16.9792 15.9024 16.9817 15.8974 16.9817C15.8897 16.9817 15.8821 16.9845 15.8717 16.9845C15.8641 16.987 15.859 16.987 15.8512 16.9896C15.8436 16.9921 15.8385 16.9921 15.8307 16.9946C15.8231 16.9972 15.8154 16.9997 15.8076 17.0023C15.8025 17.0048 15.7974 17.0048 15.7924 17.0075C15.782 17.0101 15.7744 17.0152 15.7667 17.0203C15.7642 17.0228 15.7615 17.0228 15.7564 17.0253C15.7564 17.0253 15.7538 17.0253 15.7538 17.0279C15.7462 17.0332 15.7358 17.0382 15.7282 17.0433C15.7231 17.0459 15.7206 17.0484 15.7155 17.0509C15.7102 17.0562 15.7026 17.0588 15.6975 17.0639C15.6924 17.0689 15.6872 17.0715 15.6821 17.0766C15.6795 17.0793 15.677 17.0818 15.6744 17.0844C15.6463 17.11 15.6207 17.1356 15.6001 17.1663C15.572 17.2074 15.5515 17.2561 15.5386 17.3048C15.5386 17.3073 15.536 17.3124 15.536 17.3149C15.5335 17.3227 15.5335 17.3278 15.5335 17.3355C15.5335 17.3433 15.5309 17.3509 15.5309 17.356V17.3714C15.5309 17.3816 15.5284 17.3892 15.5284 17.3996V17.4021V21.1849C15.5284 21.3593 15.3925 21.4976 15.2157 21.4976H9.5132C9.33898 21.4976 9.20054 21.3593 9.20054 21.1849V21.103H9.20817C9.60549 21.103 10.0028 21.0287 10.3743 20.8852C10.4103 20.8799 10.4461 20.8697 10.4795 20.8543L11.1586 20.5621L11.3379 20.7211C11.4867 20.8492 11.6711 20.9133 11.8557 20.9133C12.0403 20.9133 12.2249 20.8492 12.3735 20.7211L14.4981 18.8706C14.698 18.6964 14.7646 18.4068 14.662 18.1684L13.619 15.7465C13.619 15.7465 13.619 15.7465 13.619 15.744C13.5396 15.5594 13.3806 15.4261 13.191 15.3852C12.9988 15.3441 12.804 15.4005 12.6554 15.5389L10.7511 17.3022L9.15186 15.5876C8.97236 15.3954 8.68277 15.3365 8.44715 15.4466C8.21388 15.5543 8.07545 15.8054 8.1036 16.0694L8.33942 18.1659C8.36503 18.3966 8.48802 18.6015 8.67515 18.7298C8.67515 18.7298 8.67769 18.7298 8.67769 18.7323H8.68023L8.76235 18.7861C8.76744 18.7887 8.76998 18.7912 8.77506 18.7937C8.90588 18.8784 9.05702 18.922 9.20817 18.922C9.31337 18.922 9.41837 18.9015 9.51574 18.8604L10.846 18.2889C11.1817 18.1864 11.5354 18.353 11.6736 18.6784C11.8121 19.0039 11.6891 19.3729 11.3841 19.5448L10.2412 20.0367C10.2103 20.0418 10.1796 20.0522 10.1489 20.0649C9.40038 20.3854 8.55978 20.3058 7.90123 19.8549C7.90123 19.8549 7.90123 19.8549 7.89868 19.8549C7.89868 19.8549 7.89595 19.8549 7.89595 19.8522L7.81656 19.7984C7.1758 19.3602 6.79392 18.6375 6.79392 17.8608V16.4538C6.79392 15.1621 7.84472 14.1088 9.13895 14.1088H15.6103C16.1486 14.1088 16.633 14.4009 16.8764 14.87L18.427 17.8634C18.6321 18.2582 19.0343 18.4914 19.4572 18.4914C19.5777 18.4914 19.7007 18.4735 19.8237 18.4324L21.4845 17.889C21.7587 17.7995 22.0432 17.8532 22.2483 18.0351C22.4557 18.2197 22.548 18.5042 22.4917 18.7785C22.4329 19.0526 22.2328 19.2755 21.9663 19.3627L20.0057 20.0111C18.9088 20.3699 17.7248 19.8881 17.1916 18.8655ZM9.21071 18.0685L9.17747 18.0454L9.02378 16.6896L9.99499 17.7302L9.21071 18.0685ZM12.9782 16.3899L13.8188 18.3401L12.4683 19.5164C12.6144 19.1525 12.6194 18.7323 12.4503 18.3401C12.2992 17.9838 12.0299 17.7148 11.7096 17.5611L12.9782 16.3899Z" fill="#666666"/>
</svg>
