<svg width="17" height="17" viewBox="0 0 17 17" fill="none" xmlns="http://www.w3.org/2000/svg">
<g clip-path="url(#clip0_59_2057)">
<path d="M8.3807 0.274414C3.7621 0.274414 0.0212402 4.01527 0.0212402 8.63387C0.0212402 13.2525 3.7621 16.9933 8.3807 16.9933C12.9993 16.9933 16.7402 13.2525 16.7402 8.63387C16.7402 4.01527 12.9993 0.274414 8.3807 0.274414ZM7.46116 10.7237C7.46116 11.2462 7.04318 11.6433 6.54162 11.6433C6.01915 11.6433 5.62208 11.2253 5.62208 10.7237V6.54401C5.60118 6.04244 6.01915 5.62447 6.52072 5.62447C7.04318 5.62447 7.46116 6.04244 7.46116 6.54401V10.7237ZM11.1602 10.7237C11.1602 11.2462 10.7422 11.6433 10.2407 11.6433C9.71821 11.6433 9.32114 11.2253 9.32114 10.7237V6.54401C9.30024 6.04244 9.71821 5.62447 10.2198 5.62447C10.7422 5.62447 11.1602 6.04244 11.1602 6.54401V10.7237Z" fill="black"/>
</g>
<defs>
<clipPath id="clip0_59_2057">
<rect width="16.7189" height="16.7189" fill="white" transform="translate(0.0205078 0.273438)"/>
</clipPath>
</defs>
</svg>
