<svg width="17" height="17" viewBox="0 0 17 17" fill="none" xmlns="http://www.w3.org/2000/svg">
<path d="M4.83468 6.98048H2.20305C1.53863 6.98048 1 7.51911 1 8.18353V12.8412C1 13.5056 1.53863 14.0442 2.20305 14.0442H2.33572L2.85879 14.9502L3.46504 16.0002L4.0713 14.9502L4.59434 14.0442H10.9622C11.6267 14.0442 12.1653 13.5056 12.1653 12.8412V10.133" stroke="#989898" stroke-miterlimit="10" stroke-linecap="round" stroke-linejoin="round"/>
<path d="M14.7969 3.06856H14.5565L13.9685 2.05003L13.3622 0.999964L12.756 2.05003L12.1679 3.06856H6.03778C5.37333 3.06856 4.83473 3.6072 4.83473 4.27162V8.92924C4.83473 9.59369 5.37333 10.1323 6.03778 10.1323H14.7969C15.4614 10.1323 16 9.59369 16 8.92924V4.27162C16 3.6072 15.4614 3.06856 14.7969 3.06856Z" stroke="#989898" stroke-miterlimit="10" stroke-linecap="round" stroke-linejoin="round"/>
<path d="M7.0539 5.56128H13.7808" stroke="#989898" stroke-miterlimit="10" stroke-linecap="round" stroke-linejoin="round"/>
<path d="M7.0539 7.54785H13.7808" stroke="#989898" stroke-miterlimit="10" stroke-linecap="round" stroke-linejoin="round"/>
</svg>
