<svg width="32" height="32" viewBox="0 0 32 32" fill="none" xmlns="http://www.w3.org/2000/svg">
<g filter="url(#filter0_d_155_227318)">
<rect x="4" y="1.66016" width="24" height="24" rx="6" fill="url(#paint0_linear_155_227318)"/>
</g>
<path fill-rule="evenodd" clip-rule="evenodd" d="M14.7607 7.69918C15.5741 7.6472 16.4242 7.64709 17.2393 7.69918C19.7881 7.86207 21.8104 9.84007 21.9767 12.3136C22.0078 12.7764 22.0078 13.255 21.9767 13.7178C21.8104 16.1913 19.7881 18.1693 17.2393 18.3322C16.4242 18.3843 15.5741 18.3842 14.7607 18.3322C14.4454 18.3121 14.1022 18.2404 13.8 18.1208C13.6671 18.0681 13.5769 18.0326 13.5109 18.0093C13.4655 18.0393 13.4053 18.0819 13.3175 18.1441C12.8752 18.4576 12.3168 18.6776 11.5244 18.6591L11.4989 18.6585C11.346 18.6549 11.183 18.6512 11.0502 18.6265C10.8901 18.5967 10.6921 18.5223 10.5681 18.3191C10.4332 18.0981 10.4873 17.8745 10.5397 17.7337C10.589 17.6008 10.6746 17.4449 10.7621 17.2857L10.7741 17.2638C11.0344 16.7897 11.1069 16.4021 10.9677 16.1438C10.5032 15.4696 10.0852 14.6388 10.0233 13.7178C9.99222 13.255 9.99222 12.7764 10.0233 12.3136C10.1896 9.84007 12.2119 7.86207 14.7607 7.69918ZM15.4462 11.689C15.4462 11.5271 15.6264 11.2821 16.0044 11.2821C16.3823 11.2821 16.5625 11.5271 16.5625 11.689C16.5625 11.7544 16.5406 11.8198 16.4934 11.8819C16.4298 11.9654 16.348 12.0546 16.2445 12.1633L16.1949 12.2152C16.1083 12.3057 16.0093 12.4093 15.919 12.5141C15.7119 12.7547 15.4462 13.1157 15.4462 13.5758V13.8117C15.4462 14.1081 15.6961 14.3483 16.0044 14.3483C16.3126 14.3483 16.5625 14.1081 16.5625 13.8117V13.5758C16.5625 13.5149 16.5997 13.4066 16.7789 13.1984C16.8489 13.1171 16.9244 13.0381 17.0105 12.948L17.068 12.8878C17.172 12.7786 17.2909 12.6513 17.3942 12.5157C17.5708 12.2837 17.6788 11.9991 17.6788 11.689C17.6788 10.8087 16.8594 10.2089 16.0044 10.2089C15.1493 10.2089 14.3299 10.8087 14.3299 11.689C14.3299 11.9853 14.5798 12.2255 14.8881 12.2255C15.1963 12.2255 15.4462 11.9853 15.4462 11.689ZM16.0044 15.0382C15.6961 15.0382 15.4462 15.2784 15.4462 15.5748C15.4462 15.8711 15.6961 16.1114 16.0044 16.1114H16.0111C16.3193 16.1114 16.5692 15.8711 16.5692 15.5748C16.5692 15.2784 16.3193 15.0382 16.0111 15.0382H16.0044Z" fill="white"/>
<defs>
<filter id="filter0_d_155_227318" x="0.664544" y="0.447263" width="30.6709" height="30.6709" filterUnits="userSpaceOnUse" color-interpolation-filters="sRGB">
<feFlood flood-opacity="0" result="BackgroundImageFix"/>
<feColorMatrix in="SourceAlpha" type="matrix" values="0 0 0 0 0 0 0 0 0 0 0 0 0 0 0 0 0 0 127 0" result="hardAlpha"/>
<feOffset dy="2.12256"/>
<feGaussianBlur stdDeviation="1.66773"/>
<feColorMatrix type="matrix" values="0 0 0 0 0 0 0 0 0 0 0 0 0 0 0 0 0 0 0.02 0"/>
<feBlend mode="normal" in2="BackgroundImageFix" result="effect1_dropShadow_155_227318"/>
<feBlend mode="normal" in="SourceGraphic" in2="effect1_dropShadow_155_227318" result="shape"/>
</filter>
<linearGradient id="paint0_linear_155_227318" x1="26.1333" y1="23.7935" x2="-4" y2="-8.20651" gradientUnits="userSpaceOnUse">
<stop stop-color="#2669E8"/>
<stop offset="1" stop-color="#2669E8" stop-opacity="0"/>
</linearGradient>
</defs>
</svg>
