<svg width="38" height="21" viewBox="0 0 38 21" fill="none" xmlns="http://www.w3.org/2000/svg">
<path d="M34.9715 19.4543C34.6655 19.4541 34.363 19.3892 34.0835 19.2638C34.0184 19.2348 33.9564 19.1993 33.8983 19.1579L28.2482 15.1545C27.9617 14.9515 27.7278 14.6821 27.5664 14.369C27.405 14.0559 27.3206 13.7084 27.3206 13.3556V7.8958C27.3206 7.54307 27.4049 7.19552 27.5664 6.88245C27.7278 6.56939 27.9617 6.29998 28.2482 6.09694L33.8983 2.09351C33.9564 2.05214 34.0184 2.01667 34.0834 1.98761C34.4163 1.83867 34.7808 1.77579 35.1439 1.8047C35.507 1.83361 35.8571 1.9534 36.1626 2.15316C36.468 2.35293 36.719 2.62635 36.8927 2.94858C37.0665 3.2708 37.1575 3.63163 37.1575 3.99827V17.2532C37.1575 17.8368 36.9272 18.3965 36.5172 18.8091C36.1073 19.2218 35.5513 19.4536 34.9715 19.4536L34.9715 19.4543Z" fill="white"/>
<path d="M22.3268 20.5271H6.56838C3.35338 20.5245 0.747932 18.4325 0.744629 15.8512V5.39908C0.747933 2.81773 3.35338 0.725798 6.56838 0.723145H22.3679C25.56 0.726177 28.1467 2.80312 28.1505 5.36608V15.8512C28.1472 18.4325 25.5418 20.5245 22.3268 20.5271Z" fill="white"/>
</svg>
