<svg width="35" height="35" viewBox="0 0 35 35" fill="none" xmlns="http://www.w3.org/2000/svg">
<g opacity="0.4" clip-path="url(#clip0_55_342)">
<path d="M32.5504 9.63145C32.3816 8.95705 32.0378 8.33915 31.5538 7.84014C31.0698 7.34114 30.4626 6.9787 29.7937 6.78945C27.3495 6.19263 17.5731 6.19263 17.5731 6.19263C17.5731 6.19263 7.79659 6.19263 5.35247 6.84629C4.68353 7.03554 4.07638 7.39798 3.59234 7.89698C3.1083 8.39599 2.76452 9.01389 2.59573 9.68829C2.14842 12.1687 1.92961 14.685 1.94207 17.2054C1.92612 19.7448 2.14494 22.2802 2.59573 24.7793C2.78182 25.4327 3.1333 26.0272 3.61621 26.5051C4.09912 26.983 4.69713 27.3283 5.35247 27.5076C7.79659 28.1613 17.5731 28.1613 17.5731 28.1613C17.5731 28.1613 27.3495 28.1613 29.7937 27.5076C30.4626 27.3184 31.0698 26.9559 31.5538 26.4569C32.0378 25.9579 32.3816 25.34 32.5504 24.6656C32.9943 22.2039 33.2131 19.7068 33.2041 17.2054C33.22 14.666 33.0012 12.1306 32.5504 9.63145Z" stroke="white" stroke-width="2.842" stroke-linecap="round" stroke-linejoin="round"/>
<path d="M14.3757 21.853L22.5465 17.2064L14.3757 12.5597V21.853Z" fill="white" stroke="white" stroke-width="2.842" stroke-linecap="round" stroke-linejoin="round"/>
</g>
<defs>
<clipPath id="clip0_55_342">
<rect width="34.104" height="34.104" fill="white" transform="translate(0.520966 0.508789)"/>
</clipPath>
</defs>
</svg>
