<svg width="16" height="16" viewBox="0 0 16 16" fill="none" xmlns="http://www.w3.org/2000/svg">
<g clip-path="url(#clip0_56_1194)">
<path d="M15.0558 4.63082C14.979 4.3239 14.8226 4.04269 14.6023 3.81559C14.382 3.58849 14.1057 3.42354 13.8012 3.33741C12.6889 3.0658 8.23959 3.0658 8.23959 3.0658C8.23959 3.0658 3.79027 3.0658 2.67795 3.36328C2.37351 3.44941 2.09719 3.61436 1.8769 3.84146C1.65662 4.06856 1.50016 4.34977 1.42334 4.65669C1.21977 5.78554 1.12019 6.93069 1.12586 8.07775C1.1186 9.23343 1.21819 10.3873 1.42334 11.5247C1.50803 11.8221 1.66799 12.0926 1.88777 12.3101C2.10754 12.5276 2.3797 12.6847 2.67795 12.7663C3.79027 13.0638 8.23959 13.0638 8.23959 13.0638C8.23959 13.0638 12.6889 13.0638 13.8012 12.7663C14.1057 12.6802 14.382 12.5153 14.6023 12.2882C14.8226 12.0611 14.979 11.7799 15.0558 11.4729C15.2578 10.3526 15.3574 9.21616 15.3533 8.07775C15.3606 6.92206 15.261 5.76817 15.0558 4.63082Z" stroke="white" stroke-width="1.29341" stroke-linecap="round" stroke-linejoin="round"/>
<path d="M6.78442 10.1929L10.503 8.07822L6.78442 5.9635V10.1929Z" fill="white" stroke="white" stroke-width="1.29341" stroke-linecap="round" stroke-linejoin="round"/>
</g>
<defs>
<clipPath id="clip0_56_1194">
<rect width="15.5209" height="15.5209" fill="white" transform="translate(0.479126 0.479126)"/>
</clipPath>
</defs>
</svg>
