<svg width="35" height="35" viewBox="0 0 35 35" fill="none" xmlns="http://www.w3.org/2000/svg">
<g clip-path="url(#clip0_56_970)">
<path d="M32.5503 9.67124C32.3815 8.99685 32.0377 8.37894 31.5537 7.87994C31.0697 7.38093 30.4625 7.0185 29.7936 6.82924C27.3495 6.23242 17.573 6.23242 17.573 6.23242C17.573 6.23242 7.79649 6.23242 5.35237 6.88608C4.68343 7.07534 4.07628 7.43777 3.59225 7.93678C3.10821 8.43578 2.76443 9.05369 2.59563 9.72808C2.14832 12.2085 1.92952 14.7248 1.94197 17.2452C1.92603 19.7846 2.14485 22.32 2.59563 24.8191C2.78173 25.4725 3.13321 26.0669 3.61612 26.5449C4.09903 27.0228 4.69704 27.3681 5.35237 27.5474C7.79649 28.2011 17.573 28.2011 17.573 28.2011C17.573 28.2011 27.3495 28.2011 29.7936 27.5474C30.4625 27.3582 31.0697 26.9957 31.5537 26.4967C32.0377 25.9977 32.3815 25.3798 32.5503 24.7054C32.9942 22.2437 33.213 19.7466 33.204 17.2452C33.2199 14.7058 33.0011 12.1704 32.5503 9.67124Z" stroke="#6691E3" stroke-width="2.842" stroke-linecap="round" stroke-linejoin="round"/>
<path d="M14.3756 21.8928L22.5464 17.2462L14.3756 12.5995V21.8928Z" fill="#6691E3" stroke="#6691E3" stroke-width="2.842" stroke-linecap="round" stroke-linejoin="round"/>
</g>
<defs>
<clipPath id="clip0_56_970">
<rect width="34.104" height="34.104" fill="white" transform="translate(0.520874 0.548584)"/>
</clipPath>
</defs>
</svg>
