<svg width="35" height="36" viewBox="0 0 35 36" fill="none" xmlns="http://www.w3.org/2000/svg">
<g filter="url(#filter0_d_8039_5820)">
<rect x="4" y="2" width="27.63" height="27.63" rx="6" fill="url(#paint0_linear_8039_5820)"/>
</g>
<path d="M24.1523 12.698C24.0792 12.4061 23.9305 12.1388 23.721 11.9229C23.5116 11.7069 23.2489 11.5501 22.9594 11.4682C21.9018 11.21 17.6715 11.21 17.6715 11.21C17.6715 11.21 13.4411 11.21 12.3835 11.4928C12.0941 11.5747 11.8314 11.7315 11.6219 11.9474C11.4125 12.1634 11.2637 12.4307 11.1907 12.7226C10.9971 13.7959 10.9024 14.8847 10.9078 15.9753C10.9009 17.0741 10.9956 18.1712 11.1907 19.2526C11.2712 19.5353 11.4233 19.7925 11.6322 19.9993C11.8412 20.2061 12.1 20.3555 12.3835 20.4331C13.4411 20.716 17.6715 20.716 17.6715 20.716C17.6715 20.716 21.9018 20.716 22.9594 20.4331C23.2489 20.3512 23.5116 20.1944 23.721 19.9785C23.9305 19.7626 24.0792 19.4952 24.1523 19.2034C24.3443 18.1381 24.439 17.0577 24.4351 15.9753C24.442 14.8764 24.3473 13.7793 24.1523 12.698Z" stroke="white" stroke-width="0.8" stroke-linecap="round" stroke-linejoin="round"/>
<path d="M16.2878 17.9866L19.8234 15.976L16.2878 13.9653V17.9866Z" fill="white" stroke="white" stroke-width="1.25" stroke-linecap="round" stroke-linejoin="round"/>
<defs>
<filter id="filter0_d_8039_5820" x="0.664544" y="0.787107" width="34.3008" height="34.3008" filterUnits="userSpaceOnUse" color-interpolation-filters="sRGB">
<feFlood flood-opacity="0" result="BackgroundImageFix"/>
<feColorMatrix in="SourceAlpha" type="matrix" values="0 0 0 0 0 0 0 0 0 0 0 0 0 0 0 0 0 0 127 0" result="hardAlpha"/>
<feOffset dy="2.12256"/>
<feGaussianBlur stdDeviation="1.66773"/>
<feColorMatrix type="matrix" values="0 0 0 0 0 0 0 0 0 0 0 0 0 0 0 0 0 0 0.02 0"/>
<feBlend mode="normal" in2="BackgroundImageFix" result="effect1_dropShadow_8039_5820"/>
<feBlend mode="normal" in="SourceGraphic" in2="effect1_dropShadow_8039_5820" result="shape"/>
</filter>
<linearGradient id="paint0_linear_8039_5820" x1="29.481" y1="27.481" x2="-5.21" y2="-9.359" gradientUnits="userSpaceOnUse">
<stop stop-color="#74367E"/>
<stop offset="1" stop-color="#74367E" stop-opacity="0"/>
</linearGradient>
</defs>
</svg>
