<svg width="15" height="15" viewBox="0 0 15 15" fill="none" xmlns="http://www.w3.org/2000/svg">
<path d="M14.0875 4.0125C14.0133 3.71588 13.8621 3.44411 13.6492 3.22463C13.4363 3.00515 13.1692 2.84574 12.875 2.7625C11.8 2.5 7.50002 2.5 7.50002 2.5C7.50002 2.5 3.20002 2.5 2.12502 2.7875C1.8308 2.87074 1.56376 3.03015 1.35086 3.24963C1.13797 3.46911 0.986764 3.74088 0.912522 4.0375C0.715781 5.12847 0.619544 6.23519 0.625022 7.34375C0.618009 8.46065 0.714251 9.57581 0.912522 10.675C0.994371 10.9624 1.14896 11.2238 1.36136 11.434C1.57376 11.6443 1.83678 11.7961 2.12502 11.875C3.20002 12.1625 7.50002 12.1625 7.50002 12.1625C7.50002 12.1625 11.8 12.1625 12.875 11.875C13.1692 11.7918 13.4363 11.6323 13.6492 11.4129C13.8621 11.1934 14.0133 10.9216 14.0875 10.625C14.2827 9.54224 14.379 8.44396 14.375 7.34375C14.382 6.22685 14.2858 5.11169 14.0875 4.0125Z" stroke="white" stroke-width="1.25" stroke-linecap="round" stroke-linejoin="round"/>
<path d="M6.09375 9.38816L9.6875 7.34441L6.09375 5.30066V9.38816Z" fill="white" stroke="white" stroke-width="1.25" stroke-linecap="round" stroke-linejoin="round"/>
</svg>
