<svg width="57" height="40" viewBox="0 0 57 40" fill="none" xmlns="http://www.w3.org/2000/svg">
<path d="M57 38.7485C57.0017 39.0811 56.8721 39.4007 56.6397 39.6371C56.4073 39.8735 56.0912 40.0073 55.7608 40.009H1.23922C1.07563 40.0081 0.913816 39.9749 0.763009 39.9111C0.612201 39.8473 0.475356 39.7542 0.360285 39.6371C0.245215 39.5201 0.154173 39.3814 0.092358 39.2289C0.0305431 39.0765 -0.000834237 38.9132 1.70528e-05 38.7486V1.26047C-0.00171043 0.927915 0.127873 0.608286 0.360262 0.371901C0.59265 0.135517 0.908807 0.00173914 1.23918 0H55.7608C55.9244 0.000856541 56.0862 0.0341385 56.237 0.0979452C56.3878 0.161752 56.5246 0.254834 56.6397 0.371876C56.7548 0.488919 56.8458 0.627631 56.9076 0.780091C56.9695 0.932551 57.0008 1.09577 57 1.26044V38.7485Z" fill="#E6E6E6"/>
<path d="M56.3568 38.1345C56.3568 38.4577 56.2292 38.7678 56.0022 38.9963C55.7751 39.2249 55.4671 39.3533 55.146 39.3533H1.89126C1.57014 39.3533 1.26218 39.2249 1.03511 38.9963C0.808045 38.7678 0.680481 38.4577 0.680481 38.1345V1.89139C0.680481 1.56815 0.808045 1.25815 1.03511 1.02958C1.26218 0.801015 1.57014 0.672607 1.89126 0.672607H55.1484C55.4691 0.673257 55.7765 0.80195 56.003 1.03045C56.2296 1.25894 56.3568 1.56858 56.3568 1.89139V38.1345Z" fill="white"/>
<path d="M3.52684 2.24634H53.5675C53.7581 2.24634 53.9409 2.32256 54.0756 2.45822C54.2104 2.59389 54.2861 2.7779 54.2861 2.96976V36.9159C54.2861 37.1078 54.2104 37.2918 54.0756 37.4274C53.9409 37.5631 53.7581 37.6393 53.5675 37.6393H3.52684C3.33623 37.6393 3.15344 37.5631 3.01866 37.4274C2.88388 37.2918 2.80817 37.1078 2.80817 36.9159V2.96976C2.80817 2.7779 2.88388 2.59389 3.01866 2.45822C3.15344 2.32256 3.33623 2.24634 3.52684 2.24634Z" fill="#E6E6E6"/>
<path d="M4.1602 3.06055H52.8796C52.974 3.06055 53.0674 3.07926 53.1546 3.11561C53.2418 3.15197 53.3211 3.20526 53.3878 3.27243C53.4545 3.33961 53.5075 3.41936 53.5436 3.50713C53.5797 3.5949 53.5983 3.68897 53.5983 3.78397V35.9187C53.5983 36.0137 53.5797 36.1078 53.5436 36.1955C53.5075 36.2833 53.4545 36.3631 53.3878 36.4302C53.3211 36.4974 53.2418 36.5507 53.1546 36.587C53.0674 36.6234 52.974 36.6421 52.8796 36.6421H4.1602C3.9696 36.6421 3.7868 36.5659 3.65202 36.4302C3.51725 36.2946 3.44153 36.1106 3.44153 35.9187V3.78397C3.44153 3.59211 3.51725 3.4081 3.65202 3.27243C3.7868 3.13676 3.9696 3.06055 4.1602 3.06055Z" fill="white"/>
<path d="M38.5594 25.384C38.3677 25.3839 38.1781 25.3432 38.0029 25.2647C37.9622 25.2465 37.9233 25.2242 37.8869 25.1983L34.3462 22.6895C34.1666 22.5623 34.0201 22.3934 33.9189 22.1973C33.8177 22.0011 33.7649 21.7833 33.7648 21.5622V18.1407C33.7649 17.9197 33.8177 17.7019 33.9189 17.5057C34.0201 17.3095 34.1666 17.1407 34.3462 17.0134L37.8869 14.5046C37.9233 14.4787 37.9622 14.4565 38.0029 14.4383C38.2115 14.3449 38.4399 14.3055 38.6675 14.3236C38.895 14.3417 39.1144 14.4168 39.3058 14.542C39.4972 14.6672 39.6545 14.8385 39.7634 15.0405C39.8723 15.2424 39.9293 15.4685 39.9293 15.6983V24.0047C39.9293 24.3704 39.785 24.7211 39.5281 24.9797C39.2712 25.2383 38.9227 25.3836 38.5594 25.3836L38.5594 25.384Z" fill="#6457F0"/>
<path d="M30.6353 26.0565H20.7601C18.7454 26.0548 17.1126 24.7439 17.1105 23.1262V16.5763C17.1126 14.9586 18.7454 13.6477 20.7601 13.646H30.6611C32.6615 13.6479 34.2825 14.9494 34.2849 16.5556V23.1262C34.2828 24.7439 32.6501 26.0548 30.6353 26.0565Z" fill="#6457F0"/>
<path d="M48.2264 34.5757C49.8485 34.5757 51.1634 33.252 51.1634 31.6193C51.1634 29.9865 49.8485 28.6628 48.2264 28.6628C46.6044 28.6628 45.2894 29.9865 45.2894 31.6193C45.2894 33.252 46.6044 34.5757 48.2264 34.5757Z" fill="#152848"/>
<path d="M49.7519 31.5663L47.4108 30.2057C47.4016 30.2003 47.3911 30.1975 47.3804 30.1975C47.3698 30.1975 47.3593 30.2003 47.35 30.2057C47.3408 30.2111 47.3331 30.2188 47.3278 30.2281C47.3225 30.2374 47.3196 30.248 47.3196 30.2587V32.9798C47.3196 32.9906 47.3225 33.0011 47.3278 33.0104C47.3331 33.0197 47.3408 33.0275 47.35 33.0328C47.3593 33.0382 47.3698 33.041 47.3804 33.041C47.3911 33.041 47.4016 33.0382 47.4108 33.0328L49.7519 31.6723C49.7612 31.6669 49.7688 31.6592 49.7742 31.6499C49.7795 31.6406 49.7823 31.63 49.7823 31.6193C49.7823 31.6085 49.7795 31.598 49.7742 31.5887C49.7688 31.5794 49.7612 31.5717 49.7519 31.5663L47.4108 30.2057C47.4016 30.2003 47.3911 30.1975 47.3804 30.1975C47.3698 30.1975 47.3593 30.2003 47.35 30.2057C47.3408 30.2111 47.3331 30.2188 47.3278 30.2281C47.3225 30.2374 47.3196 30.248 47.3196 30.2587V32.9798C47.3196 32.9906 47.3225 33.0011 47.3278 33.0104C47.3331 33.0197 47.3408 33.0275 47.35 33.0328C47.3593 33.0382 47.3698 33.041 47.3804 33.041C47.3911 33.041 47.4016 33.0382 47.4108 33.0328L49.7519 31.6723C49.7612 31.6669 49.7688 31.6592 49.7742 31.6499C49.7795 31.6406 49.7823 31.63 49.7823 31.6193C49.7823 31.6085 49.7795 31.598 49.7742 31.5887C49.7688 31.5794 49.7612 31.5717 49.7519 31.5663Z" fill="white"/>
</svg>
